<svg width="512" height="512" viewBox="0 0 512 512" fill="none" xmlns="http://www.w3.org/2000/svg">
<rect width="512" height="512" rx="96" fill="#1A1A1A"/>
<path d="M128.566 72.7892H111.738C111.258 70.0295 110.373 67.5848 109.083 65.455C107.793 63.2953 106.188 61.4655 104.269 59.9656C102.349 58.4658 100.159 57.3409 97.6993 56.591C95.2695 55.8111 92.6448 55.4212 89.8252 55.4212C84.8157 55.4212 80.3762 56.681 76.5066 59.2007C72.6371 61.6905 69.6074 65.3501 67.4176 70.1795C65.2279 74.979 64.133 80.8433 64.133 87.7726C64.133 94.8218 65.2279 100.761 67.4176 105.591C69.6374 110.39 72.6671 114.02 76.5066 116.479C80.3762 118.909 84.8007 120.124 89.7802 120.124C92.5399 120.124 95.1196 119.764 97.5193 119.044C99.949 118.294 102.124 117.199 104.044 115.759C105.993 114.32 107.628 112.55 108.948 110.45C110.298 108.35 111.228 105.951 111.738 103.251L128.566 103.341C127.936 107.72 126.571 111.83 124.471 115.669C122.402 119.509 119.687 122.899 116.327 125.838C112.968 128.748 109.038 131.028 104.539 132.678C100.039 134.297 95.0446 135.107 89.5552 135.107C81.4561 135.107 74.2269 133.233 67.8676 129.483C61.5083 125.733 56.4988 120.319 52.8392 113.24C49.1796 106.161 47.3499 97.6715 47.3499 87.7726C47.3499 77.8437 49.1946 69.3546 52.8842 62.3054C56.5738 55.2262 61.5983 49.8118 67.9576 46.0622C74.3169 42.3126 81.5161 40.4378 89.5552 40.4378C94.6846 40.4378 99.4541 41.1577 103.864 42.5976C108.273 44.0374 112.203 46.1522 115.652 48.9419C119.102 51.7016 121.937 55.0912 124.156 59.1107C126.406 63.1003 127.876 67.6598 128.566 72.7892Z" fill="white"/>
<path d="M155.62 93.352V133.847H139.332V41.6977H155.26V76.4788H156.07C157.69 72.5793 160.195 69.5046 163.584 67.2548C167.004 64.9751 171.353 63.8352 176.633 63.8352C181.432 63.8352 185.617 64.8401 189.186 66.8499C192.756 68.8597 195.516 71.7993 197.465 75.6689C199.445 79.5385 200.435 84.263 200.435 89.8423V133.847H184.147V92.3621C184.147 87.7126 182.947 84.098 180.547 81.5183C178.178 78.9086 174.848 77.6037 170.558 77.6037C167.679 77.6037 165.099 78.2336 162.819 79.4935C160.569 80.7234 158.8 82.5082 157.51 84.8479C156.25 87.1876 155.62 90.0223 155.62 93.352Z" fill="white"/>
<path d="M213.237 133.847V64.7351H229.03V76.2539H229.75C231.01 72.2643 233.17 69.1896 236.23 67.0299C239.319 64.8401 242.844 63.7452 246.803 63.7452C247.703 63.7452 248.708 63.7902 249.818 63.8802C250.958 63.9402 251.903 64.0452 252.653 64.1952V79.1785C251.963 78.9385 250.868 78.7286 249.368 78.5486C247.898 78.3386 246.473 78.2336 245.094 78.2336C242.124 78.2336 239.454 78.8786 237.084 80.1684C234.745 81.4283 232.9 83.1831 231.55 85.4328C230.2 87.6826 229.525 90.2773 229.525 93.217V133.847H213.237Z" fill="white"/>
<path d="M259.673 133.847V64.7351H275.961V133.847H259.673ZM267.862 54.9262C265.282 54.9262 263.062 54.0713 261.203 52.3615C259.343 50.6217 258.413 48.5369 258.413 46.1072C258.413 43.6475 259.343 41.5627 261.203 39.8529C263.062 38.1131 265.282 37.2432 267.862 37.2432C270.472 37.2432 272.691 38.1131 274.521 39.8529C276.381 41.5627 277.311 43.6475 277.311 46.1072C277.311 48.5369 276.381 50.6217 274.521 52.3615C272.691 54.0713 270.472 54.9262 267.862 54.9262Z" fill="white"/>
<path d="M343.533 83.0031L328.685 84.6229C328.265 83.1231 327.53 81.7132 326.48 80.3934C325.46 79.0735 324.08 78.0087 322.341 77.1987C320.601 76.3888 318.471 75.9839 315.951 75.9839C312.562 75.9839 309.712 76.7188 307.402 78.1886C305.122 79.6585 303.998 81.5633 304.028 83.903C303.998 85.9128 304.732 87.5476 306.232 88.8075C307.762 90.0673 310.282 91.1022 313.791 91.9121L325.58 94.4318C332.119 95.8417 336.979 98.0764 340.159 101.136C343.368 104.196 344.988 108.2 345.018 113.15C344.988 117.499 343.713 121.339 341.193 124.668C338.704 127.968 335.239 130.548 330.8 132.408C326.36 134.267 321.261 135.197 315.501 135.197C307.042 135.197 300.233 133.428 295.074 129.888C289.914 126.318 286.839 121.354 285.85 114.995L301.733 113.465C302.453 116.584 303.983 118.939 306.322 120.529C308.662 122.119 311.707 122.914 315.456 122.914C319.326 122.914 322.431 122.119 324.77 120.529C327.14 118.939 328.325 116.974 328.325 114.635C328.325 112.655 327.56 111.02 326.03 109.73C324.53 108.44 322.191 107.45 319.011 106.76L307.222 104.286C300.593 102.906 295.688 100.581 292.509 97.3115C289.329 94.0119 287.754 89.8423 287.784 84.8029C287.754 80.5434 288.909 76.8538 291.249 73.7341C293.619 70.5845 296.903 68.1547 301.103 66.4449C305.332 64.7051 310.207 63.8352 315.726 63.8352C323.825 63.8352 330.2 65.56 334.849 69.0097C339.529 72.4593 342.423 77.1238 343.533 83.0031Z" fill="white"/>
<path d="M389.159 64.7351V77.3337H349.428V64.7351H389.159ZM359.237 48.177H375.526V113.06C375.526 115.25 375.855 116.929 376.515 118.099C377.205 119.239 378.105 120.019 379.215 120.439C380.325 120.859 381.555 121.069 382.905 121.069C383.925 121.069 384.854 120.994 385.694 120.844C386.564 120.694 387.224 120.559 387.674 120.439L390.419 133.173C389.549 133.473 388.304 133.802 386.684 134.162C385.094 134.522 383.145 134.732 380.835 134.792C376.755 134.912 373.081 134.297 369.811 132.948C366.542 131.568 363.947 129.438 362.027 126.558C360.137 123.679 359.207 120.079 359.237 115.759V48.177Z" fill="white"/>
<path d="M79.1163 244.803C72.3671 244.803 66.5177 243.318 61.5683 240.348C56.6188 237.379 52.7793 233.224 50.0496 227.885C47.3499 222.545 46 216.306 46 209.167C46 202.027 47.3499 195.773 50.0496 190.404C52.7793 185.034 56.6188 180.865 61.5683 177.895C66.5177 174.925 72.3671 173.441 79.1163 173.441C85.8656 173.441 91.7149 174.925 96.6644 177.895C101.614 180.865 105.438 185.034 108.138 190.404C110.868 195.773 112.233 202.027 112.233 209.167C112.233 216.306 110.868 222.545 108.138 227.885C105.438 233.224 101.614 237.379 96.6644 240.348C91.7149 243.318 85.8656 244.803 79.1163 244.803ZM79.2063 231.754C82.8659 231.754 85.9256 230.749 88.3853 228.74C90.845 226.7 92.6748 223.97 93.8747 220.55C95.1046 217.131 95.7195 213.321 95.7195 209.122C95.7195 204.892 95.1046 201.068 93.8747 197.648C92.6748 194.198 90.845 191.454 88.3853 189.414C85.9256 187.374 82.8659 186.354 79.2063 186.354C75.4567 186.354 72.3371 187.374 69.8474 189.414C67.3876 191.454 65.5428 194.198 64.313 197.648C63.1131 201.068 62.5132 204.892 62.5132 209.122C62.5132 213.321 63.1131 217.131 64.313 220.55C65.5428 223.97 67.3876 226.7 69.8474 228.74C72.3371 230.749 75.4567 231.754 79.2063 231.754Z" fill="white"/>
<path d="M122.256 269.37V174.341H138.274V185.769H139.219C140.059 184.089 141.244 182.305 142.774 180.415C144.304 178.495 146.374 176.86 148.983 175.51C151.593 174.131 154.923 173.441 158.972 173.441C164.312 173.441 169.126 174.806 173.416 177.535C177.735 180.235 181.155 184.239 183.674 189.549C186.224 194.828 187.499 201.308 187.499 208.987C187.499 216.576 186.254 223.025 183.764 228.335C181.275 233.644 177.885 237.694 173.596 240.483C169.306 243.273 164.447 244.668 159.017 244.668C155.058 244.668 151.773 244.008 149.163 242.688C146.554 241.368 144.454 239.778 142.864 237.919C141.304 236.029 140.089 234.244 139.219 232.564H138.544V269.37H122.256ZM138.229 208.897C138.229 213.366 138.859 217.281 140.119 220.64C141.409 224 143.254 226.625 145.654 228.515C148.083 230.374 151.023 231.304 154.473 231.304C158.072 231.304 161.087 230.344 163.517 228.425C165.946 226.475 167.776 223.82 169.006 220.46C170.266 217.071 170.896 213.216 170.896 208.897C170.896 204.607 170.281 200.798 169.051 197.468C167.821 194.138 165.991 191.529 163.562 189.639C161.132 187.749 158.102 186.804 154.473 186.804C150.993 186.804 148.038 187.719 145.609 189.549C143.179 191.379 141.334 193.943 140.074 197.243C138.844 200.543 138.229 204.427 138.229 208.897Z" fill="white"/>
<path d="M213.934 202.957V243.453H197.646V151.303H213.575V186.084H214.384C216.004 182.185 218.509 179.11 221.899 176.86C225.318 174.581 229.668 173.441 234.947 173.441C239.747 173.441 243.931 174.446 247.501 176.455C251.07 178.465 253.83 181.405 255.78 185.274C257.76 189.144 258.75 193.868 258.75 199.448V243.453H242.461V201.968C242.461 197.318 241.261 193.703 238.862 191.124C236.492 188.514 233.162 187.209 228.873 187.209C225.993 187.209 223.413 187.839 221.134 189.099C218.884 190.329 217.114 192.114 215.824 194.453C214.564 196.793 213.934 199.628 213.934 202.957Z" fill="white"/>
<path d="M302.148 244.803C295.219 244.803 289.235 243.363 284.195 240.483C279.186 237.574 275.331 233.464 272.631 228.155C269.932 222.815 268.582 216.531 268.582 209.302C268.582 202.192 269.932 195.953 272.631 190.584C275.361 185.184 279.171 180.985 284.06 177.985C288.95 174.955 294.694 173.441 301.293 173.441C305.553 173.441 309.572 174.131 313.352 175.51C317.161 176.86 320.521 178.96 323.431 181.81C326.37 184.659 328.68 188.289 330.36 192.699C332.04 197.078 332.88 202.297 332.88 208.357V213.351H276.231V202.372H317.266C317.236 199.253 316.562 196.478 315.242 194.048C313.922 191.589 312.077 189.654 309.707 188.244C307.368 186.834 304.638 186.129 301.518 186.129C298.189 186.129 295.264 186.939 292.744 188.559C290.224 190.149 288.26 192.249 286.85 194.858C285.47 197.438 284.765 200.273 284.735 203.362V212.946C284.735 216.966 285.47 220.415 286.94 223.295C288.41 226.145 290.464 228.335 293.104 229.864C295.744 231.364 298.833 232.114 302.373 232.114C304.743 232.114 306.888 231.784 308.807 231.124C310.727 230.434 312.392 229.429 313.802 228.11C315.212 226.79 316.277 225.155 316.996 223.205L332.205 224.915C331.245 228.935 329.415 232.444 326.715 235.444C324.046 238.413 320.626 240.723 316.457 242.373C312.287 243.993 307.518 244.803 302.148 244.803Z" fill="white"/>
<path d="M342.858 243.453V174.341H358.652V185.859H359.371C360.631 181.87 362.791 178.795 365.851 176.635C368.94 174.446 372.465 173.351 376.425 173.351C377.324 173.351 378.329 173.396 379.439 173.486C380.579 173.546 381.524 173.651 382.274 173.801V188.784C381.584 188.544 380.489 188.334 378.989 188.154C377.519 187.944 376.095 187.839 374.715 187.839C371.745 187.839 369.075 188.484 366.706 189.774C364.366 191.034 362.521 192.789 361.171 195.038C359.821 197.288 359.146 199.883 359.146 202.822V243.453H342.858Z" fill="white"/>
<path d="M99.7691 285.304C99.3491 281.374 97.5793 278.315 94.4596 276.125C91.37 273.935 87.3504 272.84 82.401 272.84C78.9214 272.84 75.9367 273.365 73.447 274.415C70.9572 275.465 69.0525 276.89 67.7326 278.69C66.4127 280.489 65.7378 282.544 65.7078 284.854C65.7078 286.774 66.1428 288.439 67.0127 289.848C67.9126 291.258 69.1274 292.458 70.6573 293.448C72.1871 294.408 73.8819 295.218 75.7417 295.878C77.6015 296.538 79.4763 297.093 81.3661 297.543L90.0051 299.702C93.4847 300.512 96.8294 301.607 100.039 302.987C103.279 304.367 106.173 306.107 108.723 308.206C111.303 310.306 113.343 312.841 114.842 315.811C116.342 318.78 117.092 322.26 117.092 326.249C117.092 331.649 115.712 336.403 112.953 340.513C110.193 344.592 106.203 347.787 100.984 350.097C95.7945 352.377 89.5102 353.516 82.131 353.516C74.9618 353.516 68.7375 352.407 63.4581 350.187C58.2086 347.967 54.0991 344.727 51.1294 340.468C48.1898 336.208 46.5999 331.019 46.36 324.9H62.7831C63.0231 328.109 64.013 330.779 65.7528 332.909C67.4926 335.038 69.7574 336.628 72.5471 337.678C75.3668 338.728 78.5164 339.253 81.996 339.253C85.6256 339.253 88.8053 338.713 91.535 337.633C94.2947 336.523 96.4544 334.993 98.0142 333.044C99.5741 331.064 100.369 328.754 100.399 326.114C100.369 323.715 99.6641 321.735 98.2842 320.175C96.9044 318.585 94.9696 317.265 92.4799 316.216C90.0201 315.136 87.1404 314.176 83.8408 313.336L73.357 310.636C65.7678 308.686 59.7685 305.732 55.359 301.772C50.9794 297.783 48.7897 292.488 48.7897 285.889C48.7897 280.459 50.2595 275.705 53.1992 271.625C56.1689 267.546 60.2034 264.381 65.3029 262.131C70.4023 259.852 76.1767 258.712 82.6259 258.712C89.1652 258.712 94.8946 259.852 99.814 262.131C104.763 264.381 108.648 267.516 111.468 271.535C114.287 275.525 115.742 280.114 115.832 285.304H99.7691Z" fill="white"/>
<path d="M147.341 353.516C142.961 353.516 139.017 352.736 135.507 351.177C132.028 349.587 129.268 347.247 127.228 344.157C125.218 341.068 124.213 337.258 124.213 332.729C124.213 328.829 124.933 325.604 126.373 323.055C127.813 320.505 129.778 318.465 132.268 316.935C134.757 315.406 137.562 314.251 140.682 313.471C143.831 312.661 147.086 312.076 150.446 311.716C154.495 311.296 157.78 310.921 160.3 310.591C162.819 310.231 164.649 309.691 165.789 308.971C166.959 308.221 167.544 307.067 167.544 305.507V305.237C167.544 301.847 166.539 299.222 164.529 297.363C162.519 295.503 159.625 294.573 155.845 294.573C151.855 294.573 148.691 295.443 146.351 297.183C144.041 298.922 142.481 300.977 141.672 303.347L126.463 301.187C127.663 296.988 129.643 293.478 132.403 290.658C135.162 287.809 138.537 285.679 142.526 284.269C146.516 282.829 150.926 282.109 155.755 282.109C159.085 282.109 162.399 282.499 165.699 283.279C168.999 284.059 172.013 285.349 174.743 287.149C177.473 288.919 179.662 291.333 181.312 294.393C182.992 297.453 183.832 301.277 183.832 305.867V352.122H168.174V342.628H167.634C166.644 344.547 165.249 346.347 163.449 348.027C161.679 349.677 159.445 351.012 156.745 352.032C154.075 353.021 150.941 353.516 147.341 353.516ZM151.57 341.548C154.84 341.548 157.675 340.903 160.075 339.613C162.474 338.293 164.319 336.553 165.609 334.394C166.929 332.234 167.589 329.879 167.589 327.329V319.185C167.079 319.605 166.209 319.995 164.979 320.355C163.779 320.715 162.429 321.03 160.929 321.3C159.43 321.57 157.945 321.81 156.475 322.02C155.005 322.23 153.73 322.41 152.65 322.56C150.221 322.89 148.046 323.43 146.126 324.18C144.206 324.93 142.691 325.979 141.582 327.329C140.472 328.649 139.917 330.359 139.917 332.459C139.917 335.458 141.012 337.723 143.201 339.253C145.391 340.783 148.181 341.548 151.57 341.548Z" fill="white"/>
<path d="M196.409 352.122V283.009H211.977V294.753H212.787C214.227 290.793 216.612 287.704 219.941 285.484C223.271 283.234 227.246 282.109 231.865 282.109C236.544 282.109 240.489 283.249 243.699 285.529C246.938 287.779 249.218 290.853 250.538 294.753H251.258C252.788 290.913 255.367 287.854 258.997 285.574C262.657 283.264 266.991 282.109 272.001 282.109C278.36 282.109 283.549 284.119 287.569 288.139C291.588 292.158 293.598 298.023 293.598 305.732V352.122H277.265V308.251C277.265 303.962 276.125 300.827 273.845 298.847C271.566 296.838 268.776 295.833 265.476 295.833C261.547 295.833 258.472 297.063 256.252 299.522C254.063 301.952 252.968 305.117 252.968 309.016V352.122H236.994V307.576C236.994 304.007 235.915 301.157 233.755 299.027C231.625 296.898 228.835 295.833 225.386 295.833C223.046 295.833 220.916 296.433 218.996 297.633C217.077 298.802 215.547 300.467 214.407 302.627C213.267 304.757 212.697 307.246 212.697 310.096V352.122H196.409Z" fill="white"/>
<path d="M336.468 353.471C329.719 353.471 323.869 351.987 318.92 349.017C313.971 346.047 310.131 341.893 307.401 336.553C304.702 331.214 303.352 324.975 303.352 317.835C303.352 310.696 304.702 304.442 307.401 299.072C310.131 293.703 313.971 289.533 318.92 286.564C323.869 283.594 329.719 282.109 336.468 282.109C343.217 282.109 349.067 283.594 354.016 286.564C358.966 289.533 362.79 293.703 365.49 299.072C368.22 304.442 369.584 310.696 369.584 317.835C369.584 324.975 368.22 331.214 365.49 336.553C362.79 341.893 358.966 346.047 354.016 349.017C349.067 351.987 343.217 353.471 336.468 353.471ZM336.558 340.423C340.218 340.423 343.277 339.418 345.737 337.408C348.197 335.368 350.027 332.639 351.226 329.219C352.456 325.799 353.071 321.99 353.071 317.79C353.071 313.561 352.456 309.736 351.226 306.317C350.027 302.867 348.197 300.122 345.737 298.083C343.277 296.043 340.218 295.023 336.558 295.023C332.808 295.023 329.689 296.043 327.199 298.083C324.739 300.122 322.895 302.867 321.665 306.317C320.465 309.736 319.865 313.561 319.865 317.79C319.865 321.99 320.465 325.799 321.665 329.219C322.895 332.639 324.739 335.368 327.199 337.408C329.689 339.418 332.808 340.423 336.558 340.423Z" fill="white"/>
<path d="M48.9697 461.727V392.615H65.2579V461.727H48.9697ZM57.1588 382.806C54.5791 382.806 52.3593 381.951 50.4995 380.241C48.6397 378.501 47.7098 376.416 47.7098 373.987C47.7098 371.527 48.6397 369.442 50.4995 367.732C52.3593 365.993 54.5791 365.123 57.1588 365.123C59.7685 365.123 61.9882 365.993 63.818 367.732C65.6778 369.442 66.6077 371.527 66.6077 373.987C66.6077 376.416 65.6778 378.501 63.818 380.241C61.9882 381.951 59.7685 382.806 57.1588 382.806Z" fill="white"/>
<path d="M94.4943 369.577V461.727H78.2061V369.577H94.4943Z" fill="white"/>
<path d="M137.589 463.077C130.84 463.077 124.991 461.592 120.041 458.622C115.092 455.653 111.252 451.498 108.522 446.159C105.823 440.819 104.473 434.58 104.473 427.441C104.473 420.302 105.823 414.047 108.522 408.678C111.252 403.308 115.092 399.139 120.041 396.169C124.991 393.2 130.84 391.715 137.589 391.715C144.338 391.715 150.188 393.2 155.137 396.169C160.087 399.139 163.911 403.308 166.611 408.678C169.341 414.047 170.706 420.302 170.706 427.441C170.706 434.58 169.341 440.819 166.611 446.159C163.911 451.498 160.087 455.653 155.137 458.622C150.188 461.592 144.338 463.077 137.589 463.077ZM137.679 450.028C141.339 450.028 144.398 449.023 146.858 447.014C149.318 444.974 151.148 442.244 152.348 438.825C153.577 435.405 154.192 431.595 154.192 427.396C154.192 423.166 153.577 419.342 152.348 415.922C151.148 412.472 149.318 409.728 146.858 407.688C144.398 405.648 141.339 404.628 137.679 404.628C133.93 404.628 130.81 405.648 128.32 407.688C125.86 409.728 124.016 412.472 122.786 415.922C121.586 419.342 120.986 423.166 120.986 427.396C120.986 431.595 121.586 435.405 122.786 438.825C124.016 442.244 125.86 444.974 128.32 447.014C130.81 449.023 133.93 450.028 137.679 450.028Z" fill="white"/>
<path d="M240.111 392.615L215.499 461.727H197.501L172.889 392.615H190.257L206.14 443.954H206.86L222.788 392.615H240.111Z" fill="white"/>
</svg>
