<svg width="600" height="400" viewBox="0 0 600 400" fill="none" xmlns="http://www.w3.org/2000/svg">
<g clip-path="url(#clip0_35_77)">
<rect width="600" height="400" fill="white"/>
<rect width="600" height="400" fill="#27A7E8" fill-opacity="0.7"/>
<rect x="2" y="2" width="596" height="396" fill="#9747FF"/>
<rect x="4" y="4" width="592" height="392" fill="white"/>
<rect x="6" y="6" width="588" height="388" fill="#B2EBF2"/>
<path d="M98.1783 117.98V112.909H122.07V117.98H113.164V142H107.085V117.98H98.1783ZM130.942 129.386V142H124.891V112.909H130.772V124.031H131.028C131.52 122.743 132.316 121.735 133.414 121.006C134.513 120.267 135.89 119.898 137.548 119.898C139.063 119.898 140.384 120.229 141.511 120.892C142.647 121.545 143.528 122.488 144.153 123.719C144.787 124.94 145.1 126.403 145.09 128.108V142H139.039V129.188C139.049 127.843 138.708 126.796 138.016 126.048C137.335 125.3 136.378 124.926 135.147 124.926C134.323 124.926 133.594 125.101 132.96 125.452C132.335 125.802 131.842 126.313 131.482 126.986C131.132 127.649 130.952 128.449 130.942 129.386ZM148.852 142V120.182H154.903V142H148.852ZM151.892 117.369C150.992 117.369 150.221 117.071 149.577 116.474C148.942 115.868 148.625 115.144 148.625 114.301C148.625 113.468 148.942 112.753 149.577 112.156C150.221 111.55 150.992 111.247 151.892 111.247C152.792 111.247 153.559 111.55 154.193 112.156C154.837 112.753 155.159 113.468 155.159 114.301C155.159 115.144 154.837 115.868 154.193 116.474C153.559 117.071 152.792 117.369 151.892 117.369ZM176.904 126.403L171.364 126.744C171.27 126.271 171.066 125.845 170.754 125.466C170.441 125.078 170.029 124.77 169.518 124.543C169.016 124.306 168.415 124.188 167.714 124.188C166.776 124.188 165.986 124.386 165.342 124.784C164.698 125.172 164.376 125.693 164.376 126.347C164.376 126.867 164.584 127.308 165.001 127.668C165.417 128.027 166.132 128.316 167.146 128.534L171.094 129.33C173.216 129.765 174.797 130.466 175.839 131.432C176.88 132.398 177.401 133.667 177.401 135.239C177.401 136.669 176.98 137.923 176.137 139.003C175.304 140.082 174.158 140.925 172.7 141.531C171.251 142.128 169.579 142.426 167.685 142.426C164.797 142.426 162.496 141.825 160.782 140.622C159.077 139.41 158.078 137.762 157.785 135.679L163.737 135.366C163.916 136.247 164.352 136.92 165.043 137.384C165.735 137.838 166.62 138.065 167.7 138.065C168.76 138.065 169.612 137.862 170.256 137.455C170.91 137.038 171.241 136.503 171.251 135.849C171.241 135.3 171.009 134.85 170.555 134.5C170.1 134.14 169.399 133.866 168.452 133.676L164.674 132.923C162.543 132.497 160.957 131.759 159.915 130.707C158.883 129.656 158.367 128.316 158.367 126.688C158.367 125.286 158.746 124.079 159.504 123.065C160.271 122.052 161.345 121.271 162.728 120.722C164.12 120.172 165.749 119.898 167.614 119.898C170.37 119.898 172.539 120.48 174.12 121.645C175.711 122.81 176.639 124.396 176.904 126.403ZM188.469 142V120.182H194.521V142H188.469ZM191.509 117.369C190.61 117.369 189.838 117.071 189.194 116.474C188.559 115.868 188.242 115.144 188.242 114.301C188.242 113.468 188.559 112.753 189.194 112.156C189.838 111.55 190.61 111.247 191.509 111.247C192.409 111.247 193.176 111.55 193.81 112.156C194.454 112.753 194.776 113.468 194.776 114.301C194.776 115.144 194.454 115.868 193.81 116.474C193.176 117.071 192.409 117.369 191.509 117.369ZM198.368 142V120.182H204.135V124.031H204.391C204.845 122.753 205.603 121.744 206.663 121.006C207.724 120.267 208.993 119.898 210.47 119.898C211.966 119.898 213.24 120.272 214.291 121.02C215.342 121.759 216.043 122.762 216.393 124.031H216.621C217.066 122.781 217.871 121.782 219.036 121.034C220.21 120.277 221.597 119.898 223.197 119.898C225.233 119.898 226.886 120.546 228.155 121.844C229.433 123.132 230.072 124.959 230.072 127.327V142H224.036V128.52C224.036 127.308 223.714 126.399 223.07 125.793C222.426 125.187 221.621 124.884 220.655 124.884C219.556 124.884 218.699 125.234 218.084 125.935C217.468 126.626 217.161 127.54 217.161 128.676V142H211.294V128.392C211.294 127.322 210.986 126.47 210.371 125.835C209.765 125.201 208.964 124.884 207.97 124.884C207.298 124.884 206.692 125.054 206.152 125.395C205.622 125.726 205.2 126.195 204.888 126.801C204.575 127.398 204.419 128.098 204.419 128.903V142H198.368ZM233.852 150.182V120.182H239.818V123.847H240.088C240.353 123.259 240.737 122.663 241.239 122.057C241.75 121.441 242.413 120.93 243.227 120.523C244.051 120.106 245.074 119.898 246.295 119.898C247.886 119.898 249.354 120.314 250.699 121.148C252.044 121.972 253.118 123.217 253.923 124.884C254.728 126.541 255.131 128.619 255.131 131.119C255.131 133.553 254.738 135.608 253.952 137.284C253.175 138.951 252.115 140.215 250.77 141.077C249.435 141.929 247.938 142.355 246.281 142.355C245.107 142.355 244.108 142.161 243.284 141.773C242.47 141.384 241.802 140.897 241.281 140.31C240.76 139.713 240.363 139.112 240.088 138.506H239.903V150.182H233.852ZM239.776 131.091C239.776 132.388 239.955 133.52 240.315 134.486C240.675 135.452 241.196 136.205 241.878 136.744C242.56 137.275 243.388 137.54 244.364 137.54C245.348 137.54 246.182 137.27 246.864 136.73C247.545 136.181 248.062 135.423 248.412 134.457C248.772 133.482 248.952 132.36 248.952 131.091C248.952 129.831 248.777 128.723 248.426 127.767C248.076 126.811 247.56 126.062 246.878 125.523C246.196 124.983 245.358 124.713 244.364 124.713C243.379 124.713 242.545 124.973 241.864 125.494C241.191 126.015 240.675 126.754 240.315 127.71C239.955 128.667 239.776 129.794 239.776 131.091ZM268.023 142.426C265.816 142.426 263.908 141.957 262.298 141.02C260.698 140.073 259.462 138.757 258.591 137.071C257.72 135.376 257.284 133.411 257.284 131.176C257.284 128.922 257.72 126.953 258.591 125.267C259.462 123.572 260.698 122.256 262.298 121.318C263.908 120.371 265.816 119.898 268.023 119.898C270.229 119.898 272.133 120.371 273.733 121.318C275.343 122.256 276.583 123.572 277.455 125.267C278.326 126.953 278.761 128.922 278.761 131.176C278.761 133.411 278.326 135.376 277.455 137.071C276.583 138.757 275.343 140.073 273.733 141.02C272.133 141.957 270.229 142.426 268.023 142.426ZM268.051 137.739C269.055 137.739 269.893 137.455 270.565 136.886C271.238 136.309 271.744 135.523 272.085 134.528C272.436 133.534 272.611 132.402 272.611 131.134C272.611 129.865 272.436 128.733 272.085 127.739C271.744 126.744 271.238 125.958 270.565 125.381C269.893 124.803 269.055 124.514 268.051 124.514C267.038 124.514 266.186 124.803 265.494 125.381C264.813 125.958 264.296 126.744 263.946 127.739C263.605 128.733 263.435 129.865 263.435 131.134C263.435 132.402 263.605 133.534 263.946 134.528C264.296 135.523 264.813 136.309 265.494 136.886C266.186 137.455 267.038 137.739 268.051 137.739ZM281.696 142V120.182H287.562V123.989H287.79C288.188 122.634 288.855 121.612 289.793 120.92C290.73 120.22 291.81 119.869 293.031 119.869C293.334 119.869 293.661 119.888 294.011 119.926C294.362 119.964 294.67 120.016 294.935 120.082V125.452C294.651 125.366 294.258 125.291 293.756 125.224C293.254 125.158 292.795 125.125 292.378 125.125C291.488 125.125 290.692 125.319 289.991 125.707C289.3 126.086 288.751 126.616 288.344 127.298C287.946 127.98 287.747 128.766 287.747 129.656V142H281.696ZM309.762 120.182V124.727H296.623V120.182H309.762ZM299.606 114.955H305.657V135.295C305.657 135.854 305.742 136.29 305.913 136.602C306.083 136.905 306.32 137.118 306.623 137.241C306.935 137.365 307.295 137.426 307.702 137.426C307.987 137.426 308.271 137.402 308.555 137.355C308.839 137.298 309.057 137.256 309.208 137.227L310.16 141.73C309.857 141.825 309.431 141.934 308.881 142.057C308.332 142.189 307.665 142.27 306.879 142.298C305.42 142.355 304.142 142.161 303.043 141.716C301.954 141.271 301.107 140.58 300.501 139.642C299.895 138.705 299.596 137.521 299.606 136.091V114.955ZM318.925 142.412C317.533 142.412 316.293 142.17 315.204 141.688C314.115 141.195 313.253 140.471 312.619 139.514C311.994 138.548 311.681 137.346 311.681 135.906C311.681 134.694 311.904 133.676 312.349 132.852C312.794 132.028 313.4 131.366 314.167 130.864C314.934 130.362 315.805 129.983 316.781 129.727C317.765 129.472 318.798 129.292 319.877 129.188C321.146 129.055 322.169 128.932 322.945 128.818C323.722 128.695 324.285 128.515 324.636 128.278C324.986 128.042 325.161 127.691 325.161 127.227V127.142C325.161 126.242 324.877 125.546 324.309 125.054C323.75 124.562 322.955 124.315 321.923 124.315C320.834 124.315 319.967 124.557 319.323 125.04C318.679 125.513 318.253 126.11 318.045 126.83L312.448 126.375C312.732 125.049 313.291 123.903 314.124 122.938C314.958 121.962 316.032 121.214 317.349 120.693C318.674 120.163 320.209 119.898 321.951 119.898C323.163 119.898 324.323 120.04 325.431 120.324C326.549 120.608 327.538 121.048 328.4 121.645C329.271 122.241 329.958 123.009 330.46 123.946C330.961 124.874 331.212 125.987 331.212 127.284V142H325.474V138.974H325.303C324.953 139.656 324.484 140.258 323.897 140.778C323.31 141.29 322.604 141.692 321.781 141.986C320.957 142.27 320.005 142.412 318.925 142.412ZM320.658 138.236C321.549 138.236 322.335 138.061 323.016 137.71C323.698 137.35 324.233 136.867 324.621 136.261C325.01 135.655 325.204 134.969 325.204 134.202V131.886C325.014 132.009 324.754 132.123 324.423 132.227C324.101 132.322 323.736 132.412 323.329 132.497C322.922 132.573 322.514 132.644 322.107 132.71C321.7 132.767 321.331 132.819 320.999 132.866C320.289 132.971 319.669 133.136 319.138 133.364C318.608 133.591 318.196 133.899 317.903 134.287C317.609 134.666 317.462 135.139 317.462 135.707C317.462 136.531 317.761 137.161 318.357 137.597C318.963 138.023 319.73 138.236 320.658 138.236ZM340.958 129.386V142H334.907V120.182H340.674V124.031H340.93C341.413 122.762 342.222 121.759 343.359 121.02C344.495 120.272 345.873 119.898 347.492 119.898C349.007 119.898 350.328 120.229 351.455 120.892C352.582 121.555 353.458 122.502 354.083 123.733C354.708 124.955 355.021 126.413 355.021 128.108V142H348.969V129.188C348.979 127.852 348.638 126.811 347.947 126.062C347.255 125.305 346.304 124.926 345.092 124.926C344.277 124.926 343.558 125.101 342.933 125.452C342.317 125.802 341.834 126.313 341.484 126.986C341.143 127.649 340.968 128.449 340.958 129.386ZM370.395 120.182V124.727H357.256V120.182H370.395ZM360.239 114.955H366.29V135.295C366.29 135.854 366.375 136.29 366.545 136.602C366.716 136.905 366.953 137.118 367.256 137.241C367.568 137.365 367.928 137.426 368.335 137.426C368.619 137.426 368.903 137.402 369.188 137.355C369.472 137.298 369.689 137.256 369.841 137.227L370.793 141.73C370.49 141.825 370.063 141.934 369.514 142.057C368.965 142.189 368.297 142.27 367.511 142.298C366.053 142.355 364.775 142.161 363.676 141.716C362.587 141.271 361.74 140.58 361.134 139.642C360.527 138.705 360.229 137.521 360.239 136.091V114.955ZM381.594 142V120.182H387.646V142H381.594ZM384.634 117.369C383.735 117.369 382.963 117.071 382.319 116.474C381.684 115.868 381.367 115.144 381.367 114.301C381.367 113.468 381.684 112.753 382.319 112.156C382.963 111.55 383.735 111.247 384.634 111.247C385.534 111.247 386.301 111.55 386.935 112.156C387.579 112.753 387.901 113.468 387.901 114.301C387.901 115.144 387.579 115.868 386.935 116.474C386.301 117.071 385.534 117.369 384.634 117.369ZM391.493 142V120.182H397.26V124.031H397.516C397.97 122.753 398.728 121.744 399.788 121.006C400.849 120.267 402.118 119.898 403.595 119.898C405.091 119.898 406.365 120.272 407.416 121.02C408.467 121.759 409.168 122.762 409.518 124.031H409.746C410.191 122.781 410.996 121.782 412.161 121.034C413.335 120.277 414.722 119.898 416.322 119.898C418.358 119.898 420.011 120.546 421.28 121.844C422.558 123.132 423.197 124.959 423.197 127.327V142H417.161V128.52C417.161 127.308 416.839 126.399 416.195 125.793C415.551 125.187 414.746 124.884 413.78 124.884C412.681 124.884 411.824 125.234 411.209 125.935C410.593 126.626 410.286 127.54 410.286 128.676V142H404.419V128.392C404.419 127.322 404.111 126.47 403.496 125.835C402.89 125.201 402.089 124.884 401.095 124.884C400.423 124.884 399.817 125.054 399.277 125.395C398.747 125.726 398.325 126.195 398.013 126.801C397.7 127.398 397.544 128.098 397.544 128.903V142H391.493ZM433.199 142.412C431.807 142.412 430.566 142.17 429.477 141.688C428.388 141.195 427.527 140.471 426.892 139.514C426.267 138.548 425.955 137.346 425.955 135.906C425.955 134.694 426.177 133.676 426.622 132.852C427.067 132.028 427.673 131.366 428.44 130.864C429.207 130.362 430.079 129.983 431.054 129.727C432.039 129.472 433.071 129.292 434.151 129.188C435.42 129.055 436.442 128.932 437.219 128.818C437.995 128.695 438.559 128.515 438.909 128.278C439.259 128.042 439.435 127.691 439.435 127.227V127.142C439.435 126.242 439.151 125.546 438.582 125.054C438.024 124.562 437.228 124.315 436.196 124.315C435.107 124.315 434.241 124.557 433.597 125.04C432.953 125.513 432.527 126.11 432.318 126.83L426.722 126.375C427.006 125.049 427.564 123.903 428.398 122.938C429.231 121.962 430.306 121.214 431.622 120.693C432.948 120.163 434.482 119.898 436.224 119.898C437.437 119.898 438.597 120.04 439.705 120.324C440.822 120.608 441.812 121.048 442.673 121.645C443.545 122.241 444.231 123.009 444.733 123.946C445.235 124.874 445.486 125.987 445.486 127.284V142H439.747V138.974H439.577C439.226 139.656 438.758 140.258 438.17 140.778C437.583 141.29 436.878 141.692 436.054 141.986C435.23 142.27 434.278 142.412 433.199 142.412ZM434.932 138.236C435.822 138.236 436.608 138.061 437.29 137.71C437.972 137.35 438.507 136.867 438.895 136.261C439.283 135.655 439.477 134.969 439.477 134.202V131.886C439.288 132.009 439.027 132.123 438.696 132.227C438.374 132.322 438.009 132.412 437.602 132.497C437.195 132.573 436.788 132.644 436.381 132.71C435.973 132.767 435.604 132.819 435.273 132.866C434.563 132.971 433.942 133.136 433.412 133.364C432.882 133.591 432.47 133.899 432.176 134.287C431.883 134.666 431.736 135.139 431.736 135.707C431.736 136.531 432.034 137.161 432.631 137.597C433.237 138.023 434.004 138.236 434.932 138.236ZM459.01 150.636C457.05 150.636 455.369 150.366 453.967 149.827C452.575 149.296 451.467 148.572 450.643 147.653C449.82 146.735 449.285 145.703 449.038 144.557L454.635 143.804C454.805 144.24 455.075 144.647 455.445 145.026C455.814 145.404 456.302 145.707 456.908 145.935C457.523 146.171 458.271 146.29 459.152 146.29C460.468 146.29 461.553 145.968 462.405 145.324C463.267 144.689 463.697 143.624 463.697 142.128V138.136H463.442C463.177 138.742 462.779 139.315 462.249 139.855C461.718 140.395 461.036 140.835 460.203 141.176C459.37 141.517 458.375 141.688 457.22 141.688C455.582 141.688 454.09 141.309 452.746 140.551C451.411 139.784 450.345 138.615 449.55 137.043C448.764 135.461 448.371 133.463 448.371 131.048C448.371 128.577 448.773 126.512 449.578 124.855C450.383 123.198 451.453 121.957 452.788 121.134C454.133 120.31 455.606 119.898 457.206 119.898C458.428 119.898 459.45 120.106 460.274 120.523C461.098 120.93 461.761 121.441 462.263 122.057C462.774 122.663 463.167 123.259 463.442 123.847H463.669V120.182H469.678V142.213C469.678 144.069 469.223 145.622 468.314 146.872C467.405 148.122 466.145 149.06 464.536 149.685C462.935 150.319 461.093 150.636 459.01 150.636ZM459.138 137.142C460.113 137.142 460.937 136.901 461.609 136.418C462.291 135.925 462.812 135.224 463.172 134.315C463.541 133.397 463.726 132.298 463.726 131.02C463.726 129.741 463.546 128.634 463.186 127.696C462.826 126.749 462.305 126.015 461.624 125.494C460.942 124.973 460.113 124.713 459.138 124.713C458.143 124.713 457.305 124.983 456.624 125.523C455.942 126.053 455.426 126.792 455.075 127.739C454.725 128.686 454.55 129.779 454.55 131.02C454.55 132.279 454.725 133.368 455.075 134.287C455.435 135.196 455.951 135.902 456.624 136.403C457.305 136.896 458.143 137.142 459.138 137.142ZM483.436 142.426C481.192 142.426 479.26 141.972 477.641 141.062C476.031 140.144 474.79 138.847 473.919 137.17C473.048 135.485 472.612 133.491 472.612 131.19C472.612 128.946 473.048 126.976 473.919 125.281C474.79 123.586 476.017 122.265 477.598 121.318C479.189 120.371 481.054 119.898 483.195 119.898C484.634 119.898 485.974 120.13 487.214 120.594C488.464 121.048 489.554 121.735 490.482 122.653C491.419 123.572 492.148 124.727 492.669 126.119C493.19 127.502 493.45 129.121 493.45 130.977V132.639H475.027V128.889H487.754C487.754 128.018 487.565 127.246 487.186 126.574C486.807 125.902 486.282 125.376 485.609 124.997C484.946 124.609 484.175 124.415 483.294 124.415C482.375 124.415 481.561 124.628 480.851 125.054C480.15 125.471 479.601 126.034 479.203 126.744C478.805 127.445 478.602 128.226 478.592 129.088V132.653C478.592 133.733 478.791 134.666 479.189 135.452C479.596 136.238 480.169 136.844 480.908 137.27C481.646 137.696 482.522 137.909 483.536 137.909C484.208 137.909 484.823 137.814 485.382 137.625C485.941 137.436 486.419 137.152 486.817 136.773C487.214 136.394 487.518 135.93 487.726 135.381L493.322 135.75C493.038 137.095 492.456 138.269 491.575 139.273C490.704 140.267 489.577 141.044 488.195 141.602C486.821 142.152 485.235 142.426 483.436 142.426ZM22.5515 190V168.182H28.6026V190H22.5515ZM25.5913 165.369C24.6916 165.369 23.9199 165.071 23.2759 164.474C22.6415 163.868 22.3242 163.144 22.3242 162.301C22.3242 161.468 22.6415 160.753 23.2759 160.156C23.9199 159.55 24.6916 159.247 25.5913 159.247C26.4909 159.247 27.2579 159.55 27.8924 160.156C28.5363 160.753 28.8583 161.468 28.8583 162.301C28.8583 163.144 28.5363 163.868 27.8924 164.474C27.2579 165.071 26.4909 165.369 25.5913 165.369ZM50.6033 174.403L45.0636 174.744C44.9689 174.271 44.7653 173.845 44.4528 173.466C44.1403 173.078 43.7283 172.77 43.217 172.543C42.7151 172.306 42.1138 172.188 41.413 172.188C40.4755 172.188 39.6848 172.386 39.0408 172.784C38.3969 173.172 38.0749 173.693 38.0749 174.347C38.0749 174.867 38.2833 175.308 38.6999 175.668C39.1166 176.027 39.8316 176.316 40.8448 176.534L44.7937 177.33C46.9149 177.765 48.4963 178.466 49.538 179.432C50.5797 180.398 51.1005 181.667 51.1005 183.239C51.1005 184.669 50.6791 185.923 49.8363 187.003C49.003 188.082 47.8571 188.925 46.3988 189.531C44.9499 190.128 43.2785 190.426 41.3846 190.426C38.4963 190.426 36.1952 189.825 34.4812 188.622C32.7766 187.41 31.7776 185.762 31.484 183.679L37.4357 183.366C37.6156 184.247 38.0513 184.92 38.7425 185.384C39.4338 185.838 40.3192 186.065 41.3988 186.065C42.4594 186.065 43.3117 185.862 43.9556 185.455C44.609 185.038 44.9405 184.503 44.9499 183.849C44.9405 183.3 44.7085 182.85 44.2539 182.5C43.7994 182.14 43.0986 181.866 42.1516 181.676L38.3732 180.923C36.2425 180.497 34.6564 179.759 33.6147 178.707C32.5825 177.656 32.0664 176.316 32.0664 174.688C32.0664 173.286 32.4452 172.079 33.2028 171.065C33.9698 170.052 35.0446 169.271 36.4272 168.722C37.8192 168.172 39.448 167.898 41.3136 167.898C44.0692 167.898 46.2378 168.48 47.8192 169.645C49.4102 170.81 50.3382 172.396 50.6033 174.403ZM68.2198 177.386V190H62.1687V168.182H67.9357V172.031H68.1914C68.6744 170.762 69.484 169.759 70.6204 169.02C71.7567 168.272 73.1346 167.898 74.7539 167.898C76.2691 167.898 77.5901 168.229 78.717 168.892C79.8439 169.555 80.7198 170.502 81.3448 171.733C81.9698 172.955 82.2823 174.413 82.2823 176.108V190H76.2312V177.188C76.2406 175.852 75.8997 174.811 75.2085 174.062C74.5172 173.305 73.5655 172.926 72.3533 172.926C71.5389 172.926 70.8192 173.101 70.1942 173.452C69.5787 173.802 69.0958 174.313 68.7454 174.986C68.4045 175.649 68.2293 176.449 68.2198 177.386ZM95.9947 190.426C93.7504 190.426 91.8185 189.972 90.1992 189.062C88.5894 188.144 87.3488 186.847 86.4776 185.17C85.6064 183.485 85.1708 181.491 85.1708 179.19C85.1708 176.946 85.6064 174.976 86.4776 173.281C87.3488 171.586 88.5752 170.265 90.1566 169.318C91.7475 168.371 93.613 167.898 95.7532 167.898C97.1926 167.898 98.5326 168.13 99.7731 168.594C101.023 169.048 102.112 169.735 103.04 170.653C103.978 171.572 104.707 172.727 105.228 174.119C105.748 175.502 106.009 177.121 106.009 178.977V180.639H87.5856V176.889H100.313C100.313 176.018 100.123 175.246 99.7447 174.574C99.3659 173.902 98.8403 173.376 98.168 172.997C97.5051 172.609 96.7333 172.415 95.8526 172.415C94.9341 172.415 94.1197 172.628 93.4094 173.054C92.7087 173.471 92.1594 174.034 91.7617 174.744C91.364 175.445 91.1604 176.226 91.1509 177.088V180.653C91.1509 181.733 91.3498 182.666 91.7475 183.452C92.1547 184.238 92.7276 184.844 93.4663 185.27C94.2049 185.696 95.0808 185.909 96.0941 185.909C96.7665 185.909 97.382 185.814 97.9407 185.625C98.4994 185.436 98.9776 185.152 99.3754 184.773C99.7731 184.394 100.076 183.93 100.284 183.381L105.881 183.75C105.597 185.095 105.015 186.269 104.134 187.273C103.263 188.267 102.136 189.044 100.753 189.602C99.3801 190.152 97.7939 190.426 95.9947 190.426ZM128.713 168.182L121.085 190H114.267L106.639 168.182H113.031L117.562 183.793H117.789L122.306 168.182H128.713ZM140.049 190.426C137.805 190.426 135.873 189.972 134.254 189.062C132.644 188.144 131.404 186.847 130.532 185.17C129.661 183.485 129.225 181.491 129.225 179.19C129.225 176.946 129.661 174.976 130.532 173.281C131.404 171.586 132.63 170.265 134.211 169.318C135.802 168.371 137.668 167.898 139.808 167.898C141.247 167.898 142.587 168.13 143.828 168.594C145.078 169.048 146.167 169.735 147.095 170.653C148.032 171.572 148.761 172.727 149.282 174.119C149.803 175.502 150.064 177.121 150.064 178.977V180.639H131.64V176.889H144.368C144.368 176.018 144.178 175.246 143.799 174.574C143.421 173.902 142.895 173.376 142.223 172.997C141.56 172.609 140.788 172.415 139.907 172.415C138.989 172.415 138.174 172.628 137.464 173.054C136.763 173.471 136.214 174.034 135.816 174.744C135.419 175.445 135.215 176.226 135.206 177.088V180.653C135.206 181.733 135.404 182.666 135.802 183.452C136.209 184.238 136.782 184.844 137.521 185.27C138.26 185.696 139.136 185.909 140.149 185.909C140.821 185.909 141.437 185.814 141.995 185.625C142.554 185.436 143.032 185.152 143.43 184.773C143.828 184.394 144.131 183.93 144.339 183.381L149.936 183.75C149.652 185.095 149.069 186.269 148.189 187.273C147.317 188.267 146.19 189.044 144.808 189.602C143.435 190.152 141.849 190.426 140.049 190.426ZM153.012 190V168.182H158.879V171.989H159.106C159.504 170.634 160.172 169.612 161.109 168.92C162.047 168.22 163.126 167.869 164.348 167.869C164.651 167.869 164.977 167.888 165.328 167.926C165.678 167.964 165.986 168.016 166.251 168.082V173.452C165.967 173.366 165.574 173.291 165.072 173.224C164.57 173.158 164.111 173.125 163.694 173.125C162.804 173.125 162.009 173.319 161.308 173.707C160.617 174.086 160.067 174.616 159.66 175.298C159.262 175.98 159.064 176.766 159.064 177.656V190H153.012ZM184.677 190.355C183.02 190.355 181.519 189.929 180.174 189.077C178.839 188.215 177.779 186.951 176.993 185.284C176.216 183.608 175.828 181.553 175.828 179.119C175.828 176.619 176.23 174.541 177.035 172.884C177.84 171.217 178.91 169.972 180.245 169.148C181.59 168.314 183.063 167.898 184.663 167.898C185.885 167.898 186.903 168.106 187.717 168.523C188.541 168.93 189.204 169.441 189.706 170.057C190.217 170.663 190.605 171.259 190.87 171.847H191.055V160.909H197.092V190H191.126V186.506H190.87C190.586 187.112 190.184 187.713 189.663 188.31C189.152 188.897 188.484 189.384 187.66 189.773C186.846 190.161 185.851 190.355 184.677 190.355ZM186.595 185.54C187.57 185.54 188.394 185.275 189.066 184.744C189.748 184.205 190.269 183.452 190.629 182.486C190.998 181.52 191.183 180.388 191.183 179.091C191.183 177.794 191.003 176.667 190.643 175.71C190.283 174.754 189.762 174.015 189.081 173.494C188.399 172.973 187.57 172.713 186.595 172.713C185.6 172.713 184.762 172.983 184.081 173.523C183.399 174.062 182.883 174.811 182.532 175.767C182.182 176.723 182.007 177.831 182.007 179.091C182.007 180.36 182.182 181.482 182.532 182.457C182.892 183.423 183.408 184.181 184.081 184.73C184.762 185.27 185.6 185.54 186.595 185.54ZM201.067 190V168.182H207.118V190H201.067ZM204.107 165.369C203.207 165.369 202.435 165.071 201.792 164.474C201.157 163.868 200.84 163.144 200.84 162.301C200.84 161.468 201.157 160.753 201.792 160.156C202.435 159.55 203.207 159.247 204.107 159.247C205.007 159.247 205.774 159.55 206.408 160.156C207.052 160.753 207.374 161.468 207.374 162.301C207.374 163.144 207.052 163.868 206.408 164.474C205.774 165.071 205.007 165.369 204.107 165.369ZM229.119 174.403L223.579 174.744C223.484 174.271 223.281 173.845 222.968 173.466C222.656 173.078 222.244 172.77 221.733 172.543C221.231 172.306 220.629 172.188 219.929 172.188C218.991 172.188 218.2 172.386 217.556 172.784C216.913 173.172 216.591 173.693 216.591 174.347C216.591 174.867 216.799 175.308 217.216 175.668C217.632 176.027 218.347 176.316 219.36 176.534L223.309 177.33C225.431 177.765 227.012 178.466 228.054 179.432C229.095 180.398 229.616 181.667 229.616 183.239C229.616 184.669 229.195 185.923 228.352 187.003C227.519 188.082 226.373 188.925 224.914 189.531C223.466 190.128 221.794 190.426 219.9 190.426C217.012 190.426 214.711 189.825 212.997 188.622C211.292 187.41 210.293 185.762 210 183.679L215.951 183.366C216.131 184.247 216.567 184.92 217.258 185.384C217.949 185.838 218.835 186.065 219.914 186.065C220.975 186.065 221.827 185.862 222.471 185.455C223.125 185.038 223.456 184.503 223.466 183.849C223.456 183.3 223.224 182.85 222.77 182.5C222.315 182.14 221.614 181.866 220.667 181.676L216.889 180.923C214.758 180.497 213.172 179.759 212.13 178.707C211.098 177.656 210.582 176.316 210.582 174.688C210.582 173.286 210.961 172.079 211.718 171.065C212.485 170.052 213.56 169.271 214.943 168.722C216.335 168.172 217.964 167.898 219.829 167.898C222.585 167.898 224.753 168.48 226.335 169.645C227.926 170.81 228.854 172.396 229.119 174.403ZM244.032 168.182V172.727H230.892V168.182H244.032ZM233.875 162.955H239.926V183.295C239.926 183.854 240.012 184.29 240.182 184.602C240.353 184.905 240.589 185.118 240.892 185.241C241.205 185.365 241.565 185.426 241.972 185.426C242.256 185.426 242.54 185.402 242.824 185.355C243.108 185.298 243.326 185.256 243.478 185.227L244.429 189.73C244.126 189.825 243.7 189.934 243.151 190.057C242.602 190.189 241.934 190.27 241.148 190.298C239.69 190.355 238.411 190.161 237.313 189.716C236.224 189.271 235.376 188.58 234.77 187.642C234.164 186.705 233.866 185.521 233.875 184.091V162.955ZM256.597 190.426C254.391 190.426 252.482 189.957 250.873 189.02C249.272 188.073 248.036 186.757 247.165 185.071C246.294 183.376 245.858 181.411 245.858 179.176C245.858 176.922 246.294 174.953 247.165 173.267C248.036 171.572 249.272 170.256 250.873 169.318C252.482 168.371 254.391 167.898 256.597 167.898C258.803 167.898 260.707 168.371 262.307 169.318C263.917 170.256 265.158 171.572 266.029 173.267C266.9 174.953 267.336 176.922 267.336 179.176C267.336 181.411 266.9 183.376 266.029 185.071C265.158 186.757 263.917 188.073 262.307 189.02C260.707 189.957 258.803 190.426 256.597 190.426ZM256.625 185.739C257.629 185.739 258.467 185.455 259.14 184.886C259.812 184.309 260.319 183.523 260.659 182.528C261.01 181.534 261.185 180.402 261.185 179.134C261.185 177.865 261.01 176.733 260.659 175.739C260.319 174.744 259.812 173.958 259.14 173.381C258.467 172.803 257.629 172.514 256.625 172.514C255.612 172.514 254.76 172.803 254.069 173.381C253.387 173.958 252.871 174.744 252.52 175.739C252.179 176.733 252.009 177.865 252.009 179.134C252.009 180.402 252.179 181.534 252.52 182.528C252.871 183.523 253.387 184.309 254.069 184.886C254.76 185.455 255.612 185.739 256.625 185.739ZM270.27 190V168.182H276.137V171.989H276.364C276.762 170.634 277.429 169.612 278.367 168.92C279.304 168.22 280.384 167.869 281.605 167.869C281.908 167.869 282.235 167.888 282.586 167.926C282.936 167.964 283.244 168.016 283.509 168.082V173.452C283.225 173.366 282.832 173.291 282.33 173.224C281.828 173.158 281.369 173.125 280.952 173.125C280.062 173.125 279.266 173.319 278.566 173.707C277.874 174.086 277.325 174.616 276.918 175.298C276.52 175.98 276.321 176.766 276.321 177.656V190H270.27ZM298.336 168.182V172.727H285.197V168.182H298.336ZM288.18 162.955H294.231V183.295C294.231 183.854 294.316 184.29 294.487 184.602C294.657 184.905 294.894 185.118 295.197 185.241C295.51 185.365 295.869 185.426 296.277 185.426C296.561 185.426 296.845 185.402 297.129 185.355C297.413 185.298 297.631 185.256 297.782 185.227L298.734 189.73C298.431 189.825 298.005 189.934 297.456 190.057C296.906 190.189 296.239 190.27 295.453 190.298C293.994 190.355 292.716 190.161 291.618 189.716C290.529 189.271 289.681 188.58 289.075 187.642C288.469 186.705 288.171 185.521 288.18 184.091V162.955ZM310.987 190.426C308.743 190.426 306.811 189.972 305.191 189.062C303.582 188.144 302.341 186.847 301.47 185.17C300.599 183.485 300.163 181.491 300.163 179.19C300.163 176.946 300.599 174.976 301.47 173.281C302.341 171.586 303.567 170.265 305.149 169.318C306.74 168.371 308.605 167.898 310.745 167.898C312.185 167.898 313.525 168.13 314.765 168.594C316.015 169.048 317.104 169.735 318.032 170.653C318.97 171.572 319.699 172.727 320.22 174.119C320.741 175.502 321.001 177.121 321.001 178.977V180.639H302.578V176.889H315.305C315.305 176.018 315.116 175.246 314.737 174.574C314.358 173.902 313.833 173.376 313.16 172.997C312.497 172.609 311.725 172.415 310.845 172.415C309.926 172.415 309.112 172.628 308.402 173.054C307.701 173.471 307.152 174.034 306.754 174.744C306.356 175.445 306.153 176.226 306.143 177.088V180.653C306.143 181.733 306.342 182.666 306.74 183.452C307.147 184.238 307.72 184.844 308.458 185.27C309.197 185.696 310.073 185.909 311.086 185.909C311.759 185.909 312.374 185.814 312.933 185.625C313.492 185.436 313.97 185.152 314.368 184.773C314.765 184.394 315.068 183.93 315.277 183.381L320.873 183.75C320.589 185.095 320.007 186.269 319.126 187.273C318.255 188.267 317.128 189.044 315.745 189.602C314.372 190.152 312.786 190.426 310.987 190.426ZM331.99 190.355C330.333 190.355 328.832 189.929 327.487 189.077C326.152 188.215 325.091 186.951 324.305 185.284C323.529 183.608 323.14 181.553 323.14 179.119C323.14 176.619 323.543 174.541 324.348 172.884C325.153 171.217 326.223 169.972 327.558 169.148C328.903 168.314 330.375 167.898 331.975 167.898C333.197 167.898 334.215 168.106 335.029 168.523C335.853 168.93 336.516 169.441 337.018 170.057C337.529 170.663 337.918 171.259 338.183 171.847H338.368V160.909H344.404V190H338.439V186.506H338.183C337.899 187.112 337.496 187.713 336.975 188.31C336.464 188.897 335.797 189.384 334.973 189.773C334.158 190.161 333.164 190.355 331.99 190.355ZM333.907 185.54C334.883 185.54 335.707 185.275 336.379 184.744C337.061 184.205 337.582 183.452 337.941 182.486C338.311 181.52 338.495 180.388 338.495 179.091C338.495 177.794 338.315 176.667 337.956 175.71C337.596 174.754 337.075 174.015 336.393 173.494C335.711 172.973 334.883 172.713 333.907 172.713C332.913 172.713 332.075 172.983 331.393 173.523C330.711 174.062 330.195 174.811 329.845 175.767C329.494 176.723 329.319 177.831 329.319 179.091C329.319 180.36 329.494 181.482 329.845 182.457C330.205 183.423 330.721 184.181 331.393 184.73C332.075 185.27 332.913 185.54 333.907 185.54ZM366.495 190.426C364.289 190.426 362.381 189.957 360.771 189.02C359.171 188.073 357.935 186.757 357.064 185.071C356.192 183.376 355.757 181.411 355.757 179.176C355.757 176.922 356.192 174.953 357.064 173.267C357.935 171.572 359.171 170.256 360.771 169.318C362.381 168.371 364.289 167.898 366.495 167.898C368.702 167.898 370.605 168.371 372.206 169.318C373.815 170.256 375.056 171.572 375.927 173.267C376.798 174.953 377.234 176.922 377.234 179.176C377.234 181.411 376.798 183.376 375.927 185.071C375.056 186.757 373.815 188.073 372.206 189.02C370.605 189.957 368.702 190.426 366.495 190.426ZM366.524 185.739C367.528 185.739 368.366 185.455 369.038 184.886C369.71 184.309 370.217 183.523 370.558 182.528C370.908 181.534 371.083 180.402 371.083 179.134C371.083 177.865 370.908 176.733 370.558 175.739C370.217 174.744 369.71 173.958 369.038 173.381C368.366 172.803 367.528 172.514 366.524 172.514C365.511 172.514 364.658 172.803 363.967 173.381C363.285 173.958 362.769 174.744 362.419 175.739C362.078 176.733 361.907 177.865 361.907 179.134C361.907 180.402 362.078 181.534 362.419 182.528C362.769 183.523 363.285 184.309 363.967 184.886C364.658 185.455 365.511 185.739 366.524 185.739ZM380.169 190V168.182H386.035V171.989H386.262C386.66 170.634 387.328 169.612 388.265 168.92C389.203 168.22 390.282 167.869 391.504 167.869C391.807 167.869 392.134 167.888 392.484 167.926C392.834 167.964 393.142 168.016 393.407 168.082V173.452C393.123 173.366 392.73 173.291 392.228 173.224C391.726 173.158 391.267 173.125 390.85 173.125C389.96 173.125 389.165 173.319 388.464 173.707C387.773 174.086 387.224 174.616 386.816 175.298C386.419 175.98 386.22 176.766 386.22 177.656V190H380.169ZM413.652 190.426C411.417 190.426 409.494 189.953 407.885 189.006C406.284 188.049 405.053 186.723 404.191 185.028C403.339 183.333 402.913 181.383 402.913 179.176C402.913 176.941 403.344 174.981 404.206 173.295C405.077 171.6 406.313 170.279 407.913 169.332C409.513 168.376 411.417 167.898 413.623 167.898C415.527 167.898 417.193 168.243 418.623 168.935C420.053 169.626 421.185 170.597 422.018 171.847C422.851 173.097 423.311 174.564 423.396 176.25H417.686C417.525 175.161 417.099 174.285 416.407 173.622C415.725 172.95 414.831 172.614 413.723 172.614C412.785 172.614 411.966 172.869 411.265 173.381C410.574 173.883 410.034 174.616 409.646 175.582C409.258 176.548 409.064 177.718 409.064 179.091C409.064 180.483 409.253 181.667 409.632 182.642C410.02 183.617 410.565 184.361 411.265 184.872C411.966 185.384 412.785 185.639 413.723 185.639C414.414 185.639 415.034 185.497 415.583 185.213C416.142 184.929 416.601 184.517 416.961 183.977C417.331 183.428 417.572 182.77 417.686 182.003H423.396C423.301 183.67 422.847 185.137 422.032 186.406C421.227 187.666 420.115 188.651 418.694 189.361C417.274 190.071 415.593 190.426 413.652 190.426ZM426.27 190V168.182H432.137V171.989H432.364C432.762 170.634 433.429 169.612 434.367 168.92C435.304 168.22 436.384 167.869 437.605 167.869C437.908 167.869 438.235 167.888 438.586 167.926C438.936 167.964 439.244 168.016 439.509 168.082V173.452C439.225 173.366 438.832 173.291 438.33 173.224C437.828 173.158 437.369 173.125 436.952 173.125C436.062 173.125 435.266 173.319 434.566 173.707C433.874 174.086 433.325 174.616 432.918 175.298C432.52 175.98 432.321 176.766 432.321 177.656V190H426.27ZM450.48 190.426C448.273 190.426 446.365 189.957 444.755 189.02C443.155 188.073 441.919 186.757 441.048 185.071C440.177 183.376 439.741 181.411 439.741 179.176C439.741 176.922 440.177 174.953 441.048 173.267C441.919 171.572 443.155 170.256 444.755 169.318C446.365 168.371 448.273 167.898 450.48 167.898C452.686 167.898 454.59 168.371 456.19 169.318C457.8 170.256 459.04 171.572 459.912 173.267C460.783 174.953 461.218 176.922 461.218 179.176C461.218 181.411 460.783 183.376 459.912 185.071C459.04 186.757 457.8 188.073 456.19 189.02C454.59 189.957 452.686 190.426 450.48 190.426ZM450.508 185.739C451.512 185.739 452.35 185.455 453.022 184.886C453.695 184.309 454.201 183.523 454.542 182.528C454.893 181.534 455.068 180.402 455.068 179.134C455.068 177.865 454.893 176.733 454.542 175.739C454.201 174.744 453.695 173.958 453.022 173.381C452.35 172.803 451.512 172.514 450.508 172.514C449.495 172.514 448.643 172.803 447.951 173.381C447.27 173.958 446.753 174.744 446.403 175.739C446.062 176.733 445.892 177.865 445.892 179.134C445.892 180.402 446.062 181.534 446.403 182.528C446.753 183.523 447.27 184.309 447.951 184.886C448.643 185.455 449.495 185.739 450.508 185.739ZM464.153 198.182V168.182H470.119V171.847H470.389C470.654 171.259 471.038 170.663 471.539 170.057C472.051 169.441 472.714 168.93 473.528 168.523C474.352 168.106 475.375 167.898 476.596 167.898C478.187 167.898 479.655 168.314 481 169.148C482.344 169.972 483.419 171.217 484.224 172.884C485.029 174.541 485.431 176.619 485.431 179.119C485.431 181.553 485.038 183.608 484.252 185.284C483.476 186.951 482.415 188.215 481.071 189.077C479.735 189.929 478.239 190.355 476.582 190.355C475.408 190.355 474.409 190.161 473.585 189.773C472.77 189.384 472.103 188.897 471.582 188.31C471.061 187.713 470.663 187.112 470.389 186.506H470.204V198.182H464.153ZM470.076 179.091C470.076 180.388 470.256 181.52 470.616 182.486C470.976 183.452 471.497 184.205 472.179 184.744C472.86 185.275 473.689 185.54 474.664 185.54C475.649 185.54 476.483 185.27 477.164 184.73C477.846 184.181 478.362 183.423 478.713 182.457C479.073 181.482 479.252 180.36 479.252 179.091C479.252 177.831 479.077 176.723 478.727 175.767C478.377 174.811 477.86 174.062 477.179 173.523C476.497 172.983 475.659 172.713 474.664 172.713C473.68 172.713 472.846 172.973 472.164 173.494C471.492 174.015 470.976 174.754 470.616 175.71C470.256 176.667 470.076 177.794 470.076 179.091ZM488.466 198.182V168.182H494.431V171.847H494.701C494.967 171.259 495.35 170.663 495.852 170.057C496.363 169.441 497.026 168.93 497.841 168.523C498.664 168.106 499.687 167.898 500.909 167.898C502.5 167.898 503.967 168.314 505.312 169.148C506.657 169.972 507.732 171.217 508.537 172.884C509.342 174.541 509.744 176.619 509.744 179.119C509.744 181.553 509.351 183.608 508.565 185.284C507.788 186.951 506.728 188.215 505.383 189.077C504.048 189.929 502.552 190.355 500.895 190.355C499.72 190.355 498.721 190.161 497.897 189.773C497.083 189.384 496.415 188.897 495.895 188.31C495.374 187.713 494.976 187.112 494.701 186.506H494.517V198.182H488.466ZM494.389 179.091C494.389 180.388 494.569 181.52 494.929 182.486C495.288 183.452 495.809 184.205 496.491 184.744C497.173 185.275 498.002 185.54 498.977 185.54C499.962 185.54 500.795 185.27 501.477 184.73C502.159 184.181 502.675 183.423 503.025 182.457C503.385 181.482 503.565 180.36 503.565 179.091C503.565 177.831 503.39 176.723 503.039 175.767C502.689 174.811 502.173 174.062 501.491 173.523C500.809 172.983 499.971 172.713 498.977 172.713C497.992 172.713 497.159 172.973 496.477 173.494C495.805 174.015 495.288 174.754 494.929 175.71C494.569 176.667 494.389 177.794 494.389 179.091ZM522.721 190.426C520.477 190.426 518.545 189.972 516.926 189.062C515.316 188.144 514.075 186.847 513.204 185.17C512.333 183.485 511.897 181.491 511.897 179.19C511.897 176.946 512.333 174.976 513.204 173.281C514.075 171.586 515.302 170.265 516.883 169.318C518.474 168.371 520.34 167.898 522.48 167.898C523.919 167.898 525.259 168.13 526.5 168.594C527.75 169.048 528.839 169.735 529.767 170.653C530.704 171.572 531.433 172.727 531.954 174.119C532.475 175.502 532.735 177.121 532.735 178.977V180.639H514.312V176.889H527.039C527.039 176.018 526.85 175.246 526.471 174.574C526.092 173.902 525.567 173.376 524.895 172.997C524.232 172.609 523.46 172.415 522.579 172.415C521.661 172.415 520.846 172.628 520.136 173.054C519.435 173.471 518.886 174.034 518.488 174.744C518.091 175.445 517.887 176.226 517.877 177.088V180.653C517.877 181.733 518.076 182.666 518.474 183.452C518.881 184.238 519.454 184.844 520.193 185.27C520.931 185.696 521.807 185.909 522.821 185.909C523.493 185.909 524.109 185.814 524.667 185.625C525.226 185.436 525.704 185.152 526.102 184.773C526.5 184.394 526.803 183.93 527.011 183.381L532.608 183.75C532.324 185.095 531.741 186.269 530.86 187.273C529.989 188.267 528.862 189.044 527.48 189.602C526.107 190.152 524.52 190.426 522.721 190.426ZM543.724 190.355C542.067 190.355 540.566 189.929 539.221 189.077C537.886 188.215 536.825 186.951 536.039 185.284C535.263 183.608 534.875 181.553 534.875 179.119C534.875 176.619 535.277 174.541 536.082 172.884C536.887 171.217 537.957 169.972 539.292 169.148C540.637 168.314 542.109 167.898 543.71 167.898C544.931 167.898 545.949 168.106 546.764 168.523C547.588 168.93 548.251 169.441 548.752 170.057C549.264 170.663 549.652 171.259 549.917 171.847H550.102V160.909H556.139V190H550.173V186.506H549.917C549.633 187.112 549.231 187.713 548.71 188.31C548.199 188.897 547.531 189.384 546.707 189.773C545.893 190.161 544.898 190.355 543.724 190.355ZM545.642 185.54C546.617 185.54 547.441 185.275 548.113 184.744C548.795 184.205 549.316 183.452 549.676 182.486C550.045 181.52 550.23 180.388 550.23 179.091C550.23 177.794 550.05 176.667 549.69 175.71C549.33 174.754 548.809 174.015 548.127 173.494C547.446 172.973 546.617 172.713 545.642 172.713C544.647 172.713 543.809 172.983 543.127 173.523C542.446 174.062 541.93 174.811 541.579 175.767C541.229 176.723 541.054 177.831 541.054 179.091C541.054 180.36 541.229 181.482 541.579 182.457C541.939 183.423 542.455 184.181 543.127 184.73C543.809 185.27 544.647 185.54 545.642 185.54ZM563.793 190.369C562.855 190.369 562.051 190.038 561.378 189.375C560.715 188.703 560.384 187.898 560.384 186.96C560.384 186.032 560.715 185.237 561.378 184.574C562.051 183.911 562.855 183.58 563.793 183.58C564.702 183.58 565.498 183.911 566.179 184.574C566.861 185.237 567.202 186.032 567.202 186.96C567.202 187.585 567.041 188.158 566.719 188.679C566.407 189.19 565.995 189.602 565.483 189.915C564.972 190.218 564.408 190.369 563.793 190.369ZM32.1353 256.909V286H28.6126V256.909H32.1353ZM47.2326 264.182V267.023H35.9258V264.182H47.2326ZM39.2212 258.955H42.5735V279.75C42.5735 280.697 42.7108 281.407 42.9854 281.881C43.2695 282.345 43.6294 282.657 44.065 282.818C44.5101 282.97 44.9788 283.045 45.4712 283.045C45.8406 283.045 46.1436 283.027 46.3803 282.989C46.6171 282.941 46.8065 282.903 46.9485 282.875L47.6303 285.886C47.4031 285.972 47.0858 286.057 46.6786 286.142C46.2714 286.237 45.7553 286.284 45.1303 286.284C44.1834 286.284 43.2553 286.08 42.3462 285.673C41.4466 285.266 40.6985 284.646 40.1019 283.812C39.5148 282.979 39.2212 281.928 39.2212 280.659V258.955ZM67.9457 286.511C66.5631 286.511 65.3084 286.251 64.1815 285.73C63.0546 285.2 62.1597 284.438 61.4968 283.443C60.8339 282.439 60.5025 281.227 60.5025 279.807C60.5025 278.557 60.7487 277.544 61.2411 276.767C61.7335 275.981 62.3917 275.366 63.2156 274.92C64.0394 274.475 64.9485 274.144 65.9428 273.926C66.9466 273.699 67.9551 273.519 68.9684 273.386C70.2942 273.216 71.369 273.088 72.1928 273.003C73.0262 272.908 73.6322 272.752 74.011 272.534C74.3993 272.316 74.5934 271.937 74.5934 271.398V271.284C74.5934 269.883 74.2099 268.794 73.4428 268.017C72.6853 267.241 71.5347 266.852 69.9911 266.852C68.3907 266.852 67.136 267.203 66.2269 267.903C65.3178 268.604 64.6786 269.352 64.3093 270.148L61.1275 269.011C61.6957 267.686 62.4532 266.653 63.4002 265.915C64.3567 265.167 65.3983 264.646 66.5252 264.352C67.6616 264.049 68.779 263.898 69.8775 263.898C70.5782 263.898 71.3832 263.983 72.2923 264.153C73.2108 264.314 74.0962 264.651 74.9485 265.162C75.8103 265.673 76.5252 266.445 77.0934 267.477C77.6616 268.509 77.9457 269.892 77.9457 271.625V286H74.5934V283.045H74.4229C74.1957 283.519 73.8169 284.026 73.2866 284.565C72.7563 285.105 72.0508 285.564 71.1701 285.943C70.2894 286.322 69.2146 286.511 67.9457 286.511ZM68.457 283.5C69.7828 283.5 70.9002 283.24 71.8093 282.719C72.7279 282.198 73.4192 281.526 73.8832 280.702C74.3567 279.878 74.5934 279.011 74.5934 278.102V275.034C74.4513 275.205 74.1388 275.361 73.6559 275.503C73.1824 275.635 72.6332 275.754 72.0082 275.858C71.3926 275.953 70.7913 276.038 70.2042 276.114C69.6265 276.18 69.1578 276.237 68.7979 276.284C67.9267 276.398 67.1123 276.582 66.3548 276.838C65.6067 277.084 65.0006 277.458 64.5366 277.96C64.082 278.453 63.8548 279.125 63.8548 279.977C63.8548 281.142 64.2856 282.023 65.1474 282.619C66.0186 283.206 67.1218 283.5 68.457 283.5ZM86.4165 256.909V286H83.0643V256.909H86.4165ZM96.4996 286L89.8519 264.182H93.3746L98.0906 280.886H98.3178L102.977 264.182H106.556L111.159 280.83H111.386L116.102 264.182H119.625L112.977 286H109.681L104.909 269.239H104.568L99.7951 286H96.4996ZM129.477 286.511C128.094 286.511 126.84 286.251 125.713 285.73C124.586 285.2 123.691 284.438 123.028 283.443C122.365 282.439 122.034 281.227 122.034 279.807C122.034 278.557 122.28 277.544 122.772 276.767C123.265 275.981 123.923 275.366 124.747 274.92C125.571 274.475 126.48 274.144 127.474 273.926C128.478 273.699 129.486 273.519 130.5 273.386C131.825 273.216 132.9 273.088 133.724 273.003C134.557 272.908 135.163 272.752 135.542 272.534C135.931 272.316 136.125 271.937 136.125 271.398V271.284C136.125 269.883 135.741 268.794 134.974 268.017C134.217 267.241 133.066 266.852 131.522 266.852C129.922 266.852 128.667 267.203 127.758 267.903C126.849 268.604 126.21 269.352 125.841 270.148L122.659 269.011C123.227 267.686 123.984 266.653 124.931 265.915C125.888 265.167 126.93 264.646 128.056 264.352C129.193 264.049 130.31 263.898 131.409 263.898C132.109 263.898 132.914 263.983 133.824 264.153C134.742 264.314 135.627 264.651 136.48 265.162C137.342 265.673 138.056 266.445 138.625 267.477C139.193 268.509 139.477 269.892 139.477 271.625V286H136.125V283.045H135.954C135.727 283.519 135.348 284.026 134.818 284.565C134.288 285.105 133.582 285.564 132.701 285.943C131.821 286.322 130.746 286.511 129.477 286.511ZM129.988 283.5C131.314 283.5 132.431 283.24 133.341 282.719C134.259 282.198 134.95 281.526 135.414 280.702C135.888 279.878 136.125 279.011 136.125 278.102V275.034C135.983 275.205 135.67 275.361 135.187 275.503C134.714 275.635 134.164 275.754 133.539 275.858C132.924 275.953 132.323 276.038 131.735 276.114C131.158 276.18 130.689 276.237 130.329 276.284C129.458 276.398 128.644 276.582 127.886 276.838C127.138 277.084 126.532 277.458 126.068 277.96C125.613 278.453 125.386 279.125 125.386 279.977C125.386 281.142 125.817 282.023 126.679 282.619C127.55 283.206 128.653 283.5 129.988 283.5ZM145.973 294.182C145.405 294.182 144.899 294.134 144.453 294.04C144.008 293.955 143.701 293.869 143.53 293.784L144.382 290.83C145.197 291.038 145.917 291.114 146.542 291.057C147.167 291 147.721 290.721 148.203 290.219C148.696 289.726 149.146 288.926 149.553 287.818L150.178 286.114L142.11 264.182H145.746L151.769 281.568H151.996L158.019 264.182H161.655L152.394 289.182C151.977 290.309 151.461 291.241 150.846 291.98C150.23 292.728 149.515 293.282 148.701 293.642C147.896 294.002 146.987 294.182 145.973 294.182ZM180.534 269.068L177.523 269.92C177.334 269.419 177.054 268.931 176.685 268.457C176.325 267.974 175.833 267.577 175.208 267.264C174.583 266.952 173.783 266.795 172.807 266.795C171.472 266.795 170.359 267.103 169.469 267.719C168.588 268.325 168.148 269.097 168.148 270.034C168.148 270.867 168.451 271.526 169.057 272.009C169.663 272.491 170.61 272.894 171.898 273.216L175.137 274.011C177.087 274.485 178.541 275.209 179.498 276.185C180.454 277.151 180.932 278.396 180.932 279.92C180.932 281.17 180.572 282.288 179.853 283.273C179.142 284.258 178.148 285.034 176.87 285.602C175.591 286.17 174.105 286.455 172.409 286.455C170.184 286.455 168.342 285.972 166.884 285.006C165.426 284.04 164.502 282.629 164.114 280.773L167.296 279.977C167.599 281.152 168.172 282.032 169.015 282.619C169.867 283.206 170.98 283.5 172.353 283.5C173.915 283.5 175.156 283.169 176.074 282.506C177.002 281.833 177.466 281.028 177.466 280.091C177.466 279.333 177.201 278.699 176.671 278.188C176.141 277.667 175.326 277.278 174.228 277.023L170.591 276.17C168.593 275.697 167.125 274.963 166.188 273.969C165.26 272.965 164.796 271.71 164.796 270.205C164.796 268.973 165.141 267.884 165.833 266.938C166.533 265.991 167.485 265.247 168.688 264.707C169.9 264.168 171.273 263.898 172.807 263.898C174.966 263.898 176.661 264.371 177.892 265.318C179.133 266.265 180.014 267.515 180.534 269.068ZM210.683 269.068L207.672 269.92C207.482 269.419 207.203 268.931 206.833 268.457C206.474 267.974 205.981 267.577 205.356 267.264C204.731 266.952 203.931 266.795 202.956 266.795C201.62 266.795 200.508 267.103 199.618 267.719C198.737 268.325 198.297 269.097 198.297 270.034C198.297 270.867 198.6 271.526 199.206 272.009C199.812 272.491 200.759 272.894 202.047 273.216L205.285 274.011C207.236 274.485 208.69 275.209 209.646 276.185C210.602 277.151 211.081 278.396 211.081 279.92C211.081 281.17 210.721 282.288 210.001 283.273C209.291 284.258 208.297 285.034 207.018 285.602C205.74 286.17 204.253 286.455 202.558 286.455C200.333 286.455 198.491 285.972 197.032 285.006C195.574 284.04 194.651 282.629 194.262 280.773L197.444 279.977C197.747 281.152 198.32 282.032 199.163 282.619C200.015 283.206 201.128 283.5 202.501 283.5C204.064 283.5 205.304 283.169 206.223 282.506C207.151 281.833 207.615 281.028 207.615 280.091C207.615 279.333 207.35 278.699 206.819 278.188C206.289 277.667 205.475 277.278 204.376 277.023L200.74 276.17C198.742 275.697 197.274 274.963 196.336 273.969C195.408 272.965 194.944 271.71 194.944 270.205C194.944 268.973 195.29 267.884 195.981 266.938C196.682 265.991 197.634 265.247 198.836 264.707C200.048 264.168 201.422 263.898 202.956 263.898C205.115 263.898 206.81 264.371 208.041 265.318C209.281 266.265 210.162 267.515 210.683 269.068ZM223.99 286.455C221.945 286.455 220.184 285.972 218.706 285.006C217.229 284.04 216.093 282.709 215.297 281.014C214.502 279.319 214.104 277.383 214.104 275.205C214.104 272.989 214.511 271.033 215.326 269.338C216.15 267.634 217.295 266.303 218.763 265.347C220.24 264.381 221.964 263.898 223.934 263.898C225.468 263.898 226.85 264.182 228.081 264.75C229.312 265.318 230.321 266.114 231.107 267.136C231.893 268.159 232.381 269.352 232.57 270.716H229.218C228.962 269.722 228.394 268.841 227.513 268.074C226.642 267.297 225.468 266.909 223.99 266.909C222.684 266.909 221.538 267.25 220.553 267.932C219.578 268.604 218.815 269.556 218.266 270.787C217.726 272.009 217.456 273.443 217.456 275.091C217.456 276.777 217.721 278.244 218.252 279.494C218.792 280.744 219.549 281.715 220.525 282.406C221.509 283.098 222.665 283.443 223.99 283.443C224.862 283.443 225.652 283.292 226.363 282.989C227.073 282.686 227.674 282.25 228.167 281.682C228.659 281.114 229.009 280.432 229.218 279.636H232.57C232.381 280.924 231.912 282.084 231.164 283.116C230.425 284.139 229.445 284.954 228.223 285.56C227.011 286.156 225.6 286.455 223.99 286.455ZM242.891 286.511C241.508 286.511 240.254 286.251 239.127 285.73C238 285.2 237.105 284.438 236.442 283.443C235.779 282.439 235.448 281.227 235.448 279.807C235.448 278.557 235.694 277.544 236.186 276.767C236.679 275.981 237.337 275.366 238.161 274.92C238.985 274.475 239.894 274.144 240.888 273.926C241.892 273.699 242.9 273.519 243.914 273.386C245.239 273.216 246.314 273.088 247.138 273.003C247.971 272.908 248.578 272.752 248.956 272.534C249.345 272.316 249.539 271.937 249.539 271.398V271.284C249.539 269.883 249.155 268.794 248.388 268.017C247.631 267.241 246.48 266.852 244.936 266.852C243.336 266.852 242.081 267.203 241.172 267.903C240.263 268.604 239.624 269.352 239.255 270.148L236.073 269.011C236.641 267.686 237.399 266.653 238.346 265.915C239.302 265.167 240.344 264.646 241.471 264.352C242.607 264.049 243.724 263.898 244.823 263.898C245.524 263.898 246.328 263.983 247.238 264.153C248.156 264.314 249.042 264.651 249.894 265.162C250.756 265.673 251.471 266.445 252.039 267.477C252.607 268.509 252.891 269.892 252.891 271.625V286H249.539V283.045H249.368C249.141 283.519 248.762 284.026 248.232 284.565C247.702 285.105 246.996 285.564 246.115 285.943C245.235 286.322 244.16 286.511 242.891 286.511ZM243.402 283.5C244.728 283.5 245.846 283.24 246.755 282.719C247.673 282.198 248.364 281.526 248.828 280.702C249.302 279.878 249.539 279.011 249.539 278.102V275.034C249.397 275.205 249.084 275.361 248.601 275.503C248.128 275.635 247.578 275.754 246.953 275.858C246.338 275.953 245.737 276.038 245.15 276.114C244.572 276.18 244.103 276.237 243.743 276.284C242.872 276.398 242.058 276.582 241.3 276.838C240.552 277.084 239.946 277.458 239.482 277.96C239.027 278.453 238.8 279.125 238.8 279.977C238.8 281.142 239.231 282.023 240.093 282.619C240.964 283.206 242.067 283.5 243.402 283.5ZM261.362 256.909V286H258.01V256.909H261.362ZM275.65 286.455C273.547 286.455 271.734 285.991 270.209 285.062C268.694 284.125 267.525 282.818 266.701 281.142C265.886 279.456 265.479 277.496 265.479 275.261C265.479 273.027 265.886 271.057 266.701 269.352C267.525 267.638 268.67 266.303 270.138 265.347C271.615 264.381 273.339 263.898 275.309 263.898C276.445 263.898 277.567 264.087 278.675 264.466C279.783 264.845 280.792 265.46 281.701 266.312C282.61 267.155 283.334 268.273 283.874 269.665C284.414 271.057 284.684 272.771 284.684 274.807V276.227H267.865V273.33H281.275C281.275 272.098 281.028 271 280.536 270.034C280.053 269.068 279.362 268.306 278.462 267.747C277.572 267.188 276.521 266.909 275.309 266.909C273.973 266.909 272.818 267.241 271.843 267.903C270.877 268.557 270.133 269.409 269.613 270.46C269.092 271.511 268.831 272.638 268.831 273.841V275.773C268.831 277.42 269.115 278.817 269.684 279.963C270.261 281.099 271.061 281.966 272.084 282.562C273.107 283.15 274.295 283.443 275.65 283.443C276.53 283.443 277.326 283.32 278.036 283.074C278.756 282.818 279.376 282.439 279.897 281.938C280.417 281.426 280.82 280.792 281.104 280.034L284.343 280.943C284.002 282.042 283.429 283.008 282.624 283.841C281.819 284.665 280.825 285.309 279.641 285.773C278.457 286.227 277.127 286.455 275.65 286.455ZM304.238 269.068L301.226 269.92C301.037 269.419 300.757 268.931 300.388 268.457C300.028 267.974 299.536 267.577 298.911 267.264C298.286 266.952 297.486 266.795 296.51 266.795C295.175 266.795 294.062 267.103 293.172 267.719C292.292 268.325 291.851 269.097 291.851 270.034C291.851 270.867 292.154 271.526 292.76 272.009C293.366 272.491 294.313 272.894 295.601 273.216L298.84 274.011C300.791 274.485 302.244 275.209 303.201 276.185C304.157 277.151 304.635 278.396 304.635 279.92C304.635 281.17 304.275 282.288 303.556 283.273C302.846 284.258 301.851 285.034 300.573 285.602C299.294 286.17 297.808 286.455 296.113 286.455C293.887 286.455 292.045 285.972 290.587 285.006C289.129 284.04 288.205 282.629 287.817 280.773L290.999 279.977C291.302 281.152 291.875 282.032 292.718 282.619C293.57 283.206 294.683 283.5 296.056 283.5C297.618 283.5 298.859 283.169 299.777 282.506C300.705 281.833 301.169 281.028 301.169 280.091C301.169 279.333 300.904 278.699 300.374 278.188C299.844 277.667 299.029 277.278 297.931 277.023L294.294 276.17C292.296 275.697 290.828 274.963 289.891 273.969C288.963 272.965 288.499 271.71 288.499 270.205C288.499 268.973 288.845 267.884 289.536 266.938C290.237 265.991 291.188 265.247 292.391 264.707C293.603 264.168 294.976 263.898 296.51 263.898C298.669 263.898 300.364 264.371 301.596 265.318C302.836 266.265 303.717 267.515 304.238 269.068ZM318.931 294.182V264.182H322.17V267.648H322.568C322.814 267.269 323.155 266.786 323.591 266.199C324.036 265.602 324.67 265.072 325.494 264.608C326.327 264.134 327.454 263.898 328.875 263.898C330.712 263.898 332.331 264.357 333.733 265.276C335.134 266.194 336.228 267.496 337.014 269.182C337.8 270.867 338.193 272.856 338.193 275.148C338.193 277.458 337.8 279.461 337.014 281.156C336.228 282.842 335.139 284.149 333.747 285.077C332.355 285.995 330.75 286.455 328.931 286.455C327.53 286.455 326.408 286.223 325.565 285.759C324.722 285.285 324.074 284.75 323.619 284.153C323.164 283.547 322.814 283.045 322.568 282.648H322.284V294.182H318.931ZM322.227 275.091C322.227 276.739 322.468 278.192 322.951 279.452C323.434 280.702 324.14 281.682 325.068 282.392C325.996 283.093 327.132 283.443 328.477 283.443C329.878 283.443 331.048 283.074 331.985 282.335C332.932 281.587 333.643 280.583 334.116 279.324C334.599 278.055 334.841 276.644 334.841 275.091C334.841 273.557 334.604 272.174 334.13 270.943C333.666 269.703 332.961 268.723 332.014 268.003C331.076 267.274 329.897 266.909 328.477 266.909C327.113 266.909 325.967 267.255 325.039 267.946C324.111 268.628 323.411 269.584 322.937 270.815C322.464 272.037 322.227 273.462 322.227 275.091ZM342.306 286V264.182H345.545V267.477H345.772C346.17 266.398 346.89 265.522 347.931 264.849C348.973 264.177 350.147 263.841 351.454 263.841C351.7 263.841 352.008 263.846 352.377 263.855C352.747 263.865 353.026 263.879 353.216 263.898V267.307C353.102 267.278 352.842 267.236 352.434 267.179C352.037 267.113 351.615 267.08 351.17 267.08C350.109 267.08 349.163 267.302 348.329 267.747C347.505 268.183 346.852 268.789 346.369 269.565C345.895 270.332 345.659 271.208 345.659 272.193V286H342.306ZM364.389 286.455C362.419 286.455 360.691 285.986 359.204 285.048C357.727 284.111 356.572 282.799 355.738 281.114C354.914 279.428 354.502 277.458 354.502 275.205C354.502 272.932 354.914 270.948 355.738 269.253C356.572 267.558 357.727 266.241 359.204 265.304C360.691 264.366 362.419 263.898 364.389 263.898C366.359 263.898 368.082 264.366 369.559 265.304C371.046 266.241 372.201 267.558 373.025 269.253C373.859 270.948 374.275 272.932 374.275 275.205C374.275 277.458 373.859 279.428 373.025 281.114C372.201 282.799 371.046 284.111 369.559 285.048C368.082 285.986 366.359 286.455 364.389 286.455ZM364.389 283.443C365.885 283.443 367.116 283.06 368.082 282.293C369.048 281.526 369.763 280.517 370.227 279.267C370.691 278.017 370.923 276.663 370.923 275.205C370.923 273.746 370.691 272.387 370.227 271.128C369.763 269.868 369.048 268.85 368.082 268.074C367.116 267.297 365.885 266.909 364.389 266.909C362.893 266.909 361.662 267.297 360.696 268.074C359.73 268.85 359.015 269.868 358.551 271.128C358.087 272.387 357.855 273.746 357.855 275.205C357.855 276.663 358.087 278.017 358.551 279.267C359.015 280.517 359.73 281.526 360.696 282.293C361.662 283.06 362.893 283.443 364.389 283.443ZM378.392 294.182V264.182H381.631V267.648H382.029C382.275 267.269 382.616 266.786 383.051 266.199C383.497 265.602 384.131 265.072 384.955 264.608C385.788 264.134 386.915 263.898 388.336 263.898C390.173 263.898 391.792 264.357 393.194 265.276C394.595 266.194 395.689 267.496 396.475 269.182C397.261 270.867 397.654 272.856 397.654 275.148C397.654 277.458 397.261 279.461 396.475 281.156C395.689 282.842 394.6 284.149 393.208 285.077C391.816 285.995 390.211 286.455 388.392 286.455C386.991 286.455 385.869 286.223 385.026 285.759C384.183 285.285 383.534 284.75 383.08 284.153C382.625 283.547 382.275 283.045 382.029 282.648H381.745V294.182H378.392ZM381.688 275.091C381.688 276.739 381.929 278.192 382.412 279.452C382.895 280.702 383.601 281.682 384.529 282.392C385.457 283.093 386.593 283.443 387.938 283.443C389.339 283.443 390.509 283.074 391.446 282.335C392.393 281.587 393.104 280.583 393.577 279.324C394.06 278.055 394.301 276.644 394.301 275.091C394.301 273.557 394.065 272.174 393.591 270.943C393.127 269.703 392.422 268.723 391.475 268.003C390.537 267.274 389.358 266.909 387.938 266.909C386.574 266.909 385.428 267.255 384.5 267.946C383.572 268.628 382.872 269.584 382.398 270.815C381.925 272.037 381.688 273.462 381.688 275.091ZM410.631 286.455C408.661 286.455 406.933 285.986 405.446 285.048C403.969 284.111 402.814 282.799 401.98 281.114C401.157 279.428 400.745 277.458 400.745 275.205C400.745 272.932 401.157 270.948 401.98 269.253C402.814 267.558 403.969 266.241 405.446 265.304C406.933 264.366 408.661 263.898 410.631 263.898C412.601 263.898 414.324 264.366 415.801 265.304C417.288 266.241 418.444 267.558 419.267 269.253C420.101 270.948 420.517 272.932 420.517 275.205C420.517 277.458 420.101 279.428 419.267 281.114C418.444 282.799 417.288 284.111 415.801 285.048C414.324 285.986 412.601 286.455 410.631 286.455ZM410.631 283.443C412.127 283.443 413.358 283.06 414.324 282.293C415.29 281.526 416.005 280.517 416.469 279.267C416.933 278.017 417.165 276.663 417.165 275.205C417.165 273.746 416.933 272.387 416.469 271.128C416.005 269.868 415.29 268.85 414.324 268.074C413.358 267.297 412.127 266.909 410.631 266.909C409.135 266.909 407.904 267.297 406.938 268.074C405.972 268.85 405.257 269.868 404.793 271.128C404.329 272.387 404.097 273.746 404.097 275.205C404.097 276.663 404.329 278.017 404.793 279.267C405.257 280.517 405.972 281.526 406.938 282.293C407.904 283.06 409.135 283.443 410.631 283.443ZM424.635 286V264.182H427.873V267.477H428.1C428.498 266.398 429.218 265.522 430.26 264.849C431.301 264.177 432.475 263.841 433.782 263.841C434.029 263.841 434.336 263.846 434.706 263.855C435.075 263.865 435.354 263.879 435.544 263.898V267.307C435.43 267.278 435.17 267.236 434.762 267.179C434.365 267.113 433.943 267.08 433.498 267.08C432.438 267.08 431.491 267.302 430.657 267.747C429.833 268.183 429.18 268.789 428.697 269.565C428.224 270.332 427.987 271.208 427.987 272.193V286H424.635ZM449.373 264.182V267.023H438.066V264.182H449.373ZM441.362 258.955H444.714V279.75C444.714 280.697 444.851 281.407 445.126 281.881C445.41 282.345 445.77 282.657 446.206 282.818C446.651 282.97 447.119 283.045 447.612 283.045C447.981 283.045 448.284 283.027 448.521 282.989C448.758 282.941 448.947 282.903 449.089 282.875L449.771 285.886C449.544 285.972 449.226 286.057 448.819 286.142C448.412 286.237 447.896 286.284 447.271 286.284C446.324 286.284 445.396 286.08 444.487 285.673C443.587 285.266 442.839 284.646 442.243 283.812C441.655 282.979 441.362 281.928 441.362 280.659V258.955ZM453.416 286V264.182H456.768V286H453.416ZM455.12 260.545C454.467 260.545 453.904 260.323 453.43 259.878C452.966 259.433 452.734 258.898 452.734 258.273C452.734 257.648 452.966 257.113 453.43 256.668C453.904 256.223 454.467 256 455.12 256C455.774 256 456.333 256.223 456.797 256.668C457.27 257.113 457.507 257.648 457.507 258.273C457.507 258.898 457.27 259.433 456.797 259.878C456.333 260.323 455.774 260.545 455.12 260.545ZM470.772 286.455C468.802 286.455 467.074 285.986 465.587 285.048C464.11 284.111 462.954 282.799 462.121 281.114C461.297 279.428 460.885 277.458 460.885 275.205C460.885 272.932 461.297 270.948 462.121 269.253C462.954 267.558 464.11 266.241 465.587 265.304C467.074 264.366 468.802 263.898 470.772 263.898C472.741 263.898 474.465 264.366 475.942 265.304C477.429 266.241 478.584 267.558 479.408 269.253C480.241 270.948 480.658 272.932 480.658 275.205C480.658 277.458 480.241 279.428 479.408 281.114C478.584 282.799 477.429 284.111 475.942 285.048C474.465 285.986 472.741 286.455 470.772 286.455ZM470.772 283.443C472.268 283.443 473.499 283.06 474.465 282.293C475.431 281.526 476.146 280.517 476.61 279.267C477.074 278.017 477.306 276.663 477.306 275.205C477.306 273.746 477.074 272.387 476.61 271.128C476.146 269.868 475.431 268.85 474.465 268.074C473.499 267.297 472.268 266.909 470.772 266.909C469.275 266.909 468.044 267.297 467.078 268.074C466.113 268.85 465.398 269.868 464.934 271.128C464.47 272.387 464.238 273.746 464.238 275.205C464.238 276.663 464.47 278.017 464.934 279.267C465.398 280.517 466.113 281.526 467.078 282.293C468.044 283.06 469.275 283.443 470.772 283.443ZM488.127 272.875V286H484.775V264.182H488.014V267.591H488.298C488.809 266.483 489.586 265.593 490.627 264.92C491.669 264.239 493.014 263.898 494.662 263.898C496.139 263.898 497.431 264.201 498.539 264.807C499.647 265.403 500.509 266.312 501.125 267.534C501.74 268.746 502.048 270.28 502.048 272.136V286H498.696V272.364C498.696 270.65 498.251 269.314 497.36 268.358C496.47 267.392 495.249 266.909 493.696 266.909C492.626 266.909 491.669 267.141 490.826 267.605C489.993 268.069 489.335 268.746 488.852 269.636C488.369 270.527 488.127 271.606 488.127 272.875ZM513.594 286.511C512.212 286.511 510.957 286.251 509.83 285.73C508.703 285.2 507.808 284.438 507.145 283.443C506.482 282.439 506.151 281.227 506.151 279.807C506.151 278.557 506.397 277.544 506.89 276.767C507.382 275.981 508.04 275.366 508.864 274.92C509.688 274.475 510.597 274.144 511.591 273.926C512.595 273.699 513.604 273.519 514.617 273.386C515.943 273.216 517.017 273.088 517.841 273.003C518.675 272.908 519.281 272.752 519.659 272.534C520.048 272.316 520.242 271.937 520.242 271.398V271.284C520.242 269.883 519.858 268.794 519.091 268.017C518.334 267.241 517.183 266.852 515.64 266.852C514.039 266.852 512.784 267.203 511.875 267.903C510.966 268.604 510.327 269.352 509.958 270.148L506.776 269.011C507.344 267.686 508.102 266.653 509.049 265.915C510.005 265.167 511.047 264.646 512.174 264.352C513.31 264.049 514.427 263.898 515.526 263.898C516.227 263.898 517.032 263.983 517.941 264.153C518.859 264.314 519.745 264.651 520.597 265.162C521.459 265.673 522.174 266.445 522.742 267.477C523.31 268.509 523.594 269.892 523.594 271.625V286H520.242V283.045H520.071C519.844 283.519 519.465 284.026 518.935 284.565C518.405 285.105 517.699 285.564 516.819 285.943C515.938 286.322 514.863 286.511 513.594 286.511ZM514.105 283.5C515.431 283.5 516.549 283.24 517.458 282.719C518.376 282.198 519.068 281.526 519.532 280.702C520.005 279.878 520.242 279.011 520.242 278.102V275.034C520.1 275.205 519.787 275.361 519.304 275.503C518.831 275.635 518.282 275.754 517.657 275.858C517.041 275.953 516.44 276.038 515.853 276.114C515.275 276.18 514.806 276.237 514.446 276.284C513.575 276.398 512.761 276.582 512.003 276.838C511.255 277.084 510.649 277.458 510.185 277.96C509.73 278.453 509.503 279.125 509.503 279.977C509.503 281.142 509.934 282.023 510.796 282.619C511.667 283.206 512.77 283.5 514.105 283.5ZM532.065 256.909V286H528.713V256.909H532.065ZM540.557 256.909V286H537.205V256.909H540.557ZM547.856 294.182C547.288 294.182 546.781 294.134 546.336 294.04C545.891 293.955 545.583 293.869 545.413 293.784L546.265 290.83C547.08 291.038 547.799 291.114 548.424 291.057C549.049 291 549.603 290.721 550.086 290.219C550.579 289.726 551.029 288.926 551.436 287.818L552.061 286.114L543.993 264.182H547.629L553.652 281.568H553.879L559.902 264.182H563.538L554.277 289.182C553.86 290.309 553.344 291.241 552.728 291.98C552.113 292.728 551.398 293.282 550.583 293.642C549.779 294.002 548.869 294.182 547.856 294.182ZM569.406 286.227C568.705 286.227 568.104 285.976 567.602 285.474C567.1 284.973 566.849 284.371 566.849 283.67C566.849 282.97 567.1 282.368 567.602 281.866C568.104 281.365 568.705 281.114 569.406 281.114C570.107 281.114 570.708 281.365 571.21 281.866C571.712 282.368 571.963 282.97 571.963 283.67C571.963 284.134 571.844 284.561 571.608 284.949C571.38 285.337 571.073 285.65 570.684 285.886C570.306 286.114 569.879 286.227 569.406 286.227Z" fill="white"/>
</g>
<defs>
<clipPath id="clip0_35_77">
<rect width="600" height="400" fill="white"/>
</clipPath>
</defs>
</svg>
