<svg width="600" height="481" viewBox="0 0 600 481" fill="none" xmlns="http://www.w3.org/2000/svg">
<g clip-path="url(#clip0_31_41)">
<rect width="600" height="481" fill="white"/>
<rect x="90" width="420" height="420" fill="#FFE0B2"/>
<path d="M239.595 456V448.364H240.729V449.557H240.828C240.987 449.149 241.244 448.833 241.599 448.607C241.954 448.379 242.379 448.264 242.877 448.264C243.38 448.264 243.8 448.379 244.134 448.607C244.472 448.833 244.736 449.149 244.925 449.557H245.004C245.2 449.162 245.493 448.849 245.884 448.617C246.276 448.382 246.744 448.264 247.291 448.264C247.974 448.264 248.533 448.478 248.967 448.906C249.401 449.33 249.618 449.991 249.618 450.889V456H248.445V450.889C248.445 450.326 248.291 449.923 247.982 449.681C247.674 449.439 247.311 449.318 246.894 449.318C246.357 449.318 245.941 449.481 245.646 449.805C245.351 450.127 245.203 450.535 245.203 451.028V456H244.01V450.77C244.01 450.336 243.869 449.986 243.588 449.721C243.306 449.452 242.943 449.318 242.499 449.318C242.194 449.318 241.909 449.399 241.644 449.562C241.382 449.724 241.17 449.95 241.007 450.238C240.848 450.523 240.769 450.853 240.769 451.227V456H239.595ZM253.01 456.179C252.527 456.179 252.087 456.088 251.693 455.906C251.299 455.72 250.985 455.453 250.753 455.105C250.521 454.754 250.405 454.33 250.405 453.832C250.405 453.395 250.492 453.04 250.664 452.768C250.836 452.493 251.067 452.278 251.355 452.122C251.643 451.966 251.961 451.85 252.309 451.774C252.661 451.695 253.014 451.632 253.368 451.585C253.832 451.526 254.209 451.481 254.497 451.451C254.789 451.418 255.001 451.363 255.133 451.287C255.269 451.211 255.337 451.078 255.337 450.889V450.849C255.337 450.359 255.203 449.978 254.934 449.706C254.669 449.434 254.267 449.298 253.726 449.298C253.166 449.298 252.727 449.421 252.409 449.666C252.091 449.911 251.867 450.173 251.738 450.452L250.624 450.054C250.823 449.59 251.088 449.229 251.42 448.97C251.754 448.708 252.119 448.526 252.513 448.423C252.911 448.317 253.302 448.264 253.687 448.264C253.932 448.264 254.214 448.294 254.532 448.354C254.853 448.41 255.163 448.528 255.461 448.707C255.763 448.886 256.013 449.156 256.212 449.517C256.411 449.878 256.51 450.362 256.51 450.969V456H255.337V454.966H255.278C255.198 455.132 255.065 455.309 254.88 455.498C254.694 455.687 254.447 455.848 254.139 455.98C253.831 456.113 253.455 456.179 253.01 456.179ZM253.189 455.125C253.653 455.125 254.045 455.034 254.363 454.852C254.684 454.669 254.926 454.434 255.089 454.146C255.254 453.857 255.337 453.554 255.337 453.236V452.162C255.287 452.222 255.178 452.276 255.009 452.326C254.843 452.372 254.651 452.414 254.432 452.45C254.217 452.483 254.006 452.513 253.801 452.54C253.599 452.563 253.435 452.583 253.309 452.599C253.004 452.639 252.719 452.704 252.454 452.793C252.192 452.879 251.98 453.01 251.817 453.186C251.658 453.358 251.579 453.594 251.579 453.892C251.579 454.3 251.729 454.608 252.031 454.817C252.336 455.022 252.722 455.125 253.189 455.125ZM258.527 448.364L260.357 451.486L262.186 448.364H263.538L261.072 452.182L263.538 456H262.186L260.357 453.037L258.527 456H257.175L259.601 452.182L257.175 448.364H258.527ZM264.213 456V448.364H265.386V456H264.213ZM264.809 447.091C264.58 447.091 264.383 447.013 264.218 446.857C264.055 446.701 263.974 446.514 263.974 446.295C263.974 446.077 264.055 445.889 264.218 445.734C264.383 445.578 264.58 445.5 264.809 445.5C265.038 445.5 265.233 445.578 265.396 445.734C265.561 445.889 265.644 446.077 265.644 446.295C265.644 446.514 265.561 446.701 265.396 446.857C265.233 447.013 265.038 447.091 264.809 447.091ZM266.535 456V448.364H267.668V449.557H267.768C267.927 449.149 268.184 448.833 268.538 448.607C268.893 448.379 269.319 448.264 269.816 448.264C270.32 448.264 270.739 448.379 271.074 448.607C271.412 448.833 271.675 449.149 271.864 449.557H271.944C272.139 449.162 272.433 448.849 272.824 448.617C273.215 448.382 273.684 448.264 274.231 448.264C274.914 448.264 275.472 448.478 275.906 448.906C276.34 449.33 276.558 449.991 276.558 450.889V456H275.384V450.889C275.384 450.326 275.23 449.923 274.922 449.681C274.614 449.439 274.251 449.318 273.833 449.318C273.296 449.318 272.88 449.481 272.585 449.805C272.29 450.127 272.143 450.535 272.143 451.028V456H270.95V450.77C270.95 450.336 270.809 449.986 270.527 449.721C270.245 449.452 269.882 449.318 269.438 449.318C269.133 449.318 268.848 449.399 268.583 449.562C268.321 449.724 268.109 449.95 267.947 450.238C267.788 450.523 267.708 450.853 267.708 451.227V456H266.535ZM282.515 452.878V448.364H283.689V456H282.515V454.707H282.436C282.257 455.095 281.978 455.425 281.6 455.697C281.223 455.965 280.745 456.099 280.169 456.099C279.691 456.099 279.267 455.995 278.896 455.786C278.525 455.574 278.233 455.256 278.021 454.832C277.809 454.404 277.703 453.866 277.703 453.216V448.364H278.876V453.136C278.876 453.693 279.032 454.137 279.343 454.469C279.658 454.8 280.059 454.966 280.547 454.966C280.838 454.966 281.135 454.891 281.436 454.742C281.741 454.593 281.997 454.364 282.202 454.056C282.411 453.748 282.515 453.355 282.515 452.878ZM284.838 456V448.364H285.971V449.557H286.07C286.23 449.149 286.486 448.833 286.841 448.607C287.196 448.379 287.622 448.264 288.119 448.264C288.623 448.264 289.042 448.379 289.377 448.607C289.715 448.833 289.978 449.149 290.167 449.557H290.247C290.442 449.162 290.735 448.849 291.127 448.617C291.518 448.382 291.987 448.264 292.534 448.264C293.216 448.264 293.775 448.478 294.209 448.906C294.643 449.33 294.86 449.991 294.86 450.889V456H293.687V450.889C293.687 450.326 293.533 449.923 293.225 449.681C292.916 449.439 292.553 449.318 292.136 449.318C291.599 449.318 291.183 449.481 290.888 449.805C290.593 450.127 290.445 450.535 290.445 451.028V456H289.252V450.77C289.252 450.336 289.111 449.986 288.83 449.721C288.548 449.452 288.185 449.318 287.741 449.318C287.436 449.318 287.151 449.399 286.886 449.562C286.624 449.724 286.412 449.95 286.249 450.238C286.09 450.523 286.011 450.853 286.011 451.227V456H284.838ZM302.025 459.023C301.459 459.023 300.971 458.95 300.564 458.804C300.156 458.661 299.816 458.473 299.545 458.237C299.276 458.005 299.062 457.757 298.903 457.491L299.838 456.835C299.944 456.974 300.078 457.134 300.241 457.312C300.403 457.495 300.625 457.652 300.907 457.785C301.192 457.921 301.565 457.989 302.025 457.989C302.642 457.989 303.151 457.839 303.552 457.541C303.953 457.243 304.153 456.776 304.153 456.139V454.588H304.054C303.968 454.727 303.845 454.9 303.686 455.105C303.53 455.307 303.305 455.488 303.01 455.647C302.718 455.803 302.324 455.881 301.827 455.881C301.21 455.881 300.657 455.735 300.166 455.443C299.679 455.152 299.293 454.727 299.008 454.17C298.726 453.614 298.585 452.937 298.585 452.142C298.585 451.36 298.723 450.679 298.998 450.099C299.273 449.515 299.656 449.065 300.146 448.746C300.637 448.425 301.203 448.264 301.846 448.264C302.344 448.264 302.738 448.347 303.03 448.513C303.325 448.675 303.55 448.861 303.706 449.07C303.865 449.275 303.988 449.444 304.074 449.577H304.193V448.364H305.327V456.219C305.327 456.875 305.177 457.409 304.879 457.82C304.584 458.234 304.186 458.537 303.686 458.729C303.189 458.925 302.635 459.023 302.025 459.023ZM301.986 454.827C302.456 454.827 302.854 454.719 303.179 454.504C303.504 454.288 303.751 453.978 303.92 453.574C304.089 453.17 304.173 452.686 304.173 452.122C304.173 451.572 304.09 451.086 303.925 450.665C303.759 450.245 303.514 449.915 303.189 449.676C302.864 449.437 302.463 449.318 301.986 449.318C301.488 449.318 301.074 449.444 300.743 449.696C300.415 449.948 300.168 450.286 300.002 450.71C299.84 451.134 299.758 451.605 299.758 452.122C299.758 452.652 299.841 453.121 300.007 453.529C300.176 453.933 300.425 454.252 300.753 454.484C301.084 454.712 301.495 454.827 301.986 454.827ZM306.474 456V448.364H307.608V449.517H307.687C307.827 449.139 308.078 448.833 308.443 448.597C308.808 448.362 309.219 448.244 309.676 448.244C309.762 448.244 309.87 448.246 309.999 448.249C310.128 448.253 310.226 448.258 310.292 448.264V449.457C310.253 449.447 310.162 449.433 310.019 449.413C309.88 449.389 309.732 449.378 309.577 449.378C309.205 449.378 308.874 449.456 308.582 449.612C308.294 449.764 308.065 449.976 307.896 450.248C307.73 450.516 307.648 450.823 307.648 451.168V456H306.474ZM310.683 456V448.364H311.857V456H310.683ZM311.28 447.091C311.051 447.091 310.854 447.013 310.688 446.857C310.526 446.701 310.445 446.514 310.445 446.295C310.445 446.077 310.526 445.889 310.688 445.734C310.854 445.578 311.051 445.5 311.28 445.5C311.509 445.5 311.704 445.578 311.866 445.734C312.032 445.889 312.115 446.077 312.115 446.295C312.115 446.514 312.032 446.701 311.866 446.857C311.704 447.013 311.509 447.091 311.28 447.091ZM315.889 456.159C315.253 456.159 314.691 455.998 314.204 455.677C313.716 455.352 313.335 454.895 313.06 454.305C312.785 453.711 312.648 453.01 312.648 452.202C312.648 451.4 312.785 450.704 313.06 450.114C313.335 449.524 313.718 449.068 314.209 448.746C314.699 448.425 315.266 448.264 315.909 448.264C316.406 448.264 316.799 448.347 317.087 448.513C317.379 448.675 317.601 448.861 317.753 449.07C317.909 449.275 318.03 449.444 318.116 449.577H318.216V445.818H319.389V456H318.256V454.827H318.116C318.03 454.966 317.907 455.142 317.748 455.354C317.589 455.562 317.362 455.75 317.067 455.915C316.772 456.078 316.38 456.159 315.889 456.159ZM316.048 455.105C316.519 455.105 316.916 454.982 317.241 454.737C317.566 454.489 317.813 454.146 317.982 453.708C318.151 453.267 318.236 452.759 318.236 452.182C318.236 451.612 318.153 451.113 317.987 450.685C317.821 450.254 317.576 449.92 317.251 449.681C316.926 449.439 316.525 449.318 316.048 449.318C315.551 449.318 315.137 449.446 314.805 449.701C314.477 449.953 314.23 450.296 314.064 450.73C313.902 451.161 313.821 451.645 313.821 452.182C313.821 452.725 313.904 453.219 314.069 453.663C314.238 454.104 314.487 454.455 314.815 454.717C315.147 454.976 315.558 455.105 316.048 455.105ZM325.368 456L323.042 448.364H324.275L325.925 454.21H326.005L327.635 448.364H328.888L330.499 454.19H330.579L332.229 448.364H333.462L331.135 456H329.982L328.312 450.134H328.192L326.522 456H325.368ZM334.013 456V448.364H335.187V456H334.013ZM334.61 447.091C334.381 447.091 334.184 447.013 334.018 446.857C333.856 446.701 333.775 446.514 333.775 446.295C333.775 446.077 333.856 445.889 334.018 445.734C334.184 445.578 334.381 445.5 334.61 445.5C334.839 445.5 335.034 445.578 335.197 445.734C335.362 445.889 335.445 446.077 335.445 446.295C335.445 446.514 335.362 446.701 335.197 446.857C335.034 447.013 334.839 447.091 334.61 447.091ZM339.219 456.159C338.583 456.159 338.021 455.998 337.534 455.677C337.047 455.352 336.665 454.895 336.39 454.305C336.115 453.711 335.978 453.01 335.978 452.202C335.978 451.4 336.115 450.704 336.39 450.114C336.665 449.524 337.048 449.068 337.539 448.746C338.029 448.425 338.596 448.264 339.239 448.264C339.736 448.264 340.129 448.347 340.417 448.513C340.709 448.675 340.931 448.861 341.083 449.07C341.239 449.275 341.36 449.444 341.446 449.577H341.546V445.818H342.719V456H341.586V454.827H341.446C341.36 454.966 341.238 455.142 341.078 455.354C340.919 455.562 340.692 455.75 340.397 455.915C340.102 456.078 339.71 456.159 339.219 456.159ZM339.378 455.105C339.849 455.105 340.247 454.982 340.571 454.737C340.896 454.489 341.143 454.146 341.312 453.708C341.481 453.267 341.566 452.759 341.566 452.182C341.566 451.612 341.483 451.113 341.317 450.685C341.151 450.254 340.906 449.92 340.581 449.681C340.257 449.439 339.855 449.318 339.378 449.318C338.881 449.318 338.467 449.446 338.135 449.701C337.807 449.953 337.56 450.296 337.395 450.73C337.232 451.161 337.151 451.645 337.151 452.182C337.151 452.725 337.234 453.219 337.4 453.663C337.569 454.104 337.817 454.455 338.145 454.717C338.477 454.976 338.888 455.105 339.378 455.105ZM347.352 448.364V449.358H343.395V448.364H347.352ZM344.548 446.534H345.721V453.812C345.721 454.144 345.769 454.393 345.865 454.558C345.965 454.721 346.091 454.83 346.243 454.886C346.399 454.939 346.563 454.966 346.735 454.966C346.865 454.966 346.971 454.959 347.054 454.946C347.136 454.929 347.203 454.916 347.252 454.906L347.491 455.96C347.412 455.99 347.301 456.02 347.158 456.05C347.016 456.083 346.835 456.099 346.616 456.099C346.285 456.099 345.96 456.028 345.642 455.886C345.327 455.743 345.065 455.526 344.856 455.234C344.651 454.943 344.548 454.575 344.548 454.131V446.534ZM349.454 451.406V456H348.281V445.818H349.454V449.557H349.554C349.733 449.162 350.001 448.849 350.359 448.617C350.72 448.382 351.201 448.264 351.801 448.264C352.321 448.264 352.777 448.369 353.168 448.577C353.559 448.783 353.862 449.099 354.078 449.527C354.297 449.951 354.406 450.491 354.406 451.148V456H353.233V451.227C353.233 450.621 353.075 450.152 352.76 449.82C352.449 449.486 352.016 449.318 351.463 449.318C351.078 449.318 350.734 449.399 350.429 449.562C350.127 449.724 349.888 449.961 349.713 450.273C349.54 450.584 349.454 450.962 349.454 451.406Z" fill="black"/>
<path d="M28.2812 98.4545C27.6335 98.4545 27.0767 98.3712 26.6108 98.2045C26.1449 98.0417 25.7566 97.8258 25.446 97.5568C25.1392 97.2917 24.8949 97.0076 24.7131 96.7045L25.7812 95.9545C25.9025 96.1136 26.0559 96.2955 26.2415 96.5C26.4271 96.7083 26.6809 96.8883 27.0028 97.0398C27.3286 97.1951 27.7547 97.2727 28.2812 97.2727C28.9858 97.2727 29.5672 97.1023 30.0256 96.7614C30.4839 96.4205 30.7131 95.8864 30.7131 95.1591V93.3864H30.5994C30.5009 93.5455 30.3608 93.7424 30.179 93.9773C30.0009 94.2083 29.7434 94.4148 29.4062 94.5966C29.0729 94.7746 28.6222 94.8636 28.054 94.8636C27.3494 94.8636 26.7169 94.697 26.1562 94.3636C25.5994 94.0303 25.1581 93.5455 24.8324 92.9091C24.5104 92.2727 24.3494 91.5 24.3494 90.5909C24.3494 89.697 24.5066 88.9186 24.821 88.2557C25.1354 87.589 25.5729 87.0739 26.1335 86.7102C26.6941 86.3428 27.3419 86.1591 28.0767 86.1591C28.6449 86.1591 29.0956 86.2538 29.429 86.4432C29.7661 86.6288 30.0237 86.8409 30.2017 87.0795C30.3835 87.3144 30.5237 87.5076 30.6222 87.6591H30.7585V86.2727H32.054V95.25C32.054 96 31.8835 96.6098 31.5426 97.0795C31.2055 97.553 30.7509 97.8996 30.179 98.1193C29.6108 98.3428 28.9782 98.4545 28.2812 98.4545ZM28.2358 93.6591C28.7737 93.6591 29.2282 93.536 29.5994 93.2898C29.9706 93.0436 30.2528 92.6894 30.446 92.2273C30.6392 91.7652 30.7358 91.2121 30.7358 90.5682C30.7358 89.9394 30.6411 89.3845 30.4517 88.9034C30.2623 88.4223 29.982 88.0455 29.6108 87.7727C29.2396 87.5 28.7813 87.3636 28.2358 87.3636C27.6676 87.3636 27.1941 87.5076 26.8153 87.7955C26.4403 88.0833 26.1581 88.4697 25.9688 88.9545C25.7831 89.4394 25.6903 89.9773 25.6903 90.5682C25.6903 91.1742 25.785 91.7102 25.9744 92.1761C26.1676 92.6383 26.4517 93.0019 26.8267 93.267C27.2055 93.5284 27.6752 93.6591 28.2358 93.6591ZM33.5085 95V86.2727H34.804V87.5909H34.8949C35.054 87.1591 35.3419 86.8087 35.7585 86.5398C36.1752 86.2708 36.6449 86.1364 37.1676 86.1364C37.2661 86.1364 37.3892 86.1383 37.5369 86.142C37.6847 86.1458 37.7964 86.1515 37.8722 86.1591V87.5227C37.8267 87.5114 37.7225 87.4943 37.5597 87.4716C37.4006 87.4451 37.232 87.4318 37.054 87.4318C36.6297 87.4318 36.2509 87.5208 35.9176 87.6989C35.5881 87.8731 35.3267 88.1155 35.1335 88.4261C34.9441 88.733 34.8494 89.0833 34.8494 89.4773V95H33.5085ZM38.4616 95V86.2727H39.8026V95H38.4616ZM39.1435 84.8182C38.8821 84.8182 38.6567 84.7292 38.4673 84.5511C38.2817 84.3731 38.1889 84.1591 38.1889 83.9091C38.1889 83.6591 38.2817 83.4451 38.4673 83.267C38.6567 83.089 38.8821 83 39.1435 83C39.4048 83 39.6283 83.089 39.8139 83.267C40.0033 83.4451 40.098 83.6591 40.098 83.9091C40.098 84.1591 40.0033 84.3731 39.8139 84.5511C39.6283 84.7292 39.4048 84.8182 39.1435 84.8182ZM44.554 95.1818C43.8267 95.1818 43.1847 94.9981 42.6278 94.6307C42.071 94.2595 41.6354 93.7367 41.321 93.0625C41.0066 92.3845 40.8494 91.5833 40.8494 90.6591C40.8494 89.7424 41.0066 88.947 41.321 88.2727C41.6354 87.5985 42.0729 87.0777 42.6335 86.7102C43.1941 86.3428 43.8419 86.1591 44.5767 86.1591C45.1449 86.1591 45.5938 86.2538 45.9233 86.4432C46.2566 86.6288 46.5104 86.8409 46.6847 87.0795C46.8627 87.3144 47.0009 87.5076 47.0994 87.6591H47.2131V83.3636H48.554V95H47.2585V93.6591H47.0994C47.0009 93.8182 46.8608 94.0189 46.679 94.2614C46.4972 94.5 46.2377 94.714 45.9006 94.9034C45.5634 95.089 45.1146 95.1818 44.554 95.1818ZM44.7358 93.9773C45.2737 93.9773 45.7282 93.8371 46.0994 93.5568C46.4706 93.2727 46.7528 92.8807 46.946 92.3807C47.1392 91.8769 47.2358 91.2955 47.2358 90.6364C47.2358 89.9848 47.1411 89.4148 46.9517 88.9261C46.7623 88.4337 46.482 88.0511 46.1108 87.7784C45.7396 87.5019 45.2813 87.3636 44.7358 87.3636C44.1676 87.3636 43.6941 87.5095 43.3153 87.8011C42.9403 88.089 42.6581 88.4811 42.4688 88.9773C42.2831 89.4697 42.1903 90.0227 42.1903 90.6364C42.1903 91.2576 42.285 91.822 42.4744 92.3295C42.6676 92.8333 42.9517 93.2348 43.3267 93.5341C43.7055 93.8295 44.1752 93.9773 44.7358 93.9773ZM16.4695 114V105.273H17.7649V106.636H17.8786C18.0604 106.17 18.3539 105.809 18.7592 105.551C19.1645 105.29 19.6513 105.159 20.2195 105.159C20.7952 105.159 21.2744 105.29 21.657 105.551C22.0433 105.809 22.3445 106.17 22.5604 106.636H22.6513C22.8748 106.186 23.21 105.828 23.657 105.562C24.1039 105.294 24.6399 105.159 25.2649 105.159C26.0452 105.159 26.6835 105.403 27.1797 105.892C27.6759 106.377 27.924 107.133 27.924 108.159V114H26.5831V108.159C26.5831 107.515 26.407 107.055 26.0547 106.778C25.7024 106.502 25.2876 106.364 24.8104 106.364C24.1967 106.364 23.7214 106.549 23.3842 106.92C23.0471 107.288 22.8786 107.754 22.8786 108.318V114H21.5149V108.023C21.5149 107.527 21.3539 107.127 21.032 106.824C20.71 106.517 20.2952 106.364 19.7876 106.364C19.4392 106.364 19.1134 106.456 18.8104 106.642C18.5111 106.828 18.2687 107.085 18.0831 107.415C17.9013 107.741 17.8104 108.117 17.8104 108.545V114H16.4695ZM31.9439 114.205C31.3909 114.205 30.889 114.1 30.4382 113.892C29.9875 113.68 29.6295 113.375 29.3643 112.977C29.0992 112.576 28.9666 112.091 28.9666 111.523C28.9666 111.023 29.0651 110.617 29.2621 110.307C29.459 109.992 29.7223 109.746 30.0518 109.568C30.3814 109.39 30.745 109.258 31.1428 109.17C31.5443 109.08 31.9477 109.008 32.353 108.955C32.8833 108.886 33.3132 108.835 33.6428 108.801C33.9761 108.763 34.2185 108.701 34.37 108.614C34.5253 108.527 34.603 108.375 34.603 108.159V108.114C34.603 107.553 34.4496 107.117 34.1428 106.807C33.8397 106.496 33.3795 106.341 32.7621 106.341C32.1219 106.341 31.62 106.481 31.2564 106.761C30.8928 107.042 30.6371 107.341 30.4893 107.659L29.2166 107.205C29.4439 106.674 29.7469 106.261 30.1257 105.966C30.5083 105.667 30.925 105.458 31.3757 105.341C31.8303 105.22 32.2772 105.159 32.7166 105.159C32.9969 105.159 33.3189 105.193 33.6825 105.261C34.05 105.326 34.4041 105.46 34.745 105.665C35.0897 105.869 35.3757 106.178 35.603 106.591C35.8303 107.004 35.9439 107.557 35.9439 108.25V114H34.603V112.818H34.5348C34.4439 113.008 34.2924 113.21 34.0803 113.426C33.8681 113.642 33.5859 113.826 33.2337 113.977C32.8814 114.129 32.4515 114.205 31.9439 114.205ZM32.1484 113C32.6787 113 33.1257 112.896 33.4893 112.688C33.8568 112.479 34.1333 112.21 34.3189 111.881C34.5083 111.551 34.603 111.205 34.603 110.841V109.614C34.5462 109.682 34.4212 109.744 34.228 109.801C34.0386 109.854 33.8189 109.902 33.5689 109.943C33.3227 109.981 33.0821 110.015 32.8473 110.045C32.6162 110.072 32.4287 110.095 32.2848 110.114C31.9363 110.159 31.6106 110.233 31.3075 110.335C31.0083 110.434 30.7659 110.583 30.5803 110.784C30.3984 110.981 30.3075 111.25 30.3075 111.591C30.3075 112.057 30.4799 112.409 30.8246 112.648C31.1731 112.883 31.6143 113 32.1484 113ZM37.3913 114V105.273H38.6868V106.591H38.7777C38.9368 106.159 39.2247 105.809 39.6413 105.54C40.058 105.271 40.5277 105.136 41.0504 105.136C41.1489 105.136 41.272 105.138 41.4197 105.142C41.5675 105.146 41.6792 105.152 41.755 105.159V106.523C41.7095 106.511 41.6054 106.494 41.4425 106.472C41.2834 106.445 41.1148 106.432 40.9368 106.432C40.5125 106.432 40.1338 106.521 39.8004 106.699C39.4709 106.873 39.2095 107.116 39.0163 107.426C38.8269 107.733 38.7322 108.083 38.7322 108.477V114H37.3913ZM45.6016 117.455C44.9538 117.455 44.397 117.371 43.9311 117.205C43.4652 117.042 43.0769 116.826 42.7663 116.557C42.4595 116.292 42.2152 116.008 42.0334 115.705L43.1016 114.955C43.2228 115.114 43.3762 115.295 43.5618 115.5C43.7474 115.708 44.0012 115.888 44.3232 116.04C44.6489 116.195 45.075 116.273 45.6016 116.273C46.3061 116.273 46.8875 116.102 47.3459 115.761C47.8042 115.42 48.0334 114.886 48.0334 114.159V112.386H47.9197C47.8213 112.545 47.6811 112.742 47.4993 112.977C47.3213 113.208 47.0637 113.415 46.7266 113.597C46.3932 113.775 45.9425 113.864 45.3743 113.864C44.6697 113.864 44.0372 113.697 43.4766 113.364C42.9197 113.03 42.4785 112.545 42.1527 111.909C41.8307 111.273 41.6697 110.5 41.6697 109.591C41.6697 108.697 41.8269 107.919 42.1413 107.256C42.4557 106.589 42.8932 106.074 43.4538 105.71C44.0144 105.343 44.6622 105.159 45.397 105.159C45.9652 105.159 46.416 105.254 46.7493 105.443C47.0864 105.629 47.344 105.841 47.522 106.08C47.7038 106.314 47.844 106.508 47.9425 106.659H48.0788V105.273H49.3743V114.25C49.3743 115 49.2038 115.61 48.8629 116.08C48.5258 116.553 48.0713 116.9 47.4993 117.119C46.9311 117.343 46.2985 117.455 45.6016 117.455ZM45.5561 112.659C46.094 112.659 46.5485 112.536 46.9197 112.29C47.291 112.044 47.5732 111.689 47.7663 111.227C47.9595 110.765 48.0561 110.212 48.0561 109.568C48.0561 108.939 47.9614 108.384 47.772 107.903C47.5826 107.422 47.3023 107.045 46.9311 106.773C46.5599 106.5 46.1016 106.364 45.5561 106.364C44.9879 106.364 44.5144 106.508 44.1357 106.795C43.7607 107.083 43.4785 107.47 43.2891 107.955C43.1035 108.439 43.0107 108.977 43.0107 109.568C43.0107 110.174 43.1054 110.71 43.2947 111.176C43.4879 111.638 43.772 112.002 44.147 112.267C44.5258 112.528 44.9955 112.659 45.5561 112.659ZM50.8288 114V105.273H52.1697V114H50.8288ZM51.5107 103.818C51.2493 103.818 51.0239 103.729 50.8345 103.551C50.6489 103.373 50.5561 103.159 50.5561 102.909C50.5561 102.659 50.6489 102.445 50.8345 102.267C51.0239 102.089 51.2493 102 51.5107 102C51.772 102 51.9955 102.089 52.1811 102.267C52.3705 102.445 52.4652 102.659 52.4652 102.909C52.4652 103.159 52.3705 103.373 52.1811 103.551C51.9955 103.729 51.772 103.818 51.5107 103.818ZM54.9666 108.75V114H53.6257V105.273H54.9212V106.636H55.0348C55.2393 106.193 55.55 105.837 55.9666 105.568C56.3833 105.295 56.9212 105.159 57.5803 105.159C58.1712 105.159 58.6882 105.28 59.1314 105.523C59.5746 105.761 59.9193 106.125 60.1655 106.614C60.4117 107.098 60.5348 107.712 60.5348 108.455V114H59.1939V108.545C59.1939 107.86 59.0159 107.326 58.6598 106.943C58.3037 106.557 57.8151 106.364 57.1939 106.364C56.7659 106.364 56.3833 106.456 56.0462 106.642C55.7128 106.828 55.4496 107.098 55.2564 107.455C55.0632 107.811 54.9666 108.242 54.9666 108.75Z" fill="black"/>
<path d="M537.351 77.1818C536.533 77.1818 535.828 76.9886 535.237 76.6023C534.646 76.2159 534.192 75.6837 533.874 75.0057C533.555 74.3277 533.396 73.553 533.396 72.6818C533.396 71.7955 533.559 71.0133 533.885 70.3352C534.214 69.6534 534.673 69.1212 535.26 68.7386C535.851 68.3523 536.54 68.1591 537.328 68.1591C537.942 68.1591 538.495 68.2727 538.987 68.5C539.48 68.7273 539.883 69.0455 540.197 69.4545C540.512 69.8636 540.707 70.3409 540.783 70.8864H539.442C539.339 70.4886 539.112 70.1364 538.76 69.8295C538.411 69.5189 537.942 69.3636 537.351 69.3636C536.828 69.3636 536.37 69.5 535.976 69.7727C535.586 70.0417 535.281 70.4223 535.061 70.9148C534.845 71.4034 534.737 71.9773 534.737 72.6364C534.737 73.3106 534.843 73.8977 535.055 74.3977C535.271 74.8977 535.574 75.286 535.964 75.5625C536.358 75.839 536.821 75.9773 537.351 75.9773C537.699 75.9773 538.016 75.9167 538.3 75.7955C538.584 75.6742 538.824 75.5 539.021 75.2727C539.218 75.0455 539.358 74.7727 539.442 74.4545H540.783C540.707 74.9697 540.519 75.4337 540.22 75.8466C539.925 76.2557 539.533 76.5814 539.044 76.8239C538.559 77.0625 537.995 77.1818 537.351 77.1818ZM545.288 77.1818C544.5 77.1818 543.809 76.9943 543.214 76.6193C542.624 76.2443 542.161 75.7197 541.828 75.0455C541.499 74.3712 541.334 73.5833 541.334 72.6818C541.334 71.7727 541.499 70.9792 541.828 70.3011C542.161 69.6231 542.624 69.0966 543.214 68.7216C543.809 68.3466 544.5 68.1591 545.288 68.1591C546.076 68.1591 546.766 68.3466 547.357 68.7216C547.951 69.0966 548.413 69.6231 548.743 70.3011C549.076 70.9792 549.243 71.7727 549.243 72.6818C549.243 73.5833 549.076 74.3712 548.743 75.0455C548.413 75.7197 547.951 76.2443 547.357 76.6193C546.766 76.9943 546.076 77.1818 545.288 77.1818ZM545.288 75.9773C545.887 75.9773 546.379 75.8239 546.766 75.517C547.152 75.2102 547.438 74.8068 547.624 74.3068C547.809 73.8068 547.902 73.2652 547.902 72.6818C547.902 72.0985 547.809 71.5549 547.624 71.0511C547.438 70.5473 547.152 70.1402 546.766 69.8295C546.379 69.5189 545.887 69.3636 545.288 69.3636C544.69 69.3636 544.197 69.5189 543.811 69.8295C543.425 70.1402 543.139 70.5473 542.953 71.0511C542.768 71.5549 542.675 72.0985 542.675 72.6818C542.675 73.2652 542.768 73.8068 542.953 74.3068C543.139 74.8068 543.425 75.2102 543.811 75.517C544.197 75.8239 544.69 75.9773 545.288 75.9773ZM551.631 65.3636V77H550.29V65.3636H551.631ZM558.587 73.4318V68.2727H559.928V77H558.587V75.5227H558.496C558.291 75.9659 557.973 76.3428 557.541 76.6534C557.109 76.9602 556.564 77.1136 555.905 77.1136C555.359 77.1136 554.875 76.9943 554.45 76.7557C554.026 76.5133 553.693 76.1496 553.45 75.6648C553.208 75.1761 553.087 74.5606 553.087 73.8182V68.2727H554.428V73.7273C554.428 74.3636 554.606 74.8712 554.962 75.25C555.321 75.6288 555.78 75.8182 556.337 75.8182C556.67 75.8182 557.009 75.733 557.354 75.5625C557.702 75.392 557.994 75.1307 558.229 74.7784C558.467 74.4261 558.587 73.9773 558.587 73.4318ZM561.384 77V68.2727H562.679V69.6364H562.793C562.974 69.1705 563.268 68.8087 563.673 68.5511C564.079 68.2898 564.565 68.1591 565.134 68.1591C565.709 68.1591 566.188 68.2898 566.571 68.5511C566.957 68.8087 567.259 69.1705 567.474 69.6364H567.565C567.789 69.1856 568.124 68.8277 568.571 68.5625C569.018 68.2936 569.554 68.1591 570.179 68.1591C570.959 68.1591 571.598 68.4034 572.094 68.892C572.59 69.3769 572.838 70.1326 572.838 71.1591V77H571.497V71.1591C571.497 70.5152 571.321 70.0549 570.969 69.7784C570.616 69.5019 570.202 69.3636 569.724 69.3636C569.111 69.3636 568.635 69.5492 568.298 69.9205C567.961 70.2879 567.793 70.7538 567.793 71.3182V77H566.429V71.0227C566.429 70.5265 566.268 70.1269 565.946 69.8239C565.624 69.517 565.209 69.3636 564.702 69.3636C564.353 69.3636 564.027 69.4564 563.724 69.642C563.425 69.8277 563.183 70.0852 562.997 70.4148C562.815 70.7405 562.724 71.1174 562.724 71.5455V77H561.384ZM575.631 71.75V77H574.29V68.2727H575.585V69.6364H575.699C575.903 69.1932 576.214 68.8371 576.631 68.5682C577.047 68.2955 577.585 68.1591 578.244 68.1591C578.835 68.1591 579.352 68.2803 579.795 68.5227C580.239 68.7614 580.583 69.125 580.83 69.6136C581.076 70.0985 581.199 70.7121 581.199 71.4545V77H579.858V71.5455C579.858 70.8598 579.68 70.3258 579.324 69.9432C578.968 69.5568 578.479 69.3636 577.858 69.3636C577.43 69.3636 577.047 69.4564 576.71 69.642C576.377 69.8277 576.114 70.0985 575.92 70.4545C575.727 70.8106 575.631 71.2424 575.631 71.75Z" fill="black"/>
<path d="M540.759 265V256.273H542.054V257.591H542.145C542.304 257.159 542.592 256.809 543.009 256.54C543.425 256.271 543.895 256.136 544.418 256.136C544.516 256.136 544.639 256.138 544.787 256.142C544.935 256.146 545.046 256.152 545.122 256.159V257.523C545.077 257.511 544.973 257.494 544.81 257.472C544.651 257.445 544.482 257.432 544.304 257.432C543.88 257.432 543.501 257.521 543.168 257.699C542.838 257.873 542.577 258.116 542.384 258.426C542.194 258.733 542.099 259.083 542.099 259.477V265H540.759ZM548.991 265.182C548.204 265.182 547.512 264.994 546.918 264.619C546.327 264.244 545.865 263.72 545.531 263.045C545.202 262.371 545.037 261.583 545.037 260.682C545.037 259.773 545.202 258.979 545.531 258.301C545.865 257.623 546.327 257.097 546.918 256.722C547.512 256.347 548.204 256.159 548.991 256.159C549.779 256.159 550.469 256.347 551.06 256.722C551.654 257.097 552.116 257.623 552.446 258.301C552.779 258.979 552.946 259.773 552.946 260.682C552.946 261.583 552.779 262.371 552.446 263.045C552.116 263.72 551.654 264.244 551.06 264.619C550.469 264.994 549.779 265.182 548.991 265.182ZM548.991 263.977C549.59 263.977 550.082 263.824 550.469 263.517C550.855 263.21 551.141 262.807 551.327 262.307C551.512 261.807 551.605 261.265 551.605 260.682C551.605 260.098 551.512 259.555 551.327 259.051C551.141 258.547 550.855 258.14 550.469 257.83C550.082 257.519 549.59 257.364 548.991 257.364C548.393 257.364 547.901 257.519 547.514 257.83C547.128 258.14 546.842 258.547 546.656 259.051C546.471 259.555 546.378 260.098 546.378 260.682C546.378 261.265 546.471 261.807 546.656 262.307C546.842 262.807 547.128 263.21 547.514 263.517C547.901 263.824 548.393 263.977 548.991 263.977ZM555.673 265L553.014 256.273H554.423L556.31 262.955H556.401L558.264 256.273H559.696L561.537 262.932H561.628L563.514 256.273H564.923L562.264 265H560.946L559.037 258.295H558.901L556.991 265H555.673Z" fill="black"/>
<path d="M13.2351 243V234.273H14.5305V235.591H14.6214C14.7805 235.159 15.0684 234.809 15.4851 234.54C15.9018 234.271 16.3714 234.136 16.8942 234.136C16.9927 234.136 17.1158 234.138 17.2635 234.142C17.4112 234.146 17.523 234.152 17.5987 234.159V235.523C17.5533 235.511 17.4491 235.494 17.2862 235.472C17.1271 235.445 16.9586 235.432 16.7805 235.432C16.3563 235.432 15.9775 235.521 15.6442 235.699C15.3146 235.873 15.0533 236.116 14.8601 236.426C14.6707 236.733 14.576 237.083 14.576 237.477V243H13.2351ZM21.5817 243.182C20.7408 243.182 20.0154 242.996 19.4055 242.625C18.7995 242.25 18.3317 241.727 18.0021 241.057C17.6764 240.383 17.5135 239.598 17.5135 238.705C17.5135 237.811 17.6764 237.023 18.0021 236.341C18.3317 235.655 18.79 235.121 19.3771 234.739C19.968 234.352 20.6574 234.159 21.4453 234.159C21.8999 234.159 22.3487 234.235 22.7919 234.386C23.2351 234.538 23.6385 234.784 24.0021 235.125C24.3658 235.462 24.6555 235.909 24.8714 236.466C25.0874 237.023 25.1953 237.708 25.1953 238.523V239.091H18.468V237.932H23.8317C23.8317 237.439 23.7332 237 23.5362 236.614C23.343 236.227 23.0665 235.922 22.7067 235.699C22.3506 235.475 21.9302 235.364 21.4453 235.364C20.9112 235.364 20.4491 235.496 20.0589 235.761C19.6726 236.023 19.3752 236.364 19.1669 236.784C18.9586 237.205 18.8544 237.655 18.8544 238.136V238.909C18.8544 239.568 18.968 240.127 19.1953 240.585C19.4264 241.04 19.7464 241.386 20.1555 241.625C20.5646 241.86 21.04 241.977 21.5817 241.977C21.9339 241.977 22.2521 241.928 22.5362 241.83C22.8241 241.727 23.0722 241.576 23.2805 241.375C23.4889 241.17 23.6499 240.917 23.7635 240.614L25.0589 240.977C24.9226 241.417 24.6934 241.803 24.3714 242.136C24.0495 242.466 23.6518 242.723 23.1783 242.909C22.7048 243.091 22.1726 243.182 21.5817 243.182ZM26.2351 243V234.273H27.5305V235.636H27.6442C27.826 235.17 28.1196 234.809 28.5249 234.551C28.9302 234.29 29.4169 234.159 29.9851 234.159C30.5608 234.159 31.04 234.29 31.4226 234.551C31.8089 234.809 32.1101 235.17 32.326 235.636H32.4169C32.6404 235.186 32.9756 234.828 33.4226 234.562C33.8696 234.294 34.4055 234.159 35.0305 234.159C35.8108 234.159 36.4491 234.403 36.9453 234.892C37.4415 235.377 37.6896 236.133 37.6896 237.159V243H36.3487V237.159C36.3487 236.515 36.1726 236.055 35.8203 235.778C35.468 235.502 35.0533 235.364 34.576 235.364C33.9624 235.364 33.487 235.549 33.1499 235.92C32.8127 236.288 32.6442 236.754 32.6442 237.318V243H31.2805V237.023C31.2805 236.527 31.1196 236.127 30.7976 235.824C30.4756 235.517 30.0608 235.364 29.5533 235.364C29.2048 235.364 28.879 235.456 28.576 235.642C28.2768 235.828 28.0343 236.085 27.8487 236.415C27.6669 236.741 27.576 237.117 27.576 237.545V243H26.2351ZM41.7095 243.205C41.1565 243.205 40.6546 243.1 40.2038 242.892C39.7531 242.68 39.3951 242.375 39.13 241.977C38.8648 241.576 38.7322 241.091 38.7322 240.523C38.7322 240.023 38.8307 239.617 39.0277 239.307C39.2247 238.992 39.4879 238.746 39.8175 238.568C40.147 238.39 40.5107 238.258 40.9084 238.17C41.3099 238.08 41.7133 238.008 42.1186 237.955C42.6489 237.886 43.0788 237.835 43.4084 237.801C43.7417 237.763 43.9841 237.701 44.1357 237.614C44.291 237.527 44.3686 237.375 44.3686 237.159V237.114C44.3686 236.553 44.2152 236.117 43.9084 235.807C43.6054 235.496 43.1451 235.341 42.5277 235.341C41.8875 235.341 41.3857 235.481 41.022 235.761C40.6584 236.042 40.4027 236.341 40.255 236.659L38.9822 236.205C39.2095 235.674 39.5125 235.261 39.8913 234.966C40.2739 234.667 40.6906 234.458 41.1413 234.341C41.5959 234.22 42.0429 234.159 42.4822 234.159C42.7625 234.159 43.0845 234.193 43.4482 234.261C43.8156 234.326 44.1697 234.46 44.5107 234.665C44.8554 234.869 45.1413 235.178 45.3686 235.591C45.5959 236.004 45.7095 236.557 45.7095 237.25V243H44.3686V241.818H44.3004C44.2095 242.008 44.058 242.21 43.8459 242.426C43.6338 242.642 43.3516 242.826 42.9993 242.977C42.647 243.129 42.2171 243.205 41.7095 243.205ZM41.9141 242C42.4444 242 42.8913 241.896 43.255 241.688C43.6224 241.479 43.8989 241.21 44.0845 240.881C44.2739 240.551 44.3686 240.205 44.3686 239.841V238.614C44.3118 238.682 44.1868 238.744 43.9936 238.801C43.8042 238.854 43.5845 238.902 43.3345 238.943C43.0883 238.981 42.8478 239.015 42.6129 239.045C42.3819 239.072 42.1944 239.095 42.0504 239.114C41.7019 239.159 41.3762 239.233 41.0732 239.335C40.7739 239.434 40.5315 239.583 40.3459 239.784C40.1641 239.981 40.0732 240.25 40.0732 240.591C40.0732 241.057 40.2455 241.409 40.5902 241.648C40.9387 241.883 41.38 242 41.9141 242ZM47.157 243V234.273H48.4979V243H47.157ZM47.8388 232.818C47.5774 232.818 47.352 232.729 47.1626 232.551C46.977 232.373 46.8842 232.159 46.8842 231.909C46.8842 231.659 46.977 231.445 47.1626 231.267C47.352 231.089 47.5774 231 47.8388 231C48.1001 231 48.3236 231.089 48.5092 231.267C48.6986 231.445 48.7933 231.659 48.7933 231.909C48.7933 232.159 48.6986 232.373 48.5092 232.551C48.3236 232.729 48.1001 232.818 47.8388 232.818ZM51.2947 237.75V243H49.9538V234.273H51.2493V235.636H51.3629C51.5675 235.193 51.8781 234.837 52.2947 234.568C52.7114 234.295 53.2493 234.159 53.9084 234.159C54.4993 234.159 55.0163 234.28 55.4595 234.523C55.9027 234.761 56.2474 235.125 56.4936 235.614C56.7398 236.098 56.8629 236.712 56.8629 237.455V243H55.522V237.545C55.522 236.86 55.344 236.326 54.9879 235.943C54.6319 235.557 54.1432 235.364 53.522 235.364C53.094 235.364 52.7114 235.456 52.3743 235.642C52.041 235.828 51.7777 236.098 51.5845 236.455C51.3913 236.811 51.2947 237.242 51.2947 237.75ZM58.3132 243V234.273H59.6541V243H58.3132ZM58.995 232.818C58.7337 232.818 58.5083 232.729 58.3189 232.551C58.1333 232.373 58.0405 232.159 58.0405 231.909C58.0405 231.659 58.1333 231.445 58.3189 231.267C58.5083 231.089 58.7337 231 58.995 231C59.2564 231 59.4799 231.089 59.6655 231.267C59.8549 231.445 59.9496 231.659 59.9496 231.909C59.9496 232.159 59.8549 232.373 59.6655 232.551C59.4799 232.729 59.2564 232.818 58.995 232.818ZM62.451 237.75V243H61.1101V234.273H62.4055V235.636H62.5192C62.7237 235.193 63.0343 234.837 63.451 234.568C63.8677 234.295 64.4055 234.159 65.0646 234.159C65.6555 234.159 66.1726 234.28 66.6158 234.523C67.0589 234.761 67.4036 235.125 67.6499 235.614C67.8961 236.098 68.0192 236.712 68.0192 237.455V243H66.6783V237.545C66.6783 236.86 66.5002 236.326 66.1442 235.943C65.7881 235.557 65.2995 235.364 64.6783 235.364C64.2502 235.364 63.8677 235.456 63.5305 235.642C63.1972 235.828 62.9339 236.098 62.7408 236.455C62.5476 236.811 62.451 237.242 62.451 237.75ZM72.9922 246.455C72.3445 246.455 71.7876 246.371 71.3217 246.205C70.8558 246.042 70.4676 245.826 70.157 245.557C69.8501 245.292 69.6058 245.008 69.424 244.705L70.4922 243.955C70.6134 244.114 70.7668 244.295 70.9524 244.5C71.138 244.708 71.3918 244.888 71.7138 245.04C72.0395 245.195 72.4657 245.273 72.9922 245.273C73.6967 245.273 74.2782 245.102 74.7365 244.761C75.1948 244.42 75.424 243.886 75.424 243.159V241.386H75.3104C75.2119 241.545 75.0717 241.742 74.8899 241.977C74.7119 242.208 74.4543 242.415 74.1172 242.597C73.7839 242.775 73.3331 242.864 72.7649 242.864C72.0604 242.864 71.4278 242.697 70.8672 242.364C70.3104 242.03 69.8691 241.545 69.5433 240.909C69.2214 240.273 69.0604 239.5 69.0604 238.591C69.0604 237.697 69.2176 236.919 69.532 236.256C69.8464 235.589 70.2839 235.074 70.8445 234.71C71.4051 234.343 72.0528 234.159 72.7876 234.159C73.3558 234.159 73.8066 234.254 74.1399 234.443C74.477 234.629 74.7346 234.841 74.9126 235.08C75.0945 235.314 75.2346 235.508 75.3331 235.659H75.4695V234.273H76.7649V243.25C76.7649 244 76.5945 244.61 76.2536 245.08C75.9164 245.553 75.4619 245.9 74.8899 246.119C74.3217 246.343 73.6892 246.455 72.9922 246.455ZM72.9467 241.659C73.4846 241.659 73.9392 241.536 74.3104 241.29C74.6816 241.044 74.9638 240.689 75.157 240.227C75.3501 239.765 75.4467 239.212 75.4467 238.568C75.4467 237.939 75.352 237.384 75.1626 236.903C74.9732 236.422 74.6929 236.045 74.3217 235.773C73.9505 235.5 73.4922 235.364 72.9467 235.364C72.3786 235.364 71.9051 235.508 71.5263 235.795C71.1513 236.083 70.8691 236.47 70.6797 236.955C70.4941 237.439 70.4013 237.977 70.4013 238.568C70.4013 239.174 70.496 239.71 70.6854 240.176C70.8786 240.638 71.1626 241.002 71.5376 241.267C71.9164 241.528 72.3861 241.659 72.9467 241.659ZM8.19602 265.273V253.273H9.49148V254.659H9.65057C9.74905 254.508 9.88542 254.314 10.0597 254.08C10.2377 253.841 10.4915 253.629 10.821 253.443C11.1544 253.254 11.6051 253.159 12.1733 253.159C12.9081 253.159 13.5559 253.343 14.1165 253.71C14.6771 254.078 15.1146 254.598 15.429 255.273C15.7434 255.947 15.9006 256.742 15.9006 257.659C15.9006 258.583 15.7434 259.384 15.429 260.062C15.1146 260.737 14.679 261.259 14.1222 261.631C13.5653 261.998 12.9233 262.182 12.196 262.182C11.6354 262.182 11.1866 262.089 10.8494 261.903C10.5123 261.714 10.2528 261.5 10.071 261.261C9.8892 261.019 9.74905 260.818 9.65057 260.659H9.53693V265.273H8.19602ZM9.5142 257.636C9.5142 258.295 9.6108 258.877 9.80398 259.381C9.99716 259.881 10.2794 260.273 10.6506 260.557C11.0218 260.837 11.4763 260.977 12.0142 260.977C12.5748 260.977 13.0426 260.83 13.4176 260.534C13.7964 260.235 14.0805 259.833 14.2699 259.33C14.4631 258.822 14.5597 258.258 14.5597 257.636C14.5597 257.023 14.465 256.47 14.2756 255.977C14.09 255.481 13.8078 255.089 13.429 254.801C13.054 254.509 12.5824 254.364 12.0142 254.364C11.4688 254.364 11.0104 254.502 10.6392 254.778C10.268 255.051 9.98769 255.434 9.7983 255.926C9.6089 256.415 9.5142 256.985 9.5142 257.636ZM19.5142 262.205C18.9612 262.205 18.4593 262.1 18.0085 261.892C17.5578 261.68 17.1998 261.375 16.9347 260.977C16.6695 260.576 16.5369 260.091 16.5369 259.523C16.5369 259.023 16.6354 258.617 16.8324 258.307C17.0294 257.992 17.2926 257.746 17.6222 257.568C17.9517 257.39 18.3153 257.258 18.7131 257.17C19.1146 257.08 19.518 257.008 19.9233 256.955C20.4536 256.886 20.8835 256.835 21.2131 256.801C21.5464 256.763 21.7888 256.701 21.9403 256.614C22.0956 256.527 22.1733 256.375 22.1733 256.159V256.114C22.1733 255.553 22.0199 255.117 21.7131 254.807C21.41 254.496 20.9498 254.341 20.3324 254.341C19.6922 254.341 19.1903 254.481 18.8267 254.761C18.4631 255.042 18.2074 255.341 18.0597 255.659L16.7869 255.205C17.0142 254.674 17.3172 254.261 17.696 253.966C18.0786 253.667 18.4953 253.458 18.946 253.341C19.4006 253.22 19.8475 253.159 20.2869 253.159C20.5672 253.159 20.8892 253.193 21.2528 253.261C21.6203 253.326 21.9744 253.46 22.3153 253.665C22.66 253.869 22.946 254.178 23.1733 254.591C23.4006 255.004 23.5142 255.557 23.5142 256.25V262H22.1733V260.818H22.1051C22.0142 261.008 21.8627 261.21 21.6506 261.426C21.4384 261.642 21.1563 261.826 20.804 261.977C20.4517 262.129 20.0218 262.205 19.5142 262.205ZM19.7188 261C20.2491 261 20.696 260.896 21.0597 260.688C21.4271 260.479 21.7036 260.21 21.8892 259.881C22.0786 259.551 22.1733 259.205 22.1733 258.841V257.614C22.1165 257.682 21.9915 257.744 21.7983 257.801C21.6089 257.854 21.3892 257.902 21.1392 257.943C20.893 257.981 20.6525 258.015 20.4176 258.045C20.1866 258.072 19.9991 258.095 19.8551 258.114C19.5066 258.159 19.1809 258.233 18.8778 258.335C18.5786 258.434 18.3362 258.583 18.1506 258.784C17.9688 258.981 17.8778 259.25 17.8778 259.591C17.8778 260.057 18.0502 260.409 18.3949 260.648C18.7434 260.883 19.1847 261 19.7188 261ZM28.4844 265.455C27.8366 265.455 27.2798 265.371 26.8139 265.205C26.348 265.042 25.9598 264.826 25.6491 264.557C25.3423 264.292 25.098 264.008 24.9162 263.705L25.9844 262.955C26.1056 263.114 26.259 263.295 26.4446 263.5C26.6302 263.708 26.884 263.888 27.206 264.04C27.5317 264.195 27.9579 264.273 28.4844 264.273C29.1889 264.273 29.7704 264.102 30.2287 263.761C30.687 263.42 30.9162 262.886 30.9162 262.159V260.386H30.8026C30.7041 260.545 30.5639 260.742 30.3821 260.977C30.2041 261.208 29.9465 261.415 29.6094 261.597C29.276 261.775 28.8253 261.864 28.2571 261.864C27.5526 261.864 26.92 261.697 26.3594 261.364C25.8026 261.03 25.3613 260.545 25.0355 259.909C24.7135 259.273 24.5526 258.5 24.5526 257.591C24.5526 256.697 24.7098 255.919 25.0241 255.256C25.3385 254.589 25.776 254.074 26.3366 253.71C26.8973 253.343 27.545 253.159 28.2798 253.159C28.848 253.159 29.2988 253.254 29.6321 253.443C29.9692 253.629 30.2268 253.841 30.4048 254.08C30.5866 254.314 30.7268 254.508 30.8253 254.659H30.9616V253.273H32.2571V262.25C32.2571 263 32.0866 263.61 31.7457 264.08C31.4086 264.553 30.9541 264.9 30.3821 265.119C29.8139 265.343 29.1813 265.455 28.4844 265.455ZM28.4389 260.659C28.9768 260.659 29.4313 260.536 29.8026 260.29C30.1738 260.044 30.456 259.689 30.6491 259.227C30.8423 258.765 30.9389 258.212 30.9389 257.568C30.9389 256.939 30.8442 256.384 30.6548 255.903C30.4654 255.422 30.1851 255.045 29.8139 254.773C29.4427 254.5 28.9844 254.364 28.4389 254.364C27.8707 254.364 27.3973 254.508 27.0185 254.795C26.6435 255.083 26.3613 255.47 26.1719 255.955C25.9863 256.439 25.8935 256.977 25.8935 257.568C25.8935 258.174 25.9882 258.71 26.1776 259.176C26.3707 259.638 26.6548 260.002 27.0298 260.267C27.4086 260.528 27.8783 260.659 28.4389 260.659ZM37.3707 262.182C36.5298 262.182 35.8045 261.996 35.1946 261.625C34.5885 261.25 34.1207 260.727 33.7912 260.057C33.4654 259.383 33.3026 258.598 33.3026 257.705C33.3026 256.811 33.4654 256.023 33.7912 255.341C34.1207 254.655 34.5791 254.121 35.1662 253.739C35.7571 253.352 36.4465 253.159 37.2344 253.159C37.6889 253.159 38.1378 253.235 38.581 253.386C39.0241 253.538 39.4276 253.784 39.7912 254.125C40.1548 254.462 40.4446 254.909 40.6605 255.466C40.8764 256.023 40.9844 256.708 40.9844 257.523V258.091H34.2571V256.932H39.6207C39.6207 256.439 39.5223 256 39.3253 255.614C39.1321 255.227 38.8556 254.922 38.4957 254.699C38.1397 254.475 37.7192 254.364 37.2344 254.364C36.7003 254.364 36.2382 254.496 35.848 254.761C35.4616 255.023 35.1643 255.364 34.956 255.784C34.7476 256.205 34.6435 256.655 34.6435 257.136V257.909C34.6435 258.568 34.7571 259.127 34.9844 259.585C35.2154 260.04 35.5355 260.386 35.9446 260.625C36.3537 260.86 36.8291 260.977 37.3707 260.977C37.723 260.977 38.0412 260.928 38.3253 260.83C38.6132 260.727 38.8613 260.576 39.0696 260.375C39.2779 260.17 39.4389 259.917 39.5526 259.614L40.848 259.977C40.7116 260.417 40.4825 260.803 40.1605 261.136C39.8385 261.466 39.4408 261.723 38.9673 261.909C38.4938 262.091 37.9616 262.182 37.3707 262.182ZM45.706 262V250.364H47.0469V254.659H47.1605C47.259 254.508 47.3954 254.314 47.5696 254.08C47.7476 253.841 48.0014 253.629 48.331 253.443C48.6643 253.254 49.1151 253.159 49.6832 253.159C50.4181 253.159 51.0658 253.343 51.6264 253.71C52.187 254.078 52.6245 254.598 52.9389 255.273C53.2533 255.947 53.4105 256.742 53.4105 257.659C53.4105 258.583 53.2533 259.384 52.9389 260.062C52.6245 260.737 52.1889 261.259 51.6321 261.631C51.0753 261.998 50.4332 262.182 49.706 262.182C49.1454 262.182 48.6965 262.089 48.3594 261.903C48.0223 261.714 47.7628 261.5 47.581 261.261C47.3991 261.019 47.259 260.818 47.1605 260.659H47.0014V262H45.706ZM47.0241 257.636C47.0241 258.295 47.1207 258.877 47.3139 259.381C47.5071 259.881 47.7893 260.273 48.1605 260.557C48.5317 260.837 48.9863 260.977 49.5241 260.977C50.0848 260.977 50.5526 260.83 50.9276 260.534C51.3063 260.235 51.5904 259.833 51.7798 259.33C51.973 258.822 52.0696 258.258 52.0696 257.636C52.0696 257.023 51.9749 256.47 51.7855 255.977C51.5999 255.481 51.3177 255.089 50.9389 254.801C50.5639 254.509 50.0923 254.364 49.5241 254.364C48.9787 254.364 48.5204 254.502 48.1491 254.778C47.7779 255.051 47.4976 255.434 47.3082 255.926C47.1188 256.415 47.0241 256.985 47.0241 257.636ZM58.0071 262.182C57.2192 262.182 56.5279 261.994 55.9332 261.619C55.3423 261.244 54.8802 260.72 54.5469 260.045C54.2173 259.371 54.0526 258.583 54.0526 257.682C54.0526 256.773 54.2173 255.979 54.5469 255.301C54.8802 254.623 55.3423 254.097 55.9332 253.722C56.5279 253.347 57.2192 253.159 58.0071 253.159C58.795 253.159 59.4844 253.347 60.0753 253.722C60.67 254.097 61.1321 254.623 61.4616 255.301C61.795 255.979 61.9616 256.773 61.9616 257.682C61.9616 258.583 61.795 259.371 61.4616 260.045C61.1321 260.72 60.67 261.244 60.0753 261.619C59.4844 261.994 58.795 262.182 58.0071 262.182ZM58.0071 260.977C58.6056 260.977 59.098 260.824 59.4844 260.517C59.8707 260.21 60.1567 259.807 60.3423 259.307C60.5279 258.807 60.6207 258.265 60.6207 257.682C60.6207 257.098 60.5279 256.555 60.3423 256.051C60.1567 255.547 59.8707 255.14 59.4844 254.83C59.098 254.519 58.6056 254.364 58.0071 254.364C57.4086 254.364 56.9162 254.519 56.5298 254.83C56.1435 255.14 55.8575 255.547 55.6719 256.051C55.4863 256.555 55.3935 257.098 55.3935 257.682C55.3935 258.265 55.4863 258.807 55.6719 259.307C55.8575 259.807 56.1435 260.21 56.5298 260.517C56.9162 260.824 57.4086 260.977 58.0071 260.977ZM66.304 262.182C65.5767 262.182 64.9347 261.998 64.3778 261.631C63.821 261.259 63.3854 260.737 63.071 260.062C62.7566 259.384 62.5994 258.583 62.5994 257.659C62.5994 256.742 62.7566 255.947 63.071 255.273C63.3854 254.598 63.8229 254.078 64.3835 253.71C64.9441 253.343 65.5919 253.159 66.3267 253.159C66.8949 253.159 67.3438 253.254 67.6733 253.443C68.0066 253.629 68.2604 253.841 68.4347 254.08C68.6127 254.314 68.7509 254.508 68.8494 254.659H68.9631V250.364H70.304V262H69.0085V260.659H68.8494C68.7509 260.818 68.6108 261.019 68.429 261.261C68.2472 261.5 67.9877 261.714 67.6506 261.903C67.3134 262.089 66.8646 262.182 66.304 262.182ZM66.4858 260.977C67.0237 260.977 67.4782 260.837 67.8494 260.557C68.2206 260.273 68.5028 259.881 68.696 259.381C68.8892 258.877 68.9858 258.295 68.9858 257.636C68.9858 256.985 68.8911 256.415 68.7017 255.926C68.5123 255.434 68.232 255.051 67.8608 254.778C67.4896 254.502 67.0313 254.364 66.4858 254.364C65.9176 254.364 65.4441 254.509 65.0653 254.801C64.6903 255.089 64.4081 255.481 64.2188 255.977C64.0331 256.47 63.9403 257.023 63.9403 257.636C63.9403 258.258 64.035 258.822 64.2244 259.33C64.4176 259.833 64.7017 260.235 65.0767 260.534C65.4555 260.83 65.9252 260.977 66.4858 260.977ZM72.8097 265.273C72.5824 265.273 72.3797 265.254 72.2017 265.216C72.0237 265.182 71.9006 265.148 71.8324 265.114L72.1733 263.932C72.4991 264.015 72.7869 264.045 73.0369 264.023C73.2869 264 73.5085 263.888 73.7017 263.688C73.8987 263.491 74.0786 263.17 74.2415 262.727L74.4915 262.045L71.2642 253.273H72.7188L75.1278 260.227H75.2188L77.6278 253.273H79.0824L75.3778 263.273C75.2112 263.723 75.0047 264.097 74.7585 264.392C74.5123 264.691 74.2263 264.913 73.9006 265.057C73.5786 265.201 73.215 265.273 72.8097 265.273ZM81.7841 260.409L81.6932 261.023C81.6288 261.455 81.5303 261.917 81.3977 262.409C81.2689 262.902 81.1345 263.366 80.9943 263.801C80.8542 264.237 80.7386 264.583 80.6477 264.841H79.625C79.6742 264.598 79.7386 264.278 79.8182 263.881C79.8977 263.483 79.9773 263.038 80.0568 262.545C80.1402 262.057 80.2083 261.557 80.2614 261.045L80.3295 260.409H81.7841ZM25.6342 281L22.9751 272.273H24.3842L26.2706 278.955H26.3615L28.2251 272.273H29.657L31.4979 278.932H31.5888L33.4751 272.273H34.8842L32.2251 281H30.907L28.9979 274.295H28.8615L26.9524 281H25.6342ZM36.9979 275.75V281H35.657V269.364H36.9979V273.636H37.1115C37.3161 273.186 37.6229 272.828 38.032 272.562C38.4448 272.294 38.9941 272.159 39.6797 272.159C40.2744 272.159 40.7952 272.278 41.2422 272.517C41.6892 272.752 42.0357 273.114 42.282 273.602C42.532 274.087 42.657 274.705 42.657 275.455V281H41.3161V275.545C41.3161 274.852 41.1361 274.316 40.7763 273.938C40.4202 273.555 39.9259 273.364 39.2933 273.364C38.8539 273.364 38.46 273.456 38.1115 273.642C37.7668 273.828 37.4941 274.098 37.2933 274.455C37.0964 274.811 36.9979 275.242 36.9979 275.75ZM44.1101 281V272.273H45.451V281H44.1101ZM44.7919 270.818C44.5305 270.818 44.3052 270.729 44.1158 270.551C43.9302 270.373 43.8374 270.159 43.8374 269.909C43.8374 269.659 43.9302 269.445 44.1158 269.267C44.3052 269.089 44.5305 269 44.7919 269C45.0533 269 45.2768 269.089 45.4624 269.267C45.6518 269.445 45.7464 269.659 45.7464 269.909C45.7464 270.159 45.6518 270.373 45.4624 270.551C45.2768 270.729 45.0533 270.818 44.7919 270.818ZM50.4524 281.182C49.6342 281.182 48.9297 280.989 48.3388 280.602C47.7479 280.216 47.2933 279.684 46.9751 279.006C46.657 278.328 46.4979 277.553 46.4979 276.682C46.4979 275.795 46.6607 275.013 46.9865 274.335C47.3161 273.653 47.7744 273.121 48.3615 272.739C48.9524 272.352 49.6418 272.159 50.4297 272.159C51.0433 272.159 51.5964 272.273 52.0888 272.5C52.5812 272.727 52.9846 273.045 53.299 273.455C53.6134 273.864 53.8085 274.341 53.8842 274.886H52.5433C52.4411 274.489 52.2138 274.136 51.8615 273.83C51.513 273.519 51.0433 273.364 50.4524 273.364C49.9297 273.364 49.4714 273.5 49.0774 273.773C48.6873 274.042 48.3823 274.422 48.1626 274.915C47.9467 275.403 47.8388 275.977 47.8388 276.636C47.8388 277.311 47.9448 277.898 48.157 278.398C48.3729 278.898 48.6759 279.286 49.0661 279.562C49.46 279.839 49.9221 279.977 50.4524 279.977C50.8009 279.977 51.1172 279.917 51.4013 279.795C51.6854 279.674 51.9259 279.5 52.1229 279.273C52.3198 279.045 52.46 278.773 52.5433 278.455H53.8842C53.8085 278.97 53.621 279.434 53.3217 279.847C53.0263 280.256 52.6342 280.581 52.1456 280.824C51.6607 281.062 51.0964 281.182 50.4524 281.182ZM56.1854 275.75V281H54.8445V269.364H56.1854V273.636H56.299C56.5036 273.186 56.8104 272.828 57.2195 272.562C57.6323 272.294 58.1816 272.159 58.8672 272.159C59.4619 272.159 59.9827 272.278 60.4297 272.517C60.8767 272.752 61.2232 273.114 61.4695 273.602C61.7195 274.087 61.8445 274.705 61.8445 275.455V281H60.5036V275.545C60.5036 274.852 60.3236 274.316 59.9638 273.938C59.6077 273.555 59.1134 273.364 58.4808 273.364C58.0414 273.364 57.6475 273.456 57.299 273.642C56.9543 273.828 56.6816 274.098 56.4808 274.455C56.2839 274.811 56.1854 275.242 56.1854 275.75ZM19.147 300.205C18.594 300.205 18.0921 300.1 17.6413 299.892C17.1906 299.68 16.8326 299.375 16.5675 298.977C16.3023 298.576 16.1697 298.091 16.1697 297.523C16.1697 297.023 16.2682 296.617 16.4652 296.307C16.6622 295.992 16.9254 295.746 17.255 295.568C17.5845 295.39 17.9482 295.258 18.3459 295.17C18.7474 295.08 19.1508 295.008 19.5561 294.955C20.0864 294.886 20.5163 294.835 20.8459 294.801C21.1792 294.763 21.4216 294.701 21.5732 294.614C21.7285 294.527 21.8061 294.375 21.8061 294.159V294.114C21.8061 293.553 21.6527 293.117 21.3459 292.807C21.0429 292.496 20.5826 292.341 19.9652 292.341C19.325 292.341 18.8232 292.481 18.4595 292.761C18.0959 293.042 17.8402 293.341 17.6925 293.659L16.4197 293.205C16.647 292.674 16.95 292.261 17.3288 291.966C17.7114 291.667 18.1281 291.458 18.5788 291.341C19.0334 291.22 19.4804 291.159 19.9197 291.159C20.2 291.159 20.522 291.193 20.8857 291.261C21.2531 291.326 21.6072 291.46 21.9482 291.665C22.2929 291.869 22.5788 292.178 22.8061 292.591C23.0334 293.004 23.147 293.557 23.147 294.25V300H21.8061V298.818H21.7379C21.647 299.008 21.4955 299.21 21.2834 299.426C21.0713 299.642 20.7891 299.826 20.4368 299.977C20.0845 300.129 19.6546 300.205 19.147 300.205ZM19.3516 299C19.8819 299 20.3288 298.896 20.6925 298.688C21.0599 298.479 21.3364 298.21 21.522 297.881C21.7114 297.551 21.8061 297.205 21.8061 296.841V295.614C21.7493 295.682 21.6243 295.744 21.4311 295.801C21.2417 295.854 21.022 295.902 20.772 295.943C20.5258 295.981 20.2853 296.015 20.0504 296.045C19.8194 296.072 19.6319 296.095 19.4879 296.114C19.1394 296.159 18.8137 296.233 18.5107 296.335C18.2114 296.434 17.969 296.583 17.7834 296.784C17.6016 296.981 17.5107 297.25 17.5107 297.591C17.5107 298.057 17.683 298.409 18.0277 298.648C18.3762 298.883 18.8175 299 19.3516 299ZM27.8899 300.182C27.1626 300.182 26.5206 299.998 25.9638 299.631C25.407 299.259 24.9714 298.737 24.657 298.062C24.3426 297.384 24.1854 296.583 24.1854 295.659C24.1854 294.742 24.3426 293.947 24.657 293.273C24.9714 292.598 25.4089 292.078 25.9695 291.71C26.5301 291.343 27.1778 291.159 27.9126 291.159C28.4808 291.159 28.9297 291.254 29.2592 291.443C29.5926 291.629 29.8464 291.841 30.0206 292.08C30.1986 292.314 30.3369 292.508 30.4354 292.659H30.549V288.364H31.8899V300H30.5945V298.659H30.4354C30.3369 298.818 30.1967 299.019 30.0149 299.261C29.8331 299.5 29.5736 299.714 29.2365 299.903C28.8994 300.089 28.4505 300.182 27.8899 300.182ZM28.0717 298.977C28.6096 298.977 29.0642 298.837 29.4354 298.557C29.8066 298.273 30.0888 297.881 30.282 297.381C30.4751 296.877 30.5717 296.295 30.5717 295.636C30.5717 294.985 30.477 294.415 30.2876 293.926C30.0982 293.434 29.8179 293.051 29.4467 292.778C29.0755 292.502 28.6172 292.364 28.0717 292.364C27.5036 292.364 27.0301 292.509 26.6513 292.801C26.2763 293.089 25.9941 293.481 25.8047 293.977C25.6191 294.47 25.5263 295.023 25.5263 295.636C25.5263 296.258 25.621 296.822 25.8104 297.33C26.0036 297.833 26.2876 298.235 26.6626 298.534C27.0414 298.83 27.5111 298.977 28.0717 298.977ZM36.8274 300.182C36.1001 300.182 35.4581 299.998 34.9013 299.631C34.3445 299.259 33.9089 298.737 33.5945 298.062C33.2801 297.384 33.1229 296.583 33.1229 295.659C33.1229 294.742 33.2801 293.947 33.5945 293.273C33.9089 292.598 34.3464 292.078 34.907 291.71C35.4676 291.343 36.1153 291.159 36.8501 291.159C37.4183 291.159 37.8672 291.254 38.1967 291.443C38.5301 291.629 38.7839 291.841 38.9581 292.08C39.1361 292.314 39.2744 292.508 39.3729 292.659H39.4865V288.364H40.8274V300H39.532V298.659H39.3729C39.2744 298.818 39.1342 299.019 38.9524 299.261C38.7706 299.5 38.5111 299.714 38.174 299.903C37.8369 300.089 37.388 300.182 36.8274 300.182ZM37.0092 298.977C37.5471 298.977 38.0017 298.837 38.3729 298.557C38.7441 298.273 39.0263 297.881 39.2195 297.381C39.4126 296.877 39.5092 296.295 39.5092 295.636C39.5092 294.985 39.4145 294.415 39.2251 293.926C39.0357 293.434 38.7554 293.051 38.3842 292.778C38.013 292.502 37.5547 292.364 37.0092 292.364C36.4411 292.364 35.9676 292.509 35.5888 292.801C35.2138 293.089 34.9316 293.481 34.7422 293.977C34.5566 294.47 34.4638 295.023 34.4638 295.636C34.4638 296.258 34.5585 296.822 34.7479 297.33C34.9411 297.833 35.2251 298.235 35.6001 298.534C35.9789 298.83 36.4486 298.977 37.0092 298.977ZM48.6513 293.227L47.4467 293.568C47.371 293.367 47.2592 293.172 47.1115 292.983C46.9676 292.79 46.7706 292.631 46.5206 292.506C46.2706 292.381 45.9505 292.318 45.5604 292.318C45.0263 292.318 44.5812 292.441 44.2251 292.688C43.8729 292.93 43.6967 293.239 43.6967 293.614C43.6967 293.947 43.8179 294.21 44.0604 294.403C44.3028 294.597 44.6816 294.758 45.1967 294.886L46.4922 295.205C47.2725 295.394 47.8539 295.684 48.2365 296.074C48.6191 296.46 48.8104 296.958 48.8104 297.568C48.8104 298.068 48.6664 298.515 48.3786 298.909C48.0945 299.303 47.6967 299.614 47.1854 299.841C46.674 300.068 46.0793 300.182 45.4013 300.182C44.5111 300.182 43.7744 299.989 43.1911 299.602C42.6077 299.216 42.2384 298.652 42.0831 297.909L43.3558 297.591C43.477 298.061 43.7062 298.413 44.0433 298.648C44.3842 298.883 44.8293 299 45.3786 299C46.0036 299 46.4998 298.867 46.8672 298.602C47.2384 298.333 47.424 298.011 47.424 297.636C47.424 297.333 47.3179 297.08 47.1058 296.875C46.8937 296.667 46.5679 296.511 46.1286 296.409L44.674 296.068C43.8748 295.879 43.2876 295.585 42.9126 295.188C42.5414 294.786 42.3558 294.284 42.3558 293.682C42.3558 293.189 42.4941 292.754 42.7706 292.375C43.0509 291.996 43.4316 291.699 43.9126 291.483C44.3975 291.267 44.9467 291.159 45.5604 291.159C46.424 291.159 47.102 291.348 47.5945 291.727C48.0907 292.106 48.4429 292.606 48.6513 293.227ZM58.8288 296.432V291.273H60.1697V300H58.8288V298.523H58.7379C58.5334 298.966 58.2152 299.343 57.7834 299.653C57.3516 299.96 56.8061 300.114 56.147 300.114C55.6016 300.114 55.1167 299.994 54.6925 299.756C54.2682 299.513 53.9349 299.15 53.6925 298.665C53.45 298.176 53.3288 297.561 53.3288 296.818V291.273H54.6697V296.727C54.6697 297.364 54.8478 297.871 55.2038 298.25C55.5637 298.629 56.022 298.818 56.5788 298.818C56.9122 298.818 57.2512 298.733 57.5959 298.562C57.9444 298.392 58.236 298.131 58.4709 297.778C58.7095 297.426 58.8288 296.977 58.8288 296.432ZM61.6257 303.273V291.273H62.9212V292.659H63.0803C63.1787 292.508 63.3151 292.314 63.4893 292.08C63.6674 291.841 63.9212 291.629 64.2507 291.443C64.584 291.254 65.0348 291.159 65.603 291.159C66.3378 291.159 66.9856 291.343 67.5462 291.71C68.1068 292.078 68.5443 292.598 68.8587 293.273C69.1731 293.947 69.3303 294.742 69.3303 295.659C69.3303 296.583 69.1731 297.384 68.8587 298.062C68.5443 298.737 68.1087 299.259 67.5518 299.631C66.995 299.998 66.353 300.182 65.6257 300.182C65.0651 300.182 64.6162 300.089 64.2791 299.903C63.942 299.714 63.6825 299.5 63.5007 299.261C63.3189 299.019 63.1787 298.818 63.0803 298.659H62.9666V303.273H61.6257ZM62.9439 295.636C62.9439 296.295 63.0405 296.877 63.2337 297.381C63.4268 297.881 63.709 298.273 64.0803 298.557C64.4515 298.837 64.906 298.977 65.4439 298.977C66.0045 298.977 66.4723 298.83 66.8473 298.534C67.2261 298.235 67.5102 297.833 67.6996 297.33C67.8928 296.822 67.9893 296.258 67.9893 295.636C67.9893 295.023 67.8946 294.47 67.7053 293.977C67.5196 293.481 67.2375 293.089 66.8587 292.801C66.4837 292.509 66.0121 292.364 65.4439 292.364C64.8984 292.364 64.4401 292.502 64.0689 292.778C63.6977 293.051 63.4174 293.434 63.228 293.926C63.0386 294.415 62.9439 294.985 62.9439 295.636ZM17.8821 310.273V311.409H13.3594V310.273H17.8821ZM14.6776 308.182H16.0185V316.5C16.0185 316.879 16.0734 317.163 16.1832 317.352C16.2969 317.538 16.4408 317.663 16.6151 317.727C16.7931 317.788 16.9806 317.818 17.1776 317.818C17.3253 317.818 17.4465 317.811 17.5412 317.795C17.6359 317.777 17.7116 317.761 17.7685 317.75L18.0412 318.955C17.9503 318.989 17.8234 319.023 17.6605 319.057C17.4976 319.095 17.2912 319.114 17.0412 319.114C16.6624 319.114 16.2912 319.032 15.9276 318.869C15.5677 318.706 15.2685 318.458 15.0298 318.125C14.795 317.792 14.6776 317.371 14.6776 316.864V308.182ZM22.3509 319.182C21.563 319.182 20.8717 318.994 20.277 318.619C19.6861 318.244 19.224 317.72 18.8906 317.045C18.5611 316.371 18.3963 315.583 18.3963 314.682C18.3963 313.773 18.5611 312.979 18.8906 312.301C19.224 311.623 19.6861 311.097 20.277 310.722C20.8717 310.347 21.563 310.159 22.3509 310.159C23.1387 310.159 23.8281 310.347 24.419 310.722C25.0137 311.097 25.4759 311.623 25.8054 312.301C26.1387 312.979 26.3054 313.773 26.3054 314.682C26.3054 315.583 26.1387 316.371 25.8054 317.045C25.4759 317.72 25.0137 318.244 24.419 318.619C23.8281 318.994 23.1387 319.182 22.3509 319.182ZM22.3509 317.977C22.9493 317.977 23.4418 317.824 23.8281 317.517C24.2145 317.21 24.5005 316.807 24.6861 316.307C24.8717 315.807 24.9645 315.265 24.9645 314.682C24.9645 314.098 24.8717 313.555 24.6861 313.051C24.5005 312.547 24.2145 312.14 23.8281 311.83C23.4418 311.519 22.9493 311.364 22.3509 311.364C21.7524 311.364 21.2599 311.519 20.8736 311.83C20.4872 312.14 20.2012 312.547 20.0156 313.051C19.83 313.555 19.7372 314.098 19.7372 314.682C19.7372 315.265 19.83 315.807 20.0156 316.307C20.2012 316.807 20.4872 317.21 20.8736 317.517C21.2599 317.824 21.7524 317.977 22.3509 317.977ZM30.8523 319V310.273H32.1477V311.636H32.2614C32.4432 311.17 32.7367 310.809 33.142 310.551C33.5473 310.29 34.0341 310.159 34.6023 310.159C35.178 310.159 35.6572 310.29 36.0398 310.551C36.4261 310.809 36.7273 311.17 36.9432 311.636H37.0341C37.2576 311.186 37.5928 310.828 38.0398 310.562C38.4867 310.294 39.0227 310.159 39.6477 310.159C40.428 310.159 41.0663 310.403 41.5625 310.892C42.0587 311.377 42.3068 312.133 42.3068 313.159V319H40.9659V313.159C40.9659 312.515 40.7898 312.055 40.4375 311.778C40.0852 311.502 39.6705 311.364 39.1932 311.364C38.5795 311.364 38.1042 311.549 37.767 311.92C37.4299 312.288 37.2614 312.754 37.2614 313.318V319H35.8977V313.023C35.8977 312.527 35.7367 312.127 35.4148 311.824C35.0928 311.517 34.678 311.364 34.1705 311.364C33.822 311.364 33.4962 311.456 33.1932 311.642C32.8939 311.828 32.6515 312.085 32.4659 312.415C32.2841 312.741 32.1932 313.117 32.1932 313.545V319H30.8523ZM46.3267 319.205C45.7737 319.205 45.2718 319.1 44.821 318.892C44.3703 318.68 44.0123 318.375 43.7472 317.977C43.482 317.576 43.3494 317.091 43.3494 316.523C43.3494 316.023 43.4479 315.617 43.6449 315.307C43.8419 314.992 44.1051 314.746 44.4347 314.568C44.7642 314.39 45.1278 314.258 45.5256 314.17C45.9271 314.08 46.3305 314.008 46.7358 313.955C47.2661 313.886 47.696 313.835 48.0256 313.801C48.3589 313.763 48.6013 313.701 48.7528 313.614C48.9081 313.527 48.9858 313.375 48.9858 313.159V313.114C48.9858 312.553 48.8324 312.117 48.5256 311.807C48.2225 311.496 47.7623 311.341 47.1449 311.341C46.5047 311.341 46.0028 311.481 45.6392 311.761C45.2756 312.042 45.0199 312.341 44.8722 312.659L43.5994 312.205C43.8267 311.674 44.1297 311.261 44.5085 310.966C44.8911 310.667 45.3078 310.458 45.7585 310.341C46.2131 310.22 46.66 310.159 47.0994 310.159C47.3797 310.159 47.7017 310.193 48.0653 310.261C48.4328 310.326 48.7869 310.46 49.1278 310.665C49.4725 310.869 49.7585 311.178 49.9858 311.591C50.2131 312.004 50.3267 312.557 50.3267 313.25V319H48.9858V317.818H48.9176C48.8267 318.008 48.6752 318.21 48.4631 318.426C48.2509 318.642 47.9688 318.826 47.6165 318.977C47.2642 319.129 46.8343 319.205 46.3267 319.205ZM46.5312 318C47.0616 318 47.5085 317.896 47.8722 317.688C48.2396 317.479 48.5161 317.21 48.7017 316.881C48.8911 316.551 48.9858 316.205 48.9858 315.841V314.614C48.929 314.682 48.804 314.744 48.6108 314.801C48.4214 314.854 48.2017 314.902 47.9517 314.943C47.7055 314.981 47.465 315.015 47.2301 315.045C46.9991 315.072 46.8116 315.095 46.6676 315.114C46.3191 315.159 45.9934 315.233 45.6903 315.335C45.3911 315.434 45.1487 315.583 44.9631 315.784C44.7813 315.981 44.6903 316.25 44.6903 316.591C44.6903 317.057 44.8627 317.409 45.2074 317.648C45.5559 317.883 45.9972 318 46.5312 318ZM51.7741 319V310.273H53.0696V311.591H53.1605C53.3196 311.159 53.6075 310.809 54.0241 310.54C54.4408 310.271 54.9105 310.136 55.4332 310.136C55.5317 310.136 55.6548 310.138 55.8026 310.142C55.9503 310.146 56.062 310.152 56.1378 310.159V311.523C56.0923 311.511 55.9882 311.494 55.8253 311.472C55.6662 311.445 55.4976 311.432 55.3196 311.432C54.8954 311.432 54.5166 311.521 54.1832 311.699C53.8537 311.873 53.5923 312.116 53.3991 312.426C53.2098 312.733 53.1151 313.083 53.1151 313.477V319H51.7741ZM59.9844 322.455C59.3366 322.455 58.7798 322.371 58.3139 322.205C57.848 322.042 57.4598 321.826 57.1491 321.557C56.8423 321.292 56.598 321.008 56.4162 320.705L57.4844 319.955C57.6056 320.114 57.759 320.295 57.9446 320.5C58.1302 320.708 58.384 320.888 58.706 321.04C59.0317 321.195 59.4579 321.273 59.9844 321.273C60.6889 321.273 61.2704 321.102 61.7287 320.761C62.187 320.42 62.4162 319.886 62.4162 319.159V317.386H62.3026C62.2041 317.545 62.0639 317.742 61.8821 317.977C61.7041 318.208 61.4465 318.415 61.1094 318.597C60.776 318.775 60.3253 318.864 59.7571 318.864C59.0526 318.864 58.42 318.697 57.8594 318.364C57.3026 318.03 56.8613 317.545 56.5355 316.909C56.2135 316.273 56.0526 315.5 56.0526 314.591C56.0526 313.697 56.2098 312.919 56.5241 312.256C56.8385 311.589 57.276 311.074 57.8366 310.71C58.3973 310.343 59.045 310.159 59.7798 310.159C60.348 310.159 60.7988 310.254 61.1321 310.443C61.4692 310.629 61.7268 310.841 61.9048 311.08C62.0866 311.314 62.2268 311.508 62.3253 311.659H62.4616V310.273H63.7571V319.25C63.7571 320 63.5866 320.61 63.2457 321.08C62.9086 321.553 62.4541 321.9 61.8821 322.119C61.3139 322.343 60.6813 322.455 59.9844 322.455ZM59.9389 317.659C60.4768 317.659 60.9313 317.536 61.3026 317.29C61.6738 317.044 61.956 316.689 62.1491 316.227C62.3423 315.765 62.4389 315.212 62.4389 314.568C62.4389 313.939 62.3442 313.384 62.1548 312.903C61.9654 312.422 61.6851 312.045 61.3139 311.773C60.9427 311.5 60.4844 311.364 59.9389 311.364C59.3707 311.364 58.8973 311.508 58.5185 311.795C58.1435 312.083 57.8613 312.47 57.6719 312.955C57.4863 313.439 57.3935 313.977 57.3935 314.568C57.3935 315.174 57.4882 315.71 57.6776 316.176C57.8707 316.638 58.1548 317.002 58.5298 317.267C58.9086 317.528 59.3783 317.659 59.9389 317.659ZM65.2116 319V310.273H66.5526V319H65.2116ZM65.8935 308.818C65.6321 308.818 65.4067 308.729 65.2173 308.551C65.0317 308.373 64.9389 308.159 64.9389 307.909C64.9389 307.659 65.0317 307.445 65.2173 307.267C65.4067 307.089 65.6321 307 65.8935 307C66.1548 307 66.3783 307.089 66.5639 307.267C66.7533 307.445 66.848 307.659 66.848 307.909C66.848 308.159 66.7533 308.373 66.5639 308.551C66.3783 308.729 66.1548 308.818 65.8935 308.818ZM69.3494 313.75V319H68.0085V310.273H69.304V311.636H69.4176C69.6222 311.193 69.9328 310.837 70.3494 310.568C70.7661 310.295 71.304 310.159 71.9631 310.159C72.554 310.159 73.071 310.28 73.5142 310.523C73.9574 310.761 74.3021 311.125 74.5483 311.614C74.7945 312.098 74.9176 312.712 74.9176 313.455V319H73.5767V313.545C73.5767 312.86 73.3987 312.326 73.0426 311.943C72.6866 311.557 72.1979 311.364 71.5767 311.364C71.1487 311.364 70.7661 311.456 70.429 311.642C70.0956 311.828 69.8324 312.098 69.6392 312.455C69.446 312.811 69.3494 313.242 69.3494 313.75Z" fill="black"/>
<rect x="110" y="20" width="380" height="380" fill="#B2EBF2"/>
<rect x="110" y="20" width="80" height="80" fill="white"/>
<rect x="110" y="120" width="80" height="80" fill="white"/>
<rect x="110" y="220" width="80" height="80" fill="white"/>
<rect x="110" y="320" width="80" height="80" fill="white"/>
<rect x="210" y="20" width="80" height="80" fill="white"/>
<rect x="210" y="120" width="80" height="80" fill="white"/>
<rect x="210" y="220" width="80" height="80" fill="white"/>
<rect x="210" y="320" width="80" height="80" fill="white"/>
<rect x="310" y="20" width="80" height="80" fill="white"/>
<rect x="310" y="120" width="80" height="80" fill="white"/>
<rect x="310" y="220" width="80" height="80" fill="white"/>
<rect x="310" y="320" width="80" height="80" fill="white"/>
<rect x="410" y="20" width="80" height="80" fill="white"/>
<g style="mix-blend-mode:multiply">
<rect x="310" y="20" width="80" height="380" fill="#27A7E8" fill-opacity="0.7"/>
</g>
<rect x="410" y="120" width="80" height="80" fill="white"/>
<rect x="410" y="220" width="80" height="80" fill="white"/>
<rect x="410" y="320" width="80" height="80" fill="white"/>
<path d="M22.8281 173.455C22.1804 173.455 21.6236 173.371 21.1577 173.205C20.6918 173.042 20.3035 172.826 19.9929 172.557C19.6861 172.292 19.4418 172.008 19.2599 171.705L20.3281 170.955C20.4493 171.114 20.6027 171.295 20.7884 171.5C20.974 171.708 21.2277 171.888 21.5497 172.04C21.8755 172.195 22.3016 172.273 22.8281 172.273C23.5327 172.273 24.1141 172.102 24.5724 171.761C25.0308 171.42 25.2599 170.886 25.2599 170.159V168.386H25.1463C25.0478 168.545 24.9077 168.742 24.7259 168.977C24.5478 169.208 24.2902 169.415 23.9531 169.597C23.6198 169.775 23.169 169.864 22.6009 169.864C21.8963 169.864 21.2637 169.697 20.7031 169.364C20.1463 169.03 19.705 168.545 19.3793 167.909C19.0573 167.273 18.8963 166.5 18.8963 165.591C18.8963 164.697 19.0535 163.919 19.3679 163.256C19.6823 162.589 20.1198 162.074 20.6804 161.71C21.241 161.343 21.8887 161.159 22.6236 161.159C23.1918 161.159 23.6425 161.254 23.9759 161.443C24.313 161.629 24.5705 161.841 24.7486 162.08C24.9304 162.314 25.0705 162.508 25.169 162.659H25.3054V161.273H26.6009V170.25C26.6009 171 26.4304 171.61 26.0895 172.08C25.7524 172.553 25.2978 172.9 24.7259 173.119C24.1577 173.343 23.5251 173.455 22.8281 173.455ZM22.7827 168.659C23.3205 168.659 23.7751 168.536 24.1463 168.29C24.5175 168.044 24.7997 167.689 24.9929 167.227C25.1861 166.765 25.2827 166.212 25.2827 165.568C25.2827 164.939 25.188 164.384 24.9986 163.903C24.8092 163.422 24.5289 163.045 24.1577 162.773C23.7865 162.5 23.3281 162.364 22.7827 162.364C22.2145 162.364 21.741 162.508 21.3622 162.795C20.9872 163.083 20.705 163.47 20.5156 163.955C20.33 164.439 20.2372 164.977 20.2372 165.568C20.2372 166.174 20.3319 166.71 20.5213 167.176C20.7145 167.638 20.9986 168.002 21.3736 168.267C21.7524 168.528 22.2221 168.659 22.7827 168.659ZM33.5554 166.432V161.273H34.8963V170H33.5554V168.523H33.4645C33.2599 168.966 32.9418 169.343 32.5099 169.653C32.0781 169.96 31.5327 170.114 30.8736 170.114C30.3281 170.114 29.8433 169.994 29.419 169.756C28.9948 169.513 28.6615 169.15 28.419 168.665C28.1766 168.176 28.0554 167.561 28.0554 166.818V161.273H29.3963V166.727C29.3963 167.364 29.5743 167.871 29.9304 168.25C30.2902 168.629 30.7486 168.818 31.3054 168.818C31.6387 168.818 31.9777 168.733 32.3224 168.562C32.6709 168.392 32.9626 168.131 33.1974 167.778C33.4361 167.426 33.5554 166.977 33.5554 166.432ZM40.1477 161.273V162.409H35.625V161.273H40.1477ZM36.9432 159.182H38.2841V167.5C38.2841 167.879 38.339 168.163 38.4489 168.352C38.5625 168.538 38.7064 168.663 38.8807 168.727C39.0587 168.788 39.2462 168.818 39.4432 168.818C39.5909 168.818 39.7121 168.811 39.8068 168.795C39.9015 168.777 39.9773 168.761 40.0341 168.75L40.3068 169.955C40.2159 169.989 40.089 170.023 39.9261 170.057C39.7633 170.095 39.5568 170.114 39.3068 170.114C38.928 170.114 38.5568 170.032 38.1932 169.869C37.8333 169.706 37.5341 169.458 37.2955 169.125C37.0606 168.792 36.9432 168.371 36.9432 167.864V159.182ZM44.9602 161.273V162.409H40.4375V161.273H44.9602ZM41.7557 159.182H43.0966V167.5C43.0966 167.879 43.1515 168.163 43.2614 168.352C43.375 168.538 43.5189 168.663 43.6932 168.727C43.8712 168.788 44.0587 168.818 44.2557 168.818C44.4034 168.818 44.5246 168.811 44.6193 168.795C44.714 168.777 44.7898 168.761 44.8466 168.75L45.1193 169.955C45.0284 169.989 44.9015 170.023 44.7386 170.057C44.5758 170.095 44.3693 170.114 44.1193 170.114C43.7405 170.114 43.3693 170.032 43.0057 169.869C42.6458 169.706 42.3466 169.458 42.108 169.125C41.8731 168.792 41.7557 168.371 41.7557 167.864V159.182ZM49.5426 170.182C48.7017 170.182 47.9763 169.996 47.3665 169.625C46.7604 169.25 46.2926 168.727 45.9631 168.057C45.6373 167.383 45.4744 166.598 45.4744 165.705C45.4744 164.811 45.6373 164.023 45.9631 163.341C46.2926 162.655 46.7509 162.121 47.3381 161.739C47.929 161.352 48.6184 161.159 49.4062 161.159C49.8608 161.159 50.3097 161.235 50.7528 161.386C51.196 161.538 51.5994 161.784 51.9631 162.125C52.3267 162.462 52.6165 162.909 52.8324 163.466C53.0483 164.023 53.1562 164.708 53.1562 165.523V166.091H46.429V164.932H51.7926C51.7926 164.439 51.6941 164 51.4972 163.614C51.304 163.227 51.0275 162.922 50.6676 162.699C50.3116 162.475 49.8911 162.364 49.4062 162.364C48.8722 162.364 48.41 162.496 48.0199 162.761C47.6335 163.023 47.3362 163.364 47.1278 163.784C46.9195 164.205 46.8153 164.655 46.8153 165.136V165.909C46.8153 166.568 46.929 167.127 47.1562 167.585C47.3873 168.04 47.7074 168.386 48.1165 168.625C48.5256 168.86 49.0009 168.977 49.5426 168.977C49.8949 168.977 50.2131 168.928 50.4972 168.83C50.785 168.727 51.0331 168.576 51.2415 168.375C51.4498 168.17 51.6108 167.917 51.7244 167.614L53.0199 167.977C52.8835 168.417 52.6544 168.803 52.3324 169.136C52.0104 169.466 51.6127 169.723 51.1392 169.909C50.6657 170.091 50.1335 170.182 49.5426 170.182ZM54.196 170V161.273H55.4915V162.591H55.5824C55.7415 162.159 56.0294 161.809 56.446 161.54C56.8627 161.271 57.3324 161.136 57.8551 161.136C57.9536 161.136 58.0767 161.138 58.2244 161.142C58.3722 161.146 58.4839 161.152 58.5597 161.159V162.523C58.5142 162.511 58.41 162.494 58.2472 162.472C58.0881 162.445 57.9195 162.432 57.7415 162.432C57.3172 162.432 56.9384 162.521 56.6051 162.699C56.2756 162.873 56.0142 163.116 55.821 163.426C55.6316 163.733 55.5369 164.083 55.5369 164.477V170H54.196Z" fill="black"/>
<g style="mix-blend-mode:multiply">
<rect x="110" y="300" width="80" height="380" transform="rotate(-90 110 300)" fill="#27A7E8" fill-opacity="0.7"/>
</g>
<path d="M141.839 366.227L140.634 366.568C140.558 366.367 140.447 366.172 140.299 365.983C140.155 365.79 139.958 365.631 139.708 365.506C139.458 365.381 139.138 365.318 138.748 365.318C138.214 365.318 137.769 365.441 137.413 365.688C137.06 365.93 136.884 366.239 136.884 366.614C136.884 366.947 137.005 367.21 137.248 367.403C137.49 367.597 137.869 367.758 138.384 367.886L139.68 368.205C140.46 368.394 141.041 368.684 141.424 369.074C141.807 369.46 141.998 369.958 141.998 370.568C141.998 371.068 141.854 371.515 141.566 371.909C141.282 372.303 140.884 372.614 140.373 372.841C139.862 373.068 139.267 373.182 138.589 373.182C137.699 373.182 136.962 372.989 136.379 372.602C135.795 372.216 135.426 371.652 135.271 370.909L136.543 370.591C136.665 371.061 136.894 371.413 137.231 371.648C137.572 371.883 138.017 372 138.566 372C139.191 372 139.687 371.867 140.055 371.602C140.426 371.333 140.612 371.011 140.612 370.636C140.612 370.333 140.505 370.08 140.293 369.875C140.081 369.667 139.755 369.511 139.316 369.409L137.862 369.068C137.062 368.879 136.475 368.585 136.1 368.188C135.729 367.786 135.543 367.284 135.543 366.682C135.543 366.189 135.682 365.754 135.958 365.375C136.238 364.996 136.619 364.699 137.1 364.483C137.585 364.267 138.134 364.159 138.748 364.159C139.612 364.159 140.29 364.348 140.782 364.727C141.278 365.106 141.63 365.606 141.839 366.227ZM146.812 364.273V365.409H142.289V364.273H146.812ZM143.607 362.182H144.948V370.5C144.948 370.879 145.003 371.163 145.113 371.352C145.227 371.538 145.371 371.663 145.545 371.727C145.723 371.788 145.91 371.818 146.107 371.818C146.255 371.818 146.376 371.811 146.471 371.795C146.566 371.777 146.641 371.761 146.698 371.75L146.971 372.955C146.88 372.989 146.753 373.023 146.59 373.057C146.427 373.095 146.221 373.114 145.971 373.114C145.592 373.114 145.221 373.032 144.857 372.869C144.497 372.706 144.198 372.458 143.96 372.125C143.725 371.792 143.607 371.371 143.607 370.864V362.182ZM151.394 373.182C150.553 373.182 149.828 372.996 149.218 372.625C148.612 372.25 148.144 371.727 147.815 371.057C147.489 370.383 147.326 369.598 147.326 368.705C147.326 367.811 147.489 367.023 147.815 366.341C148.144 365.655 148.603 365.121 149.19 364.739C149.781 364.352 150.47 364.159 151.258 364.159C151.712 364.159 152.161 364.235 152.604 364.386C153.048 364.538 153.451 364.784 153.815 365.125C154.178 365.462 154.468 365.909 154.684 366.466C154.9 367.023 155.008 367.708 155.008 368.523V369.091H148.281V367.932H153.644C153.644 367.439 153.546 367 153.349 366.614C153.156 366.227 152.879 365.922 152.519 365.699C152.163 365.475 151.743 365.364 151.258 365.364C150.724 365.364 150.262 365.496 149.871 365.761C149.485 366.023 149.188 366.364 148.979 366.784C148.771 367.205 148.667 367.655 148.667 368.136V368.909C148.667 369.568 148.781 370.127 149.008 370.585C149.239 371.04 149.559 371.386 149.968 371.625C150.377 371.86 150.853 371.977 151.394 371.977C151.746 371.977 152.065 371.928 152.349 371.83C152.637 371.727 152.885 371.576 153.093 371.375C153.301 371.17 153.462 370.917 153.576 370.614L154.871 370.977C154.735 371.417 154.506 371.803 154.184 372.136C153.862 372.466 153.464 372.723 152.991 372.909C152.517 373.091 151.985 373.182 151.394 373.182ZM156.048 376.273V364.273H157.343V365.659H157.502C157.601 365.508 157.737 365.314 157.911 365.08C158.089 364.841 158.343 364.629 158.673 364.443C159.006 364.254 159.457 364.159 160.025 364.159C160.76 364.159 161.407 364.343 161.968 364.71C162.529 365.078 162.966 365.598 163.281 366.273C163.595 366.947 163.752 367.742 163.752 368.659C163.752 369.583 163.595 370.384 163.281 371.062C162.966 371.737 162.531 372.259 161.974 372.631C161.417 372.998 160.775 373.182 160.048 373.182C159.487 373.182 159.038 373.089 158.701 372.903C158.364 372.714 158.104 372.5 157.923 372.261C157.741 372.019 157.601 371.818 157.502 371.659H157.388V376.273H156.048ZM157.366 368.636C157.366 369.295 157.462 369.877 157.656 370.381C157.849 370.881 158.131 371.273 158.502 371.557C158.873 371.837 159.328 371.977 159.866 371.977C160.426 371.977 160.894 371.83 161.269 371.534C161.648 371.235 161.932 370.833 162.121 370.33C162.315 369.822 162.411 369.258 162.411 368.636C162.411 368.023 162.317 367.47 162.127 366.977C161.942 366.481 161.659 366.089 161.281 365.801C160.906 365.509 160.434 365.364 159.866 365.364C159.32 365.364 158.862 365.502 158.491 365.778C158.12 366.051 157.839 366.434 157.65 366.926C157.46 367.415 157.366 367.985 157.366 368.636Z" fill="black"/>
<path d="M422.646 259.646C422.451 259.842 422.451 260.158 422.646 260.354L425.828 263.536C426.024 263.731 426.34 263.731 426.536 263.536C426.731 263.34 426.731 263.024 426.536 262.828L423.707 260L426.536 257.172C426.731 256.976 426.731 256.66 426.536 256.464C426.34 256.269 426.024 256.269 425.828 256.464L422.646 259.646ZM529 259.5H423V260.5H529V259.5Z" fill="black"/>
<path d="M92.6481 434.645C92.4519 434.839 92.4505 435.156 92.6448 435.352L95.8121 438.549C96.0065 438.745 96.323 438.746 96.5192 438.552C96.7154 438.357 96.7168 438.041 96.5225 437.845L93.7071 435.003L96.5485 432.188C96.7447 431.994 96.7461 431.677 96.5518 431.481C96.3574 431.285 96.0408 431.283 95.8447 431.478L92.6481 434.645ZM507.352 437.263C507.548 437.069 507.55 436.752 507.356 436.556L504.188 433.359C503.994 433.163 503.677 433.162 503.481 433.356C503.285 433.55 503.284 433.867 503.478 434.063L506.293 436.905L503.452 439.72C503.256 439.914 503.254 440.231 503.449 440.427C503.643 440.623 503.96 440.625 504.156 440.43L507.352 437.263ZM92.9977 435.5L506.998 437.408L507.003 436.408L93.0023 434.5L92.9977 435.5Z" fill="black"/>
<path d="M111.646 384.646C111.451 384.842 111.451 385.158 111.646 385.354L114.828 388.536C115.024 388.731 115.34 388.731 115.536 388.536C115.731 388.34 115.731 388.024 115.536 387.828L112.707 385L115.536 382.172C115.731 381.976 115.731 381.66 115.536 381.464C115.34 381.269 115.024 381.269 114.828 381.464L111.646 384.646ZM187.354 385.354C187.549 385.158 187.549 384.842 187.354 384.646L184.172 381.464C183.976 381.269 183.66 381.269 183.464 381.464C183.269 381.66 183.269 381.976 183.464 382.172L186.293 385L183.464 387.828C183.269 388.024 183.269 388.34 183.464 388.536C183.66 388.731 183.976 388.731 184.172 388.536L187.354 385.354ZM112 385.5L187 385.5L187 384.5L112 384.5L112 385.5Z" fill="black"/>
<path d="M100.354 111.354C100.549 111.158 100.549 110.842 100.354 110.646L97.1716 107.464C96.9763 107.269 96.6597 107.269 96.4645 107.464C96.2692 107.66 96.2692 107.976 96.4645 108.172L99.2929 111L96.4645 113.828C96.2692 114.024 96.2692 114.34 96.4645 114.536C96.6597 114.731 96.9763 114.731 97.1716 114.536L100.354 111.354ZM70 111.5H100V110.5H70V111.5Z" fill="black"/>
<path d="M43.6464 359.354C43.8417 359.549 44.1583 359.549 44.3536 359.354L47.5355 356.172C47.7308 355.976 47.7308 355.66 47.5355 355.464C47.3403 355.269 47.0237 355.269 46.8284 355.464L44 358.293L41.1716 355.464C40.9763 355.269 40.6597 355.269 40.4645 355.464C40.2692 355.66 40.2692 355.976 40.4645 356.172L43.6464 359.354ZM43.5 329L43.5 359L44.5 359L44.5 329L43.5 329Z" fill="black"/>
<path d="M196.354 165.354C196.549 165.158 196.549 164.842 196.354 164.646L193.172 161.464C192.976 161.269 192.66 161.269 192.464 161.464C192.269 161.66 192.269 161.976 192.464 162.172L195.293 165L192.464 167.828C192.269 168.024 192.269 168.34 192.464 168.536C192.66 168.731 192.976 168.731 193.172 168.536L196.354 165.354ZM70 165.5H196V164.5H70V165.5Z" fill="black"/>
<path d="M362.646 71.6464C362.451 71.8417 362.451 72.1583 362.646 72.3536L365.828 75.5355C366.024 75.7308 366.34 75.7308 366.536 75.5355C366.731 75.3403 366.731 75.0237 366.536 74.8284L363.707 72L366.536 69.1716C366.731 68.9763 366.731 68.6597 366.536 68.4645C366.34 68.2692 366.024 68.2692 365.828 68.4645L362.646 71.6464ZM528 71.5L363 71.5V72.5L528 72.5V71.5Z" fill="black"/>
</g>
<defs>
<clipPath id="clip0_31_41">
<rect width="600" height="481" fill="white"/>
</clipPath>
</defs>
</svg>
